<ttFont>
          <CharString index="0">
            254 21 hlineto
            -42 -17 7 14 -5 hvcurveto
            -196 543 rlineto
            -81 hlineto
            -194 -543 rlineto
            -14 -5 -16 -7 -42 hhcurveto
            -21 164 21 vlineto
            -40 -15 5 13 -7 hvcurveto
            52 147 rlineto
            192 hlineto
            56 -153 rlineto
            -8 -8 -17 -4 -33 hhcurveto
            -95 431 rmoveto
            85 -233 rlineto
            -168 hlineto
            return
          </CharString>
          <CharString index="1">
            rmoveto
            29 7 41 19 43 hhcurveto
            79 7 -54 -113 hvcurveto
            -106 -27 -176 -19 -89 vvcurveto
            -96 83 -26 84 64 45 19 19 30 vhcurveto
            -27 21 31 -9 27 hhcurveto
            69 41 17 37 hvcurveto
            -18 hlineto
            -14 -17 -10 -17 -17 -19 16 46 vhcurveto
            198 vlineto
            93 -70 75 -131 vhcurveto
            return
          </CharString>
          <CharString index="2">
            rmoveto
            -32 26 -27 32 32 27 27 32 32 -27 27 -32 -32 -26 -27 -32 vhcurveto
            -191 hmoveto
            -32 27 -27 32 32 26 27 32 32 -26 27 -32 -32 -27 -27 -32 vhcurveto
            return
          </CharString>
          <CharString index="3">
            rmoveto
            89 31 82 60 100 30 -67 -159 -100 -31 -73 -62 -85 -43 68 160 vhcurveto
            115 -258 rmoveto
            165 72 108 118 140 -82 94 -162 -62 callgsubr
            -140 93 -98 153 hvcurveto
            return
          </CharString>
          <CharString index="4">
            rmoveto
            -34 27 -27 34 34 27 27 34 34 -27 27 -34 -34 -27 -27 -34 vhcurveto
            return
          </CharString>
          <CharString index="5">
            -40 callsubr
            2 3 -4 -16 -42 -46 -33 -32 -4 hvcurveto
            -39 vlineto
            33 10 101 30 90 vvcurveto
            56 -44 36 -53 -6 -45 -1 -47 -32 23 -17 33 vhcurveto
            return
          </CharString>
          <CharString index="6">
            rmoveto
            34 -24 29 -71 -46 -39 -17 -31 -17 8 -15 24 vhcurveto
            46 -24 56 31 hhcurveto
            25 6 -9 -40 hvcurveto
            -28 -56 -18 -61 vvcurveto
            30 hlineto
            35 90 16 66 vvcurveto
            return
          </CharString>
          <CharString index="7">
            -92 -103 callsubr
            return
          </CharString>
          <CharString index="8">
            -105 -77 -40 -70 -30 25 -20 26 21 32 10 25 23 -7 18 -16 hvcurveto
            187 -314 rmoveto
            -16 -32 -42 -12 -26 hhcurveto
            return
          </CharString>
          <CharString index="9">
            rmoveto
            -229 -21 hlineto
            -103 callgsubr
            177 -443 -26 -64 rlineto
            -11 -4 -9 -7 -15 -30 7 30 -32 hhcurveto
            -30 -14 -18 -22 -40 41 -8 32 29 48 13 69 28 hvcurveto
            202 505 rlineto
            12 5 19 4 37 hhcurveto
            21 -164 -21 vlineto
            31 16 -4 -7 9 hvcurveto
            -114 -286 -43 callsubr
            endchar
          </CharString>
          <CharString index="10">
            160 21 hlineto
            -101 callgsubr
            454 vlineto
            358 -495 rlineto
            44 544 35 callgsubr
            -364 vlineto
            -296 405 rlineto
            -169 5 callgsubr
          </CharString>
          <CharString index="11">
            310 vlineto
            -99 callgsubr
            -253 -21 vlineto
            -103 callgsubr
            -296 vlineto
            return
          </CharString>
          <CharString index="12">
            329 hmoveto
            -107 callsubr
            return
          </CharString>
          <CharString index="13">
            -101 callgsubr
            503 vlineto
            -99 callgsubr
            -253 -21 vlineto
            -103 callgsubr
            return
          </CharString>
          <CharString index="14">
            170 300 -106 callgsubr
            return
          </CharString>
          <CharString index="15">
            -27 -37 18 68 74 88 21 66 20 hvcurveto
            -113 vlineto
            -25 4 -19 6 -16 vhcurveto
            return
          </CharString>
          <CharString index="16">
            51 -31 39 -53 -18 -28 -18 -32 -32 20 -17 31 vhcurveto
            5 8 2 3 hhcurveto
            1 3 -1 -1 1 hvcurveto
            return
          </CharString>
          <CharString index="17">
            21 vlineto
            -101 callgsubr
            return
          </CharString>
          <CharString index="18">
            rmoveto
            38 39 28 94 hvcurveto
            -19 hlineto
            -37 -10 -12 -40 vhcurveto
            return
          </CharString>
          <CharString index="19">
            -77 callgsubr
            570 -95 callgsubr
            -162 vmoveto
            -342 vlineto
            -17 -22 -34 -15 -54 hhcurveto
            -48 -56 82 116 130 70 68 52 44 29 -11 -11 19 hvcurveto
            return
          </CharString>
          <CharString index="20">
            251 21 hlineto
            -101 callgsubr
            589 -95 callgsubr
            -519 vlineto
            -14 -6 -15 -83 callsubr
            return
          </CharString>
          <CharString index="21">
            32 29 -8 -36 -19 -10 -28 -57 -8 -8 1 1 -9 hvcurveto
            -17 vlineto
            -5 29 24 -2 21 hhcurveto
            91 29 43 34 51 -75 16 -30 hvcurveto
            return
          </CharString>
          <CharString index="22">
            63 callsubr
            39 vlineto
            121 -214 rlineto
            -49 28 53 -3 92 hhcurveto
            43 21 hlineto
            -42 -17 7 14 -7 hvcurveto
            -133 238 rlineto
            90 26 41 60 71 vvcurveto
            67 -73 81 -179 vhcurveto
            return
          </CharString>
          <CharString index="23">
            vlineto
            -5 callsubr
            253 -90 callsubr
            return
          </CharString>
          <CharString index="24">
            -6 -42 hhcurveto
            return
          </CharString>
          <CharString index="25">
            rmoveto
            -20 -49 -18 -12 -30 hvcurveto
            15 -22 -35 15 -51 hhcurveto
            -130 -111 -78 -154 -182 141 -46 78 45 33 9 13 25 hvcurveto
            -134 -6 -33 -42 -59 hhcurveto
            -75 -33 20 7 -7 hvcurveto
            return
          </CharString>
          <CharString index="26">
            vvcurveto
            -60 38 -37 67 59 20 32 0 vhcurveto
            -11 18 rlineto
            0 -13 -16 -18 -48 -35 35 63 return
          </CharString>
          <CharString index="27">
            18 7 7 10 25 vvcurveto
            25 -18 22 -28 -38 -16 -24 -40 -54 78 -34 122 131 83 98 131 vhcurveto
            -125 15 rmoveto
            -11 -22 -30 -9 -42 hhcurveto
            return
          </CharString>
          <CharString index="28">
            -53 callsubr
            hintmask 0001000000100000
            55 80 -72 -28 callgsubr
            hintmask 0001001001000000
            -10 151 -69 callsubr
            hintmask 1010001010000000
            -73 callsubr
            hintmask 0100010010000000
            -37 callsubr
          </CharString>
          <CharString index="29">
            97 -413 -21 vlineto
            -103 callgsubr
            -503 10 callgsubr
          </CharString>
          <CharString index="30">
            251 21 hlineto
            -101 callgsubr
            503 vlineto
            -99 callgsubr
            -251 -21 vlineto
            -103 callgsubr
            -503 9 callsubr
            -17 5 11 -9 hvcurveto
            -251 325 182 179 rlineto
            9 10 10 14 42 hhcurveto
            21 -157 -21 vlineto
            26 15 -2 -5 10 hvcurveto
            -245 -243 228 -290 rlineto
            -2 -9 -12 -1 -16 hhcurveto
            endchar
          </CharString>
          <CharString index="31">
            rmoveto
            251 21 hlineto
            -101 callgsubr
            333 vlineto
            -76 callgsubr
            -339 vlineto
            -14 -6 -15 -83 callsubr
            endchar
          </CharString>
          <CharString index="32">
            -14 -36 -17 -21 -14 -6 rrcurveto
            -208 510 hlineto
            -99 callgsubr
            -253 -21 vlineto
            -103 callgsubr
            -503 vlineto
            return
          </CharString>
          <CharString index="33">
            hlineto
            -121 -19 -12 -23 -34 hvcurveto
            -22 -15 -11 -33 -22 vvcurveto
            -37 22 -51 49 26 21 18 29 13 -5 12 -14 8 vhcurveto
            -11 6 -4 11 12 vvcurveto
            12 4 12 7 7 vhcurveto
            11 10 29 8 73 hhcurveto
            return
          </CharString>
          <CharString index="34">
            -19 -51 30 -51 hhcurveto
            -90 -85 -76 -79 -82 71 -58 65 -40 hvcurveto
            71 -44 95 -44 -52 vvcurveto
            -58 -45 -38 -66 -56 -98 48 86 -16 vhcurveto
            return
          </CharString>
          <CharString index="35">
            160 21 hlineto
            -101 callgsubr
            455 vlineto
            229 -496 rlineto
            50 hlineto
            224 490 rlineto
            -449 -24 callgsubr
            -183 vlineto
            -213 -465 -213 465 rlineto
            -181 5 callgsubr
          </CharString>
          <CharString index="36">
            vlineto
            58 92 17 88 51 -31 39 -53 -18 -28 -18 -32 -32 20 -17 31 hvcurveto
            -31 callsubr
          </CharString>
          <CharString index="37">
            -41 42 -21 27 33 36 24 41 41 -43 20 -27 -33 -35 -23 -41 vhcurveto
            return
          </CharString>
          <CharString index="38">
            rlineto
            -23 hlineto
            -12 -5 -8 -7 vhcurveto
            return
          </CharString>
          <CharString index="39">
            135 vstem
            -93 callsubr
            return
          </CharString>
          <CharString index="40">
            69 268 rmoveto
            137 112 112 137 137 112 -112 -137 -137 -112 -112 -137 -137 -112 112 137 vhcurveto
            -27 hmoveto
            -152 124 -124 152 152 124 124 152 152 -124 124 -152 -152 -124 -124 -152 vhcurveto
            return
          </CharString>
          <CharString index="41">
            rmoveto
            -54 264 54 vlineto
            return
          </CharString>
          <CharString index="42">
            -50 callsubr
            246 221 -246 -24 callgsubr
            -253 -21 vlineto
            42 15 -6 -14 6 hvcurveto
            -223 -221 223 vlineto
            -99 callgsubr
            return
          </CharString>
          <CharString index="43">
            242 hlineto
            167 131 120 174 172 -131 119 -179 hvcurveto
            return
          </CharString>
          <CharString index="44">
            rmoveto
            77 49 58 47 hvcurveto
            -28 hlineto
            -21 -11 -20 -23 -67 hhcurveto
            -67 -20 23 21 -11 86 callsubr
            49 -58 77 vhcurveto
            return
          </CharString>
          <CharString index="45">
            rmoveto
            -52 hlineto
            -189 -270 rlineto
            161 -72 hlineto
            -6 -3 -9 -4 -30 hhcurveto
            -23 164 23 vlineto
            -25 -13 3 7 -4 hvcurveto
            72 45 29 -45 vlineto
            -80 hmoveto
            -105 hlineto
            105 150 rlineto
            return
          </CharString>
          <CharString index="46">
            hlineto
            24 97 rlineto
            -20 hlineto
            return
          </CharString>
          <CharString index="47">
            hintmask 0000000000000000
            return
          </CharString>
          <CharString index="48">
            -106 callsubr
            hintmask 1110001001100000
            -99 callsubr
            hintmask 1110010001100000
            -92 callsubr
            endchar
          </CharString>
          <CharString index="49">
            -10 146 -69 callsubr
            -19 -34 30 -58 hhcurveto
            -74 -70 -43 -78 hvcurveto
            return
          </CharString>
          <CharString index="50">
            76 20 36 24 20 4 -10 -20 10 vhcurveto
            -27 14 12 -17 20 hhcurveto
            22 20 18 18 46 -76 22 -56 -68 -91 -46 -110 hvcurveto
            return
          </CharString>
          <CharString index="51">
            15 18 26 hvcurveto
            -33 -92 callgsubr
            return
          </CharString>
          <CharString index="52">
            rmoveto
            33 53 rlineto
            -22 41 47 -13 50 hhcurveto
            163 134 139 163 96 -45 88 -72 56 hvcurveto
            38 62 -29 18 -38 -60 rlineto
            27 -44 -52 16 -55 hhcurveto
            -165 -132 -140 -163 -102 51 -93 79 -55 hvcurveto
            -33 -52 rlineto
            331 465 rmoveto
            22 -52 9 -62 -57 vvcurveto
            -116 -33 -144 -125 -47 -35 21 34 -26 vhcurveto
            217 412 rmoveto
            -237 -379 rlineto
            -27 54 -11 71 63 vvcurveto
            116 33 145 125 53 38 -28 -42 26 vhcurveto
            endchar
          </CharString>
          <CharString index="53">
            32 38 27 29 35 -44 25 -29 -32 -38 -28 -29 -35 44 -24 29 hvcurveto
            return
          </CharString>
          <CharString index="54">
            rmoveto
            93 104 52 106 91 -70 56 -77 47 hvcurveto
            -71 43 -91 43 44 vvcurveto
            34 24 55 67 vhcurveto
            return
          </CharString>
          <CharString index="55">
            -11 callgsubr
            346 20 return
          </CharString>
          <CharString index="56">
            0 -38 callgsubr
            return
          </CharString>
          <CharString index="57">
            253 21 hlineto
            -101 callgsubr
            return
          </CharString>
          <CharString index="58">
            56 76 22 46 18 -20 18 -22 -20 -12 -17 -27 -14 vhcurveto
            -20 -10 -4 -10 -20 hhcurveto
            -24 return
          </CharString>
          <CharString index="59">
            34 253 51 callsubr
            return
          </CharString>
          <CharString index="60">
            hstemhm
            25 128 -104 104 return
          </CharString>
          <CharString index="61">
            rmoveto
            hintmask 00010110
            38 39 14 70 hvcurveto
            -19 hlineto
            hintmask 00100110
            -22 -10 -16 -40 vhcurveto
            hintmask 00010110
            -30 -82 38 -41 hhcurveto
            hintmask 00100110
            -38 -38 -14 -70 hvcurveto
            19 hlineto
            hintmask 00010110
            22 10 16 40 vhcurveto
            30 81 -38 41 hhcurveto
            return
          </CharString>
          <CharString index="62">
            -153 122 return
          </CharString>
          <CharString index="63">
            104 56 30 62 38 return
          </CharString>
          <CharString index="64">
            -31 callgsubr
            -46 callgsubr
            return
          </CharString>
          <CharString index="65">
            87 -32 callsubr
            return
          </CharString>
          <CharString index="66">
            73 8 37 11 10 vhcurveto
            7 7 12 4 12 hhcurveto
            12 11 -4 -11 6 hvcurveto
            -14 8 6 -12 25 hhcurveto
            23 18 20 26 return
          </CharString>
          <CharString index="67">
            18 11 13 2 hhcurveto
            return
          </CharString>
          <CharString index="68">
            422 rmoveto
            -152 -158 4 -156 vvcurveto
            -77 -84 callsubr
            127 vlineto
            126 137 -8 154 vvcurveto
            66 -58 89 -148 -131 -51 -72 -70 -36 15 -26 34 26 20 12 28 31 -17 17 -25 vhcurveto
            39 10 28 47 81 hhcurveto
            60 50 -67 -76 hvcurveto
            endchar
          </CharString>
          <CharString index="69">
            34 9 23 363 21 return
          </CharString>
          <CharString index="70">
            -22 -158 23 hlineto
            12 15 8 7 vhcurveto
            19 52 -30 82 hhcurveto
            endchar
          </CharString>
          <CharString index="71">
            51 callgsubr
            21 hlineto
            91 61 -35 -80 -106 -57 -30 -83 hvcurveto
            -33 hlineto
            endchar
          </CharString>
          <CharString index="72">
            hstem
            77 125 195 125 vstem
            14 hmoveto
            251 21 hlineto
            -101 callgsubr
            339 vlineto
            19 28 39 17 46 hhcurveto
            52 30 -32 -96 hvcurveto
            -247 vlineto
            -5 callsubr
            251 -90 callsubr
            271 vlineto
            102 -75 36 -126 -47 -41 -19 -20 -31 vhcurveto
            return
          </CharString>
          <CharString index="73">
            rmoveto
            47 4 -48 -42 -67 -15 -46 -35 -33 -28 31 101 20 1 18 3 19 hvcurveto
            7 13 10 7 33 hhcurveto
            -49 20 rmoveto
            20 72 36 30 66 17 -13 20 rcurveline
            -72 -8 -125 -56 -166 vvcurveto
            -89 44 -74 94 81 49 52 86 71 -25 57 -108 -20 -9 -4 -8 -18 vhcurveto
            endchar
          </CharString>
          <CharString index="74">
            51 callgsubr
            14 hlineto
            125 27 -54 -51 -77 -17 -50 -103 hvcurveto
            -46 hlineto
            -29 vmoveto
            58 hlineto
            return
          </CharString>
          <CharString index="75">
            -10 -11 callsubr
            return
          </CharString>
          <CharString index="76">
            5 8 2 3 hhcurveto
            1 3 -1 -1 1 hvcurveto
            endchar
          </CharString>
          <CharString index="77">
            -32 -14 callsubr
            return
          </CharString>
          <CharString index="78">
            14 -6 21 -15 -42 vvcurveto
            21 97 hlineto
            endchar
          </CharString>
          <CharString index="79">
            -54 hlineto
            -73 -67 -72 -80 vhcurveto
            -30 vlineto
            return
          </CharString>
          <CharString index="80">
            34 hmoveto
            -54 -162 rlineto
            46 hlineto
            134 162 rlineto
            return
          </CharString>
          <CharString index="81">
            125 70 18 -60 callsubr
            return
          </CharString>
          <CharString index="82">
            hmoveto
            -50 callsubr
            return
          </CharString>
          <CharString index="83">
            -103 callsubr
            endchar
          </CharString>
          <CharString index="84">
            vlineto
            24 28 35 18 24 48 -29 -78 67 hhcurveto
            28 22 20 32 return
          </CharString>
          <CharString index="85">
            162 -13 callgsubr
            return
          </CharString>
          <CharString index="86">
            rmoveto
            7 53 rlineto
            158 hlineto
            19 69 rlineto
            -198 hlineto
            -24 -157 rlineto
            117 47 -58 -45 -36 -13 -55 -51 hvcurveto
            -96 23 72 -34 hhcurveto
            -21 -7 -11 -30 -16 44 -44 95 94 41 66 68 49 -43 73 -158 2 hvcurveto
            endchar
          </CharString>
          <CharString index="87">
            rmoveto
            -12 -7 -5 -11 -14 vvcurveto
            -9 5 -15 12 -8 vhcurveto
            174 -110 rlineto
            42 vlineto
            -100 100 100 100 rlineto
            42 vlineto
            return
          </CharString>
          <CharString index="88">
            121 31 -69 -51 -77 -31 -59 -109 hvcurveto
            -70 hlineto
            endchar
          </CharString>
          <CharString index="89">
            hhcurveto
            20 4 -10 -20 10 hvcurveto
            -27 14 12 -17 20 hhcurveto
            22 20 18 18 46 return
          </CharString>
          <CharString index="90">
            295 hlineto
            167 73 76 95 51 -54 59 -104 25 hvcurveto
            return
          </CharString>
          <CharString index="91">
            -40 -200 36 154 34 392 34 return
          </CharString>
          <CharString index="92">
            rmoveto
            -39 -31 -26 -61 vhcurveto
            return
          </CharString>
          <CharString index="93">
            -10 26 callsubr
            return
          </CharString>
          <CharString index="94">
            21 543 return
          </CharString>
          <CharString index="95">
            -42 callsubr
            25 162 33 callsubr
            return
          </CharString>
          <CharString index="96">
            34 537 34 return
          </CharString>
          <CharString index="97">
            -59 callgsubr
            65 162 -47 callsubr
            return
          </CharString>
          <CharString index="98">
            31 65 -22 callsubr
            return
          </CharString>
          <CharString index="99">
            117 74 117 return
          </CharString>
          <CharString index="100">
            99 127 return
          </CharString>
          <CharString index="101">
            78 24 36 51 66 vvcurveto
            67 -73 71 -179 vhcurveto
            return
          </CharString>
          <CharString index="102">
            -14 -6 -15 -83 callsubr
            -21 return
          </CharString>
          <CharString index="103">
            -89 callsubr
            hintmask 0000101010000000
            -100 callgsubr
            hintmask 1110010100000000
            return
          </CharString>
          <CharString index="104">
            -95 -149 -105 callsubr
            return
          </CharString>
          <CharString index="105">
            -255 39 99 84 return
          </CharString>
          <CharString index="106">
            hstemhm
            -7 callsubr
            return
          </CharString>
          <CharString index="107">
            hmoveto
            -102 callsubr
            endchar
          </CharString>
          <CharString index="108">
            -10 rmoveto
            18 10 13 3 hhcurveto
            5 3 -6 -15 -28 -28 -40 -52 -12 hvcurveto
            -36 vlineto
            64 4 68 56 68 vvcurveto
            77 -31 33 -54 -19 -42 -16 -45 -31 22 -22 33 vhcurveto
            return
          </CharString>
          <CharString index="109">
            rmoveto
            -70 callsubr
            endchar
          </CharString>
          <CharString index="110">
            22 38 188 58 31 -33 14 -27 -27 -33 -14 -31 -57 38 -189 22 hvcurveto
            return
          </CharString>
          <CharString index="111">
            -24 -51 -6 -27 -20 vvcurveto
            -48 27 -35 49 22 28 12 28 12 -13 18 -16 vhcurveto
            -10 -10 -10 -10 hhcurveto
            -18 -17 17 17 14 8 21 18 39 hvcurveto
            return
          </CharString>
          <CharString index="112">
            -107 -10 34 -24 21 540 8 callsubr
            46 23 -22 85 return
          </CharString>
          <CharString index="113">
            52 66 -68 -54 13 hvcurveto
            22 hlineto
            return
          </CharString>
          <CharString index="114">
            -20 -51 -18 -12 -30 hvcurveto
            15 -22 -36 15 -51 hhcurveto
            -130 -121 -78 -154 -182 151 -46 78 47 35 10 14 25 hvcurveto
            return
          </CharString>
          <CharString index="115">
            34 -30 20 35 162 hstemhm
            return
          </CharString>
          <CharString index="116">
            vlineto
            -14 -6 -15 -83 callsubr
            384 17 callgsubr
            -37 return
          </CharString>
          <CharString index="117">
            22 10 16 40 vhcurveto
            30 81 -38 41 hhcurveto
            -97 -16 rmoveto
            -104 -96 36 -6 93 49 93 -49 36 6 -104 96 rlineto
            endchar
          </CharString>
          <CharString index="118">
            20 0 -39 callgsubr
            return
          </CharString>
          <CharString index="119">
            -96 -10 38 259 83 50 58 callgsubr
            return
          </CharString>
          <CharString index="120">
            -73 -184 58 545 21 return
          </CharString>
          <CharString index="121">
            rmoveto
            -12 -22 -31 -10 -44 hhcurveto
            -70 -39 76 118 132 59 66 68 35 25 -7 -8 19 hvcurveto
            endchar
          </CharString>
          <CharString index="122">
            36 -45 42 -93 vhcurveto
            -126 -20 hlineto
            17 12 -2 -4 2 hvcurveto
            -249 vlineto
            -3 -2 -7 -4 -22 hhcurveto
            return
          </CharString>
          <CharString index="123">
            36 hmoveto
            434 -61 callsubr
            return
          </CharString>
          <CharString index="124">
            hlineto
            194 543 rlineto
            14 5 16 7 42 hhcurveto
            21 -164 -21 vlineto
            40 15 -5 -13 7 hvcurveto
            return
          </CharString>
          <CharString index="125">
            106 -10 34 509 97 -69 34 return
          </CharString>
          <CharString index="126">
            21 -21 34 522 29 -21 21 return
          </CharString>
          <CharString index="127">
            -205 296 44 hstem
            54 264 vstem
            54 340 rmoveto
            -44 264 44 vlineto
            endchar
          </CharString>
          <CharString index="128">
            21 -21 -48 callsubr
            -21 21 hstemhm
            return
          </CharString>
          <CharString index="129">
            34 9 23 364 34 110 23 return
          </CharString>
          <CharString index="130">
            54 callgsubr
            hintmask 00101000
            return
          </CharString>
          <CharString index="131">
            -117 -194 -152 return
          </CharString>
          <CharString index="132">
            rmoveto
            -254 -21 hlineto
            return
          </CharString>
          <CharString index="133">
            30 399 31 return
          </CharString>
          <CharString index="134">
            468 rmoveto
            41 -42 21 -27 -33 -36 -24 -41 -41 43 -20 27 33 35 23 41 vhcurveto
            return
          </CharString>
          <CharString index="135">
            34 540 21 return
          </CharString>
          <CharString index="136">
            30 154 22 128 50 hstemhm
            212 77 -57 75 hintmask 00000000
            hintmask 11101000
            148 return
          </CharString>
          <CharString index="137">
            rmoveto
            -40 hlineto
            -337 -545 rlineto
            40 hlineto
            -9 446 rmoveto
            45 15 43 23 vhcurveto
            return
          </CharString>
          <CharString index="138">
            46 -8 46 hstemhm
            0 19 260 19 hintmask 00000000
            return
          </CharString>
          <CharString index="139">
            12 0 21 245 34 251 34 -21 21 return
          </CharString>
          <CharString index="140">
            hstem
            35 135 return
          </CharString>
          <CharString index="141">
            rmoveto
            49 19 45 36 60 18 -37 -87 -55 -19 -41 -37 -51 -26 38 88 vhcurveto
            return
          </CharString>
          <CharString index="142">
            rmoveto
            32 39 27 29 35 -45 25 -29 -32 -37 -28 -29 -35 43 -24 29 hvcurveto
            return
          </CharString>
          <CharString index="143">
            rmoveto
            99 43 59 65 77 -49 52 -97 -100 -44 -57 -65 -77 56 -54 92 hvcurveto
            return
          </CharString>
          <CharString index="144">
            hlineto
            -85 callgsubr
            return
          </CharString>
          <CharString index="145">
            688 -66 callsubr
            return
          </CharString>
          <CharString index="146">
            34 530 31 -21 21 return
          </CharString>
          <CharString index="147">
            -10 -4 -11 -5 -30 hhcurveto
            -15 193 15 vlineto
            -30 -11 5 10 -4 hvcurveto
            return
          </CharString>
          <CharString index="148">
            125 -102 28 144 18 -60 callsubr
            return
          </CharString>
          <CharString index="149">
            77 callgsubr
            98 127 return
          </CharString>
          <CharString index="150">
            0 86 callgsubr
            return
          </CharString>
          <CharString index="151">
            127 hintmask 00000000
            return
          </CharString>
          <CharString index="152">
            52 callgsubr
            214 125 vstem
            return
          </CharString>
          <CharString index="153">
            46 -10 34 244 21 272 34 return
          </CharString>
          <CharString index="154">
            296 44 hstem
            54 340 rmoveto
            -44 return
          </CharString>
          <CharString index="155">
            -163 0 30 380 30 return
          </CharString>
          <CharString index="156">
            92 53 callsubr
            return
          </CharString>
          <CharString index="157">
            180 -20 180 return
          </CharString>
          <CharString index="158">
            34 230 34 return
          </CharString>
          <CharString index="159">
            hhcurveto
            -109 -182 -55 -250 -258 191 -42 78 return
          </CharString>
          <CharString index="160">
            58 -60 callsubr
            return
          </CharString>
          <CharString index="161">
            19 263 19 return
          </CharString>
          <CharString index="162">
            21 395 34 return
          </CharString>
          <CharString index="163">
            30 326 30 hstem
            40 80 134 80 vstem
            120 return
          </CharString>
          <CharString index="164">
            0 21 370 88 86 30 hstem
            return
          </CharString>
          <CharString index="165">
            -319 -199 30 554 23 return
          </CharString>
          <CharString index="166">
            0 -10 34 9 23 364 34 return
          </CharString>
          <CharString index="167">
            -2 -10 30 386 97 -84 31 return
          </CharString>
          <CharString index="168">
            127 174 21 return
          </CharString>
          <CharString index="169">
            hstemhm
            87 125 return
          </CharString>
          <CharString index="170">
            -50 callsubr
            225 return
          </CharString>
          <CharString index="171">
            hhcurveto
            -51 -98 46 220 250 114 21 53 return
          </CharString>
          <CharString index="172">
            -232 341 15 166 59 57 27 hstem
            27 return
          </CharString>
          <CharString index="173">
            -200 30 170 -39 callgsubr
            hstem
            return
          </CharString>
          <CharString index="174">
            7 84 123 127 return
          </CharString>
          <CharString index="175">
            -85 0 30 525 30 return
          </CharString>
          <CharString index="176">
            hlineto
            -27 -196 rlineto
            60 hlineto
            27 196 rlineto
            return
          </CharString>
          <CharString index="177">
            -3 34 176 34 103 34 176 34 hstemhm
            return
          </CharString>
          <CharString index="178">
            66 264 50 hstem
            215 85 vstem
            259 return
          </CharString>
          <CharString index="179">
            292 rmoveto
            -163 130 -139 167 return
          </CharString>
          <CharString index="180">
            34 396 34 110 23 return
          </CharString>
          <CharString index="181">
            -223 -10 38 382 30 return
          </CharString>
          <CharString index="182">
            65 40 callgsubr
            return
          </CharString>
          <CharString index="183">
            19 217 125 -79 19 return
          </CharString>
          <CharString index="184">
            125 -60 callsubr
            return
          </CharString>
          <CharString index="185">
            -180 53 6 53 return
          </CharString>
          <CharString index="186">
            -200 34 156 return
          </CharString>
          <CharString index="187">
            vhcurveto
            -24 12 rlineto
            return
          </CharString>
          <CharString index="188">
            117 -16 34 -60 callsubr
            hintmask 0001001000000000
            return
          </CharString>
          <CharString index="189">
            -291 634 44 hstem
            0 286 vstem
            return
          </CharString>
          <CharString index="190">
            -246 -21 hlineto
            -103 callgsubr
            return
          </CharString>
          <CharString index="191">
            -315 602 61 hstem
            0 262 vstem
            return
          </CharString>
          <CharString index="192">
            86 callsubr
            49 -58 77 vhcurveto
            endchar
          </CharString>
          <CharString index="193">
            hvcurveto
            -28 hlineto
            -47 return
          </CharString>
        <CharString name=".notdef">
          -63 0 50 433 50 hstem
          57 50 300 50 vstem
          57 hmoveto
          400 533 -400 hlineto
          50 -483 rmoveto
          433 300 -433 vlineto
          endchar
        </CharString>
        <CharString name="A">
          -11 0 -11 callgsubr
          366 -20 hstem
          -95 callsubr
          endchar
        </CharString>
        <CharString name="AE">
          165 0 21 -21 34 152 33 68 51 callsubr
          -21 21 hstemhm
          348 127 125 21 46 21 -60 callsubr
          hintmask 1011001110000000
          -29 hmoveto
          80 hlineto
          18 32 rlineto
          -5 -15 -5 -17 0 vvcurveto
          76 21 hlineto
          -40 -15 5 13 -7 hvcurveto
          82 147 rlineto
          193 -145 hlineto
          -5 callsubr
          424 vlineto
          24 97 rlineto
          -20 hlineto
          hintmask 0111101110000000
          -14 -36 -17 -21 -14 -6 rrcurveto
          -193 253 105 37 callgsubr
          -105 230 172 37 callsubr
          hlineto
          hintmask 1011011110000000
          97 -424 -21 vlineto
          32 16 -3 -8 9 hvcurveto
          -287 -512 rlineto
          1 vlineto
          -14 -6 -15 -7 -42 hhcurveto
          203 198 rmoveto
          174 311 rlineto
          -311 vlineto
          endchar
        </CharString>
        <CharString name="Aacute">
          -63 callgsubr
          35 162 hstem
          240 180 vstem
          294 782 -98 callgsubr
          -91 -782 rmoveto
          -107 callsubr
          endchar
        </CharString>
        <CharString name="Abreve">
          -63 callgsubr
          45 80 hstem
          158 28 196 28 vstem
          284 630 -94 callgsubr
          45 -630 rmoveto
          -107 callsubr
          endchar
        </CharString>
        <CharString name="Acircumflex">
          -63 callgsubr
          35 162 hstem
          165 238 vstem
          309 782 rmoveto
          -50 hlineto
          -94 -162 -21 callgsubr
          83 67 83 -67 -21 callgsubr
          -74 -620 rmoveto
          -107 callsubr
          endchar
        </CharString>
        <CharString name="Adieresis">
          -63 callgsubr
          35 118 hstem
          130 -8 callsubr
          vstem
          321 679 -105 callsubr
          199 -679 rmoveto
          -107 callsubr
          endchar
        </CharString>
        <CharString name="Agrave">
          -63 callgsubr
          35 162 hstem
          130 180 vstem
          256 782 rmoveto
          -126 hlineto
          134 -162 rlineto
          46 hlineto
          19 -620 rmoveto
          -107 callsubr
          endchar
        </CharString>
        <CharString name="Amacron">
          -63 callgsubr
          49 54 hstem
          146 264 vstem
          146 38 callsubr
          -81 -688 rmoveto
          -107 callsubr
          endchar
        </CharString>
        <CharString name="Aogonek">
          -11 -200 34 166 -52 callsubr
          hstem
          429 59 vstem
          234 452 rmoveto
          85 -233 rlineto
          -168 hlineto
          178 -219 rmoveto
          148 hlineto
          -18 -17 -30 -35 -51 -81 callsubr
          30 15 25 11 13 vhcurveto
          69 21 hlineto
          -42 -17 7 14 -5 hvcurveto
          -196 543 rlineto
          -81 hlineto
          -194 -543 rlineto
          -14 -5 -16 -7 -42 hhcurveto
          -21 164 21 vlineto
          -40 -15 5 13 -7 hvcurveto
          52 147 rlineto
          192 hlineto
          56 -153 rlineto
          -8 -8 -17 -4 -33 hhcurveto
          endchar
        </CharString>
        <CharString name="Aring">
          -63 callgsubr
          30 32 84 32 hstem
          210 32 84 32 vstem
          242 689 -81 callgsubr
          119 -689 rmoveto
          -107 callsubr
          endchar
        </CharString>
        <CharString name="Atilde">
          -63 callgsubr
          25 33 callgsubr
          135 54 callsubr
          hintmask 00000000
          hintmask 00010110
          359 610 -89 callsubr
          hintmask 00001110
          -100 callgsubr
          hintmask 11100000
          -30 -610 rmoveto
          -107 callsubr
          endchar
        </CharString>
        <CharString name="B">
          22 0 23 callgsubr
          -21 79 callgsubr
          166 135 -91 -14 callgsubr
          hintmask 10100101
          36 hmoveto
          hintmask 01110101
          -17 callsubr
          hintmask 00110110
          -6 callsubr
          hintmask 10101101
          -239 -21 hlineto
          -103 callgsubr
          -503 vlineto
          -14 -6 -15 -83 callsubr
          hintmask 00110110
          -33 callsubr
          hintmask 01100101
          -19 callsubr
        </CharString>
        <CharString name="C">
          -15 -32 callsubr
          -10 -20 hstemhm
          36 139 307 23 -14 22 hintmask 00000000
          hintmask 11010100
          350 561 rmoveto
          57 76 -62 -28 callgsubr
          hintmask 10111000
          -8 141 -69 callsubr
          hintmask 11010100
          -19 -51 -83 callgsubr
        </CharString>
        <CharString name="Cacute">
          -15 -10 34 537 8 callsubr
          36 139 125 180 2 23 -14 22 24 callgsubr
          354 782 -98 callgsubr
          hintmask 11001001
          -130 -221 rmoveto
          57 76 -62 -28 callgsubr
          hintmask 10101010
          -8 141 -69 callsubr
          hintmask 11001001
          -19 -51 -83 callgsubr
        </CharString>
        <CharString name="Ccaron">
          -15 -10 34 537 8 callsubr
          36 139 51 238 18 23 -14 22 24 callgsubr
          320 620 rmoveto
          50 hlineto
          94 162 rlineto
          -36 hlineto
          -83 -77 -83 77 rlineto
          -36 hlineto
          hintmask 11001001
          124 -221 rmoveto
          57 76 -62 -28 callgsubr
          hintmask 10101010
          -8 141 -69 callsubr
          hintmask 11001001
          -19 -51 -83 callgsubr
        </CharString>
        <CharString name="Ccedilla">
          -15 -199 22 167 -11 callsubr
          -30 20 hstemhm
          36 139 179 102 26 23 -14 22 hintmask 00000000
          hintmask 11101101
          350 561 rmoveto
          57 76 -62 -28 callgsubr
          hintmask 11011110
          -8 141 -69 callsubr
          hintmask 11101101
          -19 -51 30 -51 hhcurveto
          -157 -156 -117 -194 -147 104 -137 175 -9 hvcurveto
          -22 -77 rlineto
          -86 callsubr
          12 46 103 10 51 63 23 55 rlinecurve
          -41 12 rlineto
          -49 -18 -57 -59 -70 hhcurveto
          -104 -75 96 186 152 61 103 114 hvcurveto
          endchar
        </CharString>
        <CharString name="Ccircumflex">
          -15 -10 34 537 8 callsubr
          36 139 50 238 19 23 -14 22 24 callgsubr
          369 782 rmoveto
          -50 hlineto
          -94 -162 -21 callgsubr
          83 67 83 -67 -21 callgsubr
          hintmask 11001001
          -113 -59 rmoveto
          57 76 -62 -28 callgsubr
          hintmask 10101010
          -8 141 -69 callsubr
          hintmask 11001001
          -19 -51 -83 callgsubr
        </CharString>
        <CharString name="Cdotaccent">
          -15 -32 callsubr
          -30 20 36 122 hstemhm
          36 139 108 122 77 23 -14 22 24 callgsubr
          283 682 -103 callsubr
          hintmask 11001001
          67 -121 rmoveto
          57 76 -62 -28 callgsubr
          hintmask 10101010
          -8 141 -69 callsubr
          hintmask 11001001
          -19 -51 -83 callgsubr
        </CharString>
        <CharString name="D">
          36 -1 19 callsubr
          hstemhm
          99 127 215 -14 callgsubr
          hintmask 10001100
          36 -1 rmoveto
          hintmask 01101100
          -64 callsubr
          hintmask 10011100
          83 callgsubr
          -503 vlineto
          -14 -6 -15 -83 callsubr
          hintmask 01101100
          190 535 rmoveto
          40 hlineto
          92 83 -76 -187 -189 -83 -70 -80 hvcurveto
          -52 hlineto
          endchar
        </CharString>
        <CharString name="Dcaron">
          36 -1 19 callsubr
          36 162 -1 callsubr
          -67 238 44 -14 callgsubr
          hintmask 00001010
          253 620 rmoveto
          50 hlineto
          94 162 rlineto
          -36 hlineto
          -83 -77 -83 77 rlineto
          -36 hlineto
          hintmask 10000101
          -123 -783 rmoveto
          hintmask 01100101
          -64 callsubr
          hintmask 10010101
          83 callgsubr
          -503 vlineto
          -14 -6 -15 -83 callsubr
          hintmask 01100101
          190 535 rmoveto
          40 hlineto
          92 83 -76 -187 -189 -83 -70 -80 hvcurveto
          -52 hlineto
          endchar
        </CharString>
        <CharString name="Dcroat">
          36 -1 21 -21 34 236 44 242 29 -21 21 hstemhm
          99 82 callgsubr
          36 -42 callgsubr
        </CharString>
        <CharString name="E">
          -74 0 12 callgsubr
          135 21 46 21 hintmask 00000000
          hintmask 10100111
          16 callsubr
          hintmask 01110111
          -102 callgsubr
          hintmask 10101111
          -78 callsubr
        </CharString>
        <CharString name="Eacute">
          -25 callgsubr
          7 180 -52 21 46 21 -60 callsubr
          hintmask 0000010100000000
          287 782 -98 callgsubr
          hintmask 1010001011000000
          -377 -782 6 callgsubr
          hintmask 0111001011000000
          -102 callgsubr
          hintmask 1010101011000000
          -78 callsubr
        </CharString>
        <CharString name="Ebreve">
          -74 0 21 -21 -48 callsubr
          -21 21 45 80 -1 callsubr
          -75 28 182 21 -7 28 25 21 -60 callsubr
          hintmask 0000010101000000
          277 630 -94 callgsubr
          hintmask 1010001010100000
          -241 -630 6 callgsubr
          hintmask 0111001010100000
          -102 callgsubr
          hintmask 1010101010100000
          -78 callsubr
        </CharString>
        <CharString name="Ecaron">
          -25 callgsubr
          -67 238 -36 21 46 21 -60 callsubr
          hintmask 0000010100000000
          253 620 rmoveto
          50 hlineto
          94 162 rlineto
          -36 hlineto
          -83 -77 -83 77 rlineto
          -36 hlineto
          hintmask 1010001011000000
          -123 -782 6 callgsubr
          hintmask 0111001011000000
          -102 callgsubr
          hintmask 1010101011000000
          -78 callsubr
        </CharString>
        <CharString name="Ecircumflex">
          -25 callgsubr
          -68 238 -35 21 46 21 -60 callsubr
          hintmask 0000010100000000
          302 782 rmoveto
          -50 hlineto
          -94 -162 -21 callgsubr
          83 67 83 -67 -21 callgsubr
          hintmask 1010001011000000
          -360 -620 6 callgsubr
          hintmask 0111001011000000
          -102 callgsubr
          hintmask 1010101011000000
          -78 callsubr
        </CharString>
        <CharString name="Edieresis">
          -74 0 21 -21 -48 callsubr
          -21 21 35 118 -1 callsubr
          -103 -8 callsubr
          -70 21 46 21 -60 callsubr
          hintmask 0000010110000000
          314 679 -105 callsubr
          hintmask 1010001001100000
          -87 -679 6 callgsubr
          hintmask 0111001001100000
          -102 callgsubr
          hintmask 1010101001100000
          -78 callsubr
        </CharString>
        <CharString name="Edotaccent">
          -74 0 21 -21 -48 callsubr
          -21 21 36 122 -1 callsubr
          -10 122 23 21 46 21 -60 callsubr
          hintmask 0000010100000000
          216 682 -103 callsubr
          hintmask 1010001011000000
          -180 -682 6 callgsubr
          hintmask 0111001011000000
          -102 callgsubr
          hintmask 1010101011000000
          -78 callsubr
        </CharString>
        <CharString name="Egrave">
          -25 callgsubr
          -103 180 58 21 46 21 -60 callsubr
          hintmask 0000010100000000
          249 782 rmoveto
          -126 hlineto
          134 -162 rlineto
          46 hlineto
          hintmask 1010001011000000
          -267 -620 6 callgsubr
          hintmask 0111001011000000
          -102 callgsubr
          hintmask 1010101011000000
          -78 callsubr
        </CharString>
        <CharString name="Emacron">
          -74 0 21 -21 -48 callsubr
          -21 21 49 54 -1 callsubr
          -87 264 -42 21 46 21 -60 callsubr
          hintmask 0000010100000000
          139 38 callsubr
          hintmask 1010001011000000
          -367 -688 6 callgsubr
          hintmask 0111001011000000
          -102 callgsubr
          hintmask 1010101011000000
          -78 callsubr
        </CharString>
        <CharString name="Eng">
          97 -10 30 -20 21 540 34 -31 79 callgsubr
          281 44 callsubr
          hintmask 01101100
          9 callgsubr
          401 vlineto
          68 31 51 51 54 hhcurveto
          102 43 -110 -169 hvcurveto
          hintmask 10101100
          -180 -18 -82 -61 -20 -4 -22 callgsubr
          76 -22 56 106 90 106 214 192 -130 93 -132 -54 -53 -32 -56 -39 hvcurveto
          hintmask 01011100
          78 -190 -21 vlineto
          -103 callgsubr
          -503 10 callgsubr
        </CharString>
        <CharString name="Eogonek">
          -74 -200 34 166 12 callgsubr
          105 59 -29 21 46 21 -60 callsubr
          hintmask 1101001101000000
          36 hmoveto
          343 hlineto
          -18 -17 -30 -35 -51 -81 callsubr
          30 15 25 11 13 vhcurveto
          hintmask 1011101011000000
          54 -61 callsubr
          -102 callgsubr
          hintmask 1101011101000000
          -78 callsubr
        </CharString>
        <CharString name="Eth">
          19 -1 21 -21 34 522 30 hstemhm
          9 21 66 127 -75 40 235 -14 callgsubr
          hintmask 10110110
          33 -1 rmoveto
          hintmask 01110110
          242 hlineto
          167 116 120 174 172 -116 120 -179 hvcurveto
          -75 70 -40 -70 -139 -108 21 hlineto
          42 21 30 14 6 vhcurveto
          83 -85 40 85 57 hlineto
          58 56 -31 -70 33 hvcurveto
          hintmask 10111010
          -220 -21 -76 -114 -165 vvcurveto
          -114 vlineto
          -14 -6 -15 -83 callsubr
          372 404 rmoveto
          12 -36 6 -44 -52 vvcurveto
          hintmask 01111010
          -189 -86 -70 -80 vhcurveto
          -34 159 hlineto
          113 30 97 152 22 vhcurveto
          endchar
        </CharString>
        <CharString name="Euro">
          -21 -10 34 196 44 76 44 177 34 hstem
          82 140 256 22 vstem
          500 540 rmoveto
          0 -46 55 -111 -106 -112 -56 -155 -33 vhcurveto
          -32 hlineto
          -16 -44 rlineto
          41 hlineto
          -2 -18 -1 -18 -20 vvcurveto
          -20 -38 vlineto
          -16 -44 rlineto
          58 hlineto
          -149 20 94 -81 131 hhcurveto
          127 28 47 55 35 hvcurveto
          -30 16 rlineto
          -45 -26 -39 -39 -79 hhcurveto
          -69 -41 66 130 -12 hvcurveto
          154 hlineto
          16 44 rlineto
          -173 hlineto
          -1 13 0 14 15 12 1 11 11 vvcurveto
          175 hlineto
          16 44 rlineto
          -189 hlineto
          108 10 36 69 74 hhcurveto
          88 38 -48 -28 callgsubr
          endchar
        </CharString>
        <CharString name="F">
          -110 0 21 266 51 callsubr
          -21 79 callgsubr
          135 21 46 21 hintmask 00000000
          hintmask 11101110
          9 callgsubr
          246 115 vlineto
          -85 callgsubr
          160 -21 hlineto
          -42 -6 -15 -14 -6 vhcurveto
          -115 230 182 37 callsubr
          hlineto
          hintmask 11011110
          -78 callsubr
        </CharString>
        <CharString name="G">
          46 callsubr
          -10 -20 hstemhm
          33 139 252 127 -52 23 -12 22 hintmask 00000000
          hintmask 11101001
          362 561 rmoveto
          55 85 -66 -28 callgsubr
          hintmask 11011010
          -10 145 -69 callsubr
          hintmask 11101100
          -88 callgsubr
        </CharString>
        <CharString name="Gamma">
          -118 59 callgsubr
          99 127 202 21 hintmask 00000000
          hintmask 11011000
          226 551 rmoveto
          182 37 callsubr
          hlineto
          hintmask 10111000
          97 -413 -21 vlineto
          -103 callgsubr
          -503 -84 callsubr
          endchar
        </CharString>
        <CharString name="Gbreve">
          71 callgsubr
          45 80 hstemhm
          33 139 62 28 162 127 -93 28 13 23 -12 22 -60 callsubr
          hintmask 0000101010000000
          360 630 -94 callgsubr
          hintmask 1110010000100000
          2 -69 rmoveto
          55 85 -66 -28 callgsubr
          hintmask 1101010001000000
          -10 145 -69 callsubr
          hintmask 1110010100000000
          -88 callgsubr
        </CharString>
        <CharString name="Gcaron">
          71 callgsubr
          35 162 hstemhm
          33 139 70 238 -56 127 -52 23 -12 22 -60 callsubr
          hintmask 0000101000000000
          336 620 rmoveto
          50 hlineto
          94 162 rlineto
          -36 hlineto
          -83 -77 -83 77 rlineto
          -36 hlineto
          hintmask 1110010001000000
          120 -221 rmoveto
          55 85 -66 -28 callgsubr
          hintmask 1101010010000000
          -10 145 -69 callsubr
          hintmask 1110010100000000
          -88 callgsubr
        </CharString>
        <CharString name="Gcircumflex">
          71 callgsubr
          35 162 hstemhm
          33 139 69 238 -55 127 -52 23 -12 22 -60 callsubr
          hintmask 0000101000000000
          385 782 rmoveto
          -50 hlineto
          -94 -162 -21 callgsubr
          83 67 83 -67 -21 callgsubr
          hintmask 1110010001000000
          -117 -59 rmoveto
          55 85 -66 -28 callgsubr
          hintmask 1101010010000000
          -10 145 -69 callsubr
          hintmask 1110010100000000
          -88 callgsubr
        </CharString>
        <CharString name="Gcommaaccent">
          47 -2 callsubr
          23 34 244 21 272 34 -30 20 hstemhm
          34 139 209 56 -13 127 -52 23 -12 22 -60 callsubr
          hintmask 1100000100000000
          346 -130 rmoveto
          -102 callsubr
          hintmask 0011101000100000
          17 691 rmoveto
          55 85 -66 -28 callgsubr
          hintmask 0011011001000000
          -10 145 -69 callsubr
          hintmask 0011101010000000
          -88 callgsubr
        </CharString>
        <CharString name="Gdotaccent">
          71 callgsubr
          36 122 hstemhm
          33 139 127 122 3 127 -52 23 -12 22 -60 callsubr
          hintmask 0000101000000000
          299 682 -103 callsubr
          hintmask 1110010001000000
          63 -121 rmoveto
          55 85 -66 -28 callgsubr
          hintmask 1101010010000000
          -10 145 -69 callsubr
          hintmask 1110010100000000
          -88 callgsubr
        </CharString>
        <CharString name="H">
          96 0 21 266 34 243 21 hstem
          -7 callsubr
          221 127 vstem
          36 hmoveto
          -72 callgsubr
        </CharString>
        <CharString name="Hbar">
          96 0 21 266 34 117 35 91 21 hstem
          -7 callsubr
          221 127 vstem
          48 438 rmoveto
          51 -397 hlineto
          -5 callsubr
          253 -90 callsubr
          246 221 -246 -84 callsubr
          397 56 35 -56 71 vlineto
          -99 callgsubr
          -253 -21 vlineto
          -103 callgsubr
          -71 -221 71 vlineto
          -99 callgsubr
          -253 -21 vlineto
          -103 callgsubr
          -71 -51 vlineto
          399 -35 rmoveto
          -117 -221 117 vlineto
          endchar
        </CharString>
        <CharString name="Hcircumflex">
          96 0 21 266 34 243 21 35 162 -1 callsubr
          -10 238 -7 127 24 callgsubr
          360 782 rmoveto
          -50 hlineto
          -94 -162 -21 callgsubr
          83 67 83 -67 -21 callgsubr
          hintmask 11101010
          -418 -620 rmoveto
          -72 callgsubr
        </CharString>
        <CharString name="I">
          -252 74 callgsubr
          127 vstem
          36 hmoveto
          -96 callgsubr
          endchar
        </CharString>
        <CharString name="IJ">
          152 -10 36 -26 21 543 79 callgsubr
          80 98 116 44 callsubr
          hintmask 01110000
          36 hmoveto
          -96 callgsubr
          hintmask 10101100
          611 197 -60 callgsubr
        </CharString>
        <CharString name="Iacute">
          -252 -51 callsubr
          35 162 -1 callsubr
          -103 180 hintmask 00000000
          hintmask 00101000
          177 782 -98 callgsubr
          hintmask 11010000
          -267 -782 rmoveto
          -96 callgsubr
          endchar
        </CharString>
        <CharString name="Ibreve">
          -252 -51 callsubr
          45 80 hstem
          41 28 30 127 39 28 vstem
          167 630 -94 callgsubr
          -131 -630 rmoveto
          -96 callgsubr
          endchar
        </CharString>
        <CharString name="Icircumflex">
          -252 -51 callsubr
          35 162 hstemhm
          48 238 -187 44 callsubr
          hintmask 00110000
          192 782 rmoveto
          -50 hlineto
          -94 -162 -21 callgsubr
          83 67 83 -67 -21 callgsubr
          hintmask 11001000
          -250 -620 rmoveto
          -96 callgsubr
          endchar
        </CharString>
        <CharString name="Idieresis">
          -252 -51 callsubr
          35 118 hstemhm
          13 117 -31 127 -22 117 hintmask 00000000
          hintmask 00110100
          204 679 -105 callsubr
          hintmask 11001000
          23 -679 rmoveto
          -96 callgsubr
          endchar
        </CharString>
        <CharString name="Idotaccent">
          -252 -51 callsubr
          36 122 -1 callsubr
          -120 122 hintmask 00000000
          hintmask 00101000
          106 682 -103 callsubr
          hintmask 11010000
          -70 -682 rmoveto
          -96 callgsubr
          endchar
        </CharString>
        <CharString name="Igrave">
          -252 -51 callsubr
          35 162 hstemhm
          13 180 -94 44 callsubr
          hintmask 00110000
          139 782 rmoveto
          -126 hlineto
          134 -162 rlineto
          46 hlineto
          hintmask 11001000
          -157 -620 rmoveto
          -96 callgsubr
          endchar
        </CharString>
        <CharString name="Imacron">
          -252 -51 callsubr
          49 54 hstemhm
          29 264 -194 44 callsubr
          hintmask 00110000
          29 38 callsubr
          hintmask 11001000
          -257 -688 rmoveto
          -96 callgsubr
          endchar
        </CharString>
        <CharString name="Iogonek">
          -252 -200 34 166 21 543 79 callgsubr
          -76 59 hintmask 00000000
          hintmask 11101000
          36 hmoveto
          162 hlineto
          -18 -17 -30 -35 -51 -81 callsubr
          30 15 25 11 13 vhcurveto
          54 21 hlineto
          hintmask 11110000
          -94 callsubr
          -503 10 callgsubr
        </CharString>
        <CharString name="Itilde">
          -252 -51 callsubr
          25 33 callgsubr
          18 19 62 127 74 19 hintmask 00000000
          hintmask 00101010
          242 610 -89 callsubr
          hintmask 00011010
          -100 callgsubr
          hintmask 11000100
          -206 -610 rmoveto
          -96 callgsubr
          endchar
        </CharString>
        <CharString name="J">
          -153 -10 36 538 21 hstem
          1 98 116 127 vstem
          342 218 -60 callgsubr
        </CharString>
        <CharString name="Jcircumflex">
          -153 -10 36 538 21 35 162 hstemhm
          1 98 64 238 -186 44 callsubr
          hintmask 00101000
          307 782 rmoveto
          -50 hlineto
          -94 -162 -21 callgsubr
          83 67 83 -67 -21 callgsubr
          hintmask 11010100
          -59 -402 -60 callgsubr
        </CharString>
        <CharString name="K">
          50 74 callgsubr
          125 vstem
          36 hmoveto
          -77 callsubr
        </CharString>
        <CharString name="Kcommaaccent">
          51 47 callgsubr
          21 hstem
          98 125 162 56 vstem
          349 -130 rmoveto
          -102 callsubr
          -314 130 rmoveto
          -77 callsubr
        </CharString>
        <CharString name="L">
          -79 0 77 callgsubr
          99 44 callsubr
          hintmask 10110000
          36 hmoveto
          439 -61 callsubr
          hintmask 01110000
          -75 callsubr
          hintmask 10110000
          -14 -6 -15 -83 callsubr
          endchar
        </CharString>
        <CharString name="Lacute">
          -79 0 21 -21 34 530 21 35 162 -1 callsubr
          -107 180 24 callgsubr
          173 782 -98 callgsubr
          hintmask 10101000
          -263 -782 rmoveto
          439 -61 callsubr
          hintmask 01101000
          -75 callsubr
          hintmask 10101000
          -14 -6 -15 -83 callsubr
          endchar
        </CharString>
        <CharString name="Lcaron">
          -73 0 21 -21 34 344 39 99 84 -36 79 callgsubr
          181 56 hintmask 00000000
          hintmask 10001100
          36 hmoveto
          439 -61 callsubr
          hintmask 01001100
          -75 callsubr
          hintmask 10001100
          -14 -6 -15 -83 callsubr
          hintmask 00110010
          335 482 -75 callgsubr
        </CharString>
        <CharString name="Lcommaaccent">
          -82 -2 callsubr
          33 42 callsubr
          92 56 hintmask 00000000
          hintmask 11000010
          281 -130 rmoveto
          -102 callsubr
          hintmask 00101100
          -246 130 rmoveto
          439 -61 callsubr
          hintmask 00011100
          -75 callsubr
          hintmask 00101100
          -14 -6 -15 -83 callsubr
          endchar
        </CharString>
        <CharString name="Ldot">
          -78 0 21 -21 34 223 122 185 79 callgsubr
          80 122 hintmask 00000000
          hintmask 10011000
          36 hmoveto
          439 -61 callsubr
          hintmask 01011000
          -75 callsubr
          hintmask 10011000
          -14 -6 -15 -83 callsubr
          hintmask 00100100
          270 297 -24 callsubr
        </CharString>
        <CharString name="Lslash">
          -79 0 21 -21 34 199 216 115 21 hstemhm
          32 254 -187 44 callsubr
          hintmask 10110100
          36 hmoveto
          hintmask 01110100
          439 -61 callsubr
          -14 -36 -17 -21 -14 -6 rrcurveto
          -208 340 hlineto
          hintmask 10111000
          60 49 -22 26 rlineto
          hintmask 10110100
          -38 -31 rlineto
          126 vlineto
          -99 callgsubr
          -253 -21 vlineto
          -103 callgsubr
          -230 vlineto
          hintmask 10111000
          -67 -55 22 -26 rlineto
          hintmask 10110100
          45 37 rlineto
          22 callgsubr
          endchar
        </CharString>
        <CharString name="M">
          285 74 callgsubr
          34 503 127 vstem
          36 hmoveto
          -72 callsubr
        </CharString>
        <CharString name="N">
          46 74 callgsubr
          34 368 34 vstem
          36 hmoveto
          -97 callsubr
        </CharString>
        <CharString name="Nacute">
          46 -51 callsubr
          35 162 hstem
          99 34 135 180 53 34 vstem
          322 782 -98 callgsubr
          -412 -782 rmoveto
          -97 callsubr
        </CharString>
        <CharString name="Ncaron">
          46 -51 callsubr
          35 162 hstem
          99 34 61 238 69 34 vstem
          288 620 rmoveto
          50 hlineto
          94 162 rlineto
          -36 hlineto
          -83 -77 -83 77 rlineto
          -36 hlineto
          -158 -782 rmoveto
          -97 callsubr
        </CharString>
        <CharString name="Ncommaaccent">
          45 47 callgsubr
          21 hstem
          98 34 219 56 93 34 vstem
          315 -130 rmoveto
          -102 callsubr
          -280 130 rmoveto
          -97 callsubr
        </CharString>
        <CharString name="Ntilde">
          46 -51 callsubr
          25 33 callgsubr
          99 34 30 54 callsubr
          37 34 hintmask 00000000
          hintmask 00100110
          387 610 -89 callsubr
          hintmask 00010110
          -100 callgsubr
          hintmask 11001001
          -351 -610 rmoveto
          -97 callsubr
        </CharString>
        <CharString name="O">
          -42 callsubr
          hstem
          35 135 324 -68 callsubr
          endchar
        </CharString>
        <CharString name="OE">
          223 -10 34 -24 -48 callsubr
          -24 34 55 callgsubr
          241 127 120 21 46 21 -60 callsubr
          hintmask 1010111110000000
          170 300 rmoveto
          116 33 145 125 33 28 -11 -19 22 vhcurveto
          -484 vlineto
          -14 -20 -25 -9 -30 hhcurveto
          -125 -41 153 123 hvcurveto
          hintmask 0111011110000000
          237 -300 rmoveto
          360 -61 callsubr
          -14 -36 -17 -21 -14 -6 rrcurveto
          -188 253 100 37 callgsubr
          -100 230 167 37 callsubr
          97 -339 hlineto
          hintmask 1010111110000000
          7 -24 -25 3 -26 hhcurveto
          -165 -132 -140 -163 -163 130 -139 167 26 25 3 7 24 hvcurveto
          endchar
        </CharString>
        <CharString name="Oacute">
          -12 callsubr
          122 180 22 135 vstem
          346 782 -98 callgsubr
          -302 -482 -106 callgsubr
          endchar
        </CharString>
        <CharString name="Obreve">
          -42 callsubr
          35 80 33 callsubr
          40 28 196 28 32 135 vstem
          336 630 -94 callgsubr
          -166 -330 -106 callgsubr
          endchar
        </CharString>
        <CharString name="Ocircumflex">
          -12 callsubr
          47 238 39 135 vstem
          361 782 rmoveto
          -50 hlineto
          -94 -162 -21 callgsubr
          83 67 83 -67 -21 callgsubr
          -285 -320 -106 callgsubr
          endchar
        </CharString>
        <CharString name="Odieresis">
          -42 callsubr
          25 118 33 callsubr
          12 -8 callsubr
          4 135 vstem
          373 679 -105 callsubr
          -12 -379 -106 callgsubr
          endchar
        </CharString>
        <CharString name="Ograve">
          -12 callsubr
          12 180 132 135 vstem
          308 782 rmoveto
          -126 hlineto
          134 -162 rlineto
          46 hlineto
          -192 -320 -106 callgsubr
          endchar
        </CharString>
        <CharString name="Ohorn">
          18 callsubr
          55 callgsubr
          324 135 -14 58 hintmask 00000000
          hintmask 10110100
          615 531 -66 callgsubr
          hintmask 11011000
          -30 callgsubr
          hintmask 11010100
          44 12 40 27 58 vvcurveto
          -91 callsubr
          -445 -231 rmoveto
          hintmask 10111000
          -67 callgsubr
        </CharString>
        <CharString name="Ohungarumlaut">
          -42 callsubr
          25 162 55 callgsubr
          36 50 callsubr
          -52 -14 callgsubr
          hintmask 00101000
          260 782 -98 callgsubr
          hintmask 00100100
          -27 callsubr
          hintmask 11010010
          -376 -482 -106 callgsubr
          endchar
        </CharString>
        <CharString name="Omacron">
          -42 callsubr
          39 54 33 callsubr
          28 264 32 135 vstem
          198 38 callsubr
          -292 -388 -106 callgsubr
          endchar
        </CharString>
        <CharString name="Oslash">
          -42 callsubr
          46 callgsubr
          161 -28 -55 callsubr
        </CharString>
        <CharString name="Oslashacute">
          -12 callsubr
          122 180 22 135 vstem
          346 782 -98 callgsubr
          -311 -810 -55 callsubr
        </CharString>
        <CharString name="Otilde">
          -42 callsubr
          15 73 -14 73 55 callgsubr
          17 54 callsubr
          6 -14 callgsubr
          hintmask 00100110
          411 610 -89 callsubr
          hintmask 00010110
          -100 callgsubr
          hintmask 11001001
          -241 -310 -106 callgsubr
          endchar
        </CharString>
        <CharString name="P">
          -12 0 43 callgsubr
          99 127 193 -14 callgsubr
          hintmask 11101100
          36 14 callgsubr
          hintmask 11011100
          -266 -21 hlineto
          -103 callgsubr
          -503 vlineto
          -14 -6 -15 -83 callsubr
          hintmask 11101100
          51 callgsubr
          41 hlineto
          122 30 -57 -62 -93 -36 -39 -104 hvcurveto
          -53 hlineto
          endchar
        </CharString>
        <CharString name="Q">
          87 -102 36 56 34 78 44 415 34 46 callgsubr
          35 72 callsubr
          18 18 2 3 17 vhcurveto
          -49 25 39 -48 98 hhcurveto
          66 29 71 0 hvcurveto
          -15 11 rlineto
          0 -26 -46 -54 -41 -12 45 49 -20 vhcurveto
          92 52 63 100 112 vvcurveto
          163 -132 140 -165 -165 -132 -140 -163 vhcurveto
          335 -264 rmoveto
          -3 -10 -12 -1 -12 hhcurveto
          -48 -35 22 35 -26 hvcurveto
          11 17 24 10 31 hhcurveto
          39 14 -34 -40 18 hvcurveto
          75 54 rmoveto
          36 -26 -40 28 -74 hhcurveto
          -43 -30 -18 -21 -21 hvcurveto
          -29 55 -12 73 65 vvcurveto
          116 33 145 125 123 43 -154 -123 -70 -12 -79 -37 -53 vhcurveto
          endchar
        </CharString>
        <CharString name="R">
          32 callsubr
          hstemhm
          99 127 173 -14 callgsubr
          hintmask 11101100
          36 hmoveto
          -85 callsubr
          hintmask 11011100
          83 callsubr
          -503 vlineto
          -14 -6 -15 -83 callsubr
          hintmask 11101100
          -36 callsubr
        </CharString>
        <CharString name="Racute">
          32 callsubr
          35 162 -1 callsubr
          29 180 -36 -14 callgsubr
          hintmask 00001010
          309 782 -98 callgsubr
          hintmask 11100101
          -399 -782 rmoveto
          -85 callsubr
          hintmask 11010101
          83 callsubr
          -503 vlineto
          -14 -6 -15 -83 callsubr
          hintmask 11100101
          -36 callsubr
        </CharString>
        <CharString name="Rcaron">
          32 callsubr
          35 162 -1 callsubr
          -45 238 -20 -14 callgsubr
          hintmask 00001010
          275 620 rmoveto
          50 hlineto
          94 162 rlineto
          -36 hlineto
          -83 -77 -83 77 rlineto
          -36 hlineto
          hintmask 11100101
          -145 -782 rmoveto
          -85 callsubr
          hintmask 11010101
          83 callsubr
          -503 vlineto
          -14 -6 -15 -83 callsubr
          hintmask 11100101
          -36 callsubr
        </CharString>
        <CharString name="Rcommaaccent">
          11 -2 callsubr
          33 43 callgsubr
          98 127 151 56 -34 135 -60 callsubr
          hintmask 1100000100000000
          340 -130 rmoveto
          -102 callsubr
          hintmask 0011101010000000
          -305 130 rmoveto
          -85 callsubr
          hintmask 0011011010000000
          83 callsubr
          -503 vlineto
          -14 -6 -15 -83 callsubr
          hintmask 0011101010000000
          -36 callsubr
        </CharString>
        <CharString name="S">
          -107 -10 34 -3 -21 561 34 -10 -20 hstemhm
          46 23 -22 85 217 92 -86 23 -12 22 -60 callsubr
          hintmask 1010011000000000
          244 -10 -53 callsubr
          hintmask 0001000010000000
          55 80 -72 -28 callgsubr
          hintmask 0001010100000000
          -10 151 -69 callsubr
          hintmask 1010011000000000
          -73 callsubr
          hintmask 0100101000000000
          -37 callsubr
        </CharString>
        <CharString name="Sacute">
          5 callsubr
          54 180 -17 92 -86 23 -12 22 -60 callsubr
          hintmask 0000100100000000
          240 782 -98 callgsubr
          hintmask 1010001010000000
          -122 -792 -79 callsubr
        </CharString>
        <CharString name="Scaron">
          5 callsubr
          -20 238 -1 92 -86 23 -12 22 -60 callsubr
          hintmask 0000100100000000
          206 620 rmoveto
          50 hlineto
          94 162 rlineto
          -36 hlineto
          -83 -77 -83 77 rlineto
          -36 hlineto
          hintmask 1010001010000000
          132 -792 -79 callsubr
        </CharString>
        <CharString name="Scedilla">
          -107 -199 22 167 34 -24 21 540 34 -30 20 hstemhm
          45 23 -22 85 122 102 -7 92 -86 23 -12 22 -60 callsubr
          hintmask 1001001010000000
          262 -9 rmoveto
          88 7 90 52 99 vvcurveto
          91 -70 56 -77 47 vhcurveto
          -71 43 -91 43 44 vvcurveto
          34 24 55 67 vhcurveto
          hintmask 1000100000100000
          55 80 -72 -28 callgsubr
          hintmask 1000101001000000
          -10 151 -69 callsubr
          hintmask 1101001010000000
          -73 callsubr
          hintmask 1011010100000000
          -22 -158 23 hlineto
          12 15 8 7 17 42 -23 -6 65 vhcurveto
          -22 -77 rlineto
          -86 callsubr
          endchar
        </CharString>
        <CharString name="Scircumflex">
          5 callsubr
          -21 238 0 92 -86 23 -12 22 -60 callsubr
          hintmask 0000100100000000
          255 782 rmoveto
          -50 hlineto
          -94 -162 -21 callgsubr
          83 67 83 -67 -21 callgsubr
          hintmask 1010001010000000
          -105 -630 -79 callsubr
        </CharString>
        <CharString name="Scommaaccent">
          -107 -2 callsubr
          23 34 -24 21 540 34 -30 20 hstemhm
          46 23 -22 85 150 56 11 92 -86 23 -12 22 -60 callsubr
          hintmask 1100000010000000
          246 -130 rmoveto
          -102 callsubr
          hintmask 0010100101000000
          -2 120 -53 callsubr
          hintmask 0000010000010000
          55 80 -72 -28 callgsubr
          hintmask 0000010100100000
          -10 151 -69 callsubr
          hintmask 0010100101000000
          -73 callsubr
          hintmask 0001001001000000
          -37 callsubr
        </CharString>
        <CharString name="T">
          -34 0 20 callgsubr
          13 21 174 61 callsubr
          cntrmask 00011100
          hintmask 00000000
          hintmask 11011100
          75 callgsubr
          hintmask 10111100
          -15 callgsubr
          -510 hlineto
          -5 callsubr
          253 -90 callsubr
          510 139 vlineto
          hintmask 11011100
          -29 callsubr
        </CharString>
        <CharString name="Tbar">
          -34 0 21 278 34 155 97 -34 34 hstemhm
          13 21 98 284 -208 61 callsubr
          hintmask 00000000
          hintmask 11101011
          75 callgsubr
          hintmask 11011011
          -15 callgsubr
          -218 hlineto
          hintmask 11011101
          -76 -34 hlineto
          hintmask 11011011
          76 -258 hlineto
          -5 callsubr
          253 -90 callsubr
          258 vlineto
          hintmask 11011101
          81 34 hlineto
          hintmask 11011011
          -81 218 139 hlineto
          hintmask 11101011
          -29 callsubr
        </CharString>
        <CharString name="Tcaron">
          -34 0 21 467 97 -34 34 35 162 hstemhm
          13 21 122 238 -186 61 callsubr
          hintmask 00000000
          hintmask 10011101
          250 620 rmoveto
          50 hlineto
          94 162 rlineto
          -36 hlineto
          -83 -77 -83 77 rlineto
          -36 hlineto
          hintmask 11011011
          -143 -197 rmoveto
          -97 21 vlineto
          hintmask 10111011
          -15 callgsubr
          -510 hlineto
          -5 callsubr
          253 -90 callsubr
          510 139 vlineto
          hintmask 11011011
          -29 callsubr
        </CharString>
        <CharString name="Tcommaaccent">
          -34 -199 22 177 20 callgsubr
          13 21 174 127 -49 102 121 21 hintmask 00000000
          hintmask 11101101
          75 callgsubr
          hintmask 11011101
          -15 callgsubr
          -510 hlineto
          -5 callsubr
          105 vlineto
          -25 -86 rlineto
          hintmask 11011011
          -86 callsubr
          15 55 rlineto
          100 21 hlineto
          hintmask 11011101
          -101 callgsubr
          510 139 vlineto
          hintmask 11101101
          -29 callsubr
        </CharString>
        <CharString name="Thorn">
          -49 0 21 105 34 281 34 89 21 hstem
          -7 callsubr
          154 135 vstem
          9 callgsubr
          85 29 vlineto
          167 93 87 95 81 -93 86 -179 hvcurveto
          -17 69 hlineto
          -99 callgsubr
          -253 -21 vlineto
          -103 callgsubr
          -503 vlineto
          -14 -6 -15 -83 callsubr
          190 420 rmoveto
          123 31 -60 -74 -101 -44 -46 -110 hvcurveto
          endchar
        </CharString>
        <CharString name="U">
          -35 callgsubr
          hstem
          81 127 281 34 vstem
          346 24 -105 callgsubr
          endchar
        </CharString>
        <CharString name="Uacute">
          -35 callgsubr
          35 162 hstem
          81 127 99 180 2 34 vstem
          361 782 -98 callgsubr
          -141 -758 -105 callgsubr
          endchar
        </CharString>
        <CharString name="Ubreve">
          -35 callgsubr
          45 80 hstem
          81 127 17 28 196 28 12 34 vstem
          351 630 -94 callgsubr
          -5 -606 -105 callgsubr
          endchar
        </CharString>
        <CharString name="Ucircumflex">
          -35 callgsubr
          35 162 hstem
          81 127 24 238 19 34 vstem
          376 782 rmoveto
          -50 hlineto
          -94 -162 -21 callgsubr
          83 67 83 -67 -21 callgsubr
          -124 -596 -105 callgsubr
          endchar
        </CharString>
        <CharString name="Udieresis">
          -35 callgsubr
          35 118 34 callgsubr
          -11 -8 callsubr
          -16 34 hintmask 00000000
          hintmask 00101100
          388 679 -105 callsubr
          hintmask 11010010
          149 -655 -105 callgsubr
          endchar
        </CharString>
        <CharString name="Ugrave">
          -35 callgsubr
          35 162 34 callgsubr
          -11 180 112 34 hintmask 00000000
          hintmask 00101000
          323 782 rmoveto
          -126 hlineto
          134 -162 rlineto
          46 hlineto
          hintmask 11010100
          -31 -596 -105 callgsubr
          endchar
        </CharString>
        <CharString name="Uhorn">
          38 callgsubr
          67 97 34 callgsubr
          281 34 92 58 hintmask 00000000
          hintmask 11011110
          615 650 -15 callsubr
          hintmask 10111110
          -97 -21 hlineto
          -103 callgsubr
          -316 vlineto
          -126 -56 -78 -87 -91 -47 74 136 vhcurveto
          -96 callsubr
          -196 105 -62 135 107 95 74 184 vhcurveto
          hintmask 11011110
          306 -71 callsubr
        </CharString>
        <CharString name="Uhungarumlaut">
          -35 callgsubr
          35 162 34 callgsubr
          13 50 callsubr
          -72 34 hintmask 00000000
          hintmask 00101000
          275 782 -98 callgsubr
          hintmask 00100100
          -27 callsubr
          hintmask 11010010
          -215 -758 -105 callgsubr
          endchar
        </CharString>
        <CharString name="Umacron">
          -35 callgsubr
          49 54 hstem
          81 127 5 264 12 34 vstem
          213 38 callsubr
          -131 -664 -105 callgsubr
          endchar
        </CharString>
        <CharString name="Uogonek">
          29 79 callsubr
          28 callsubr
          hstem
          82 127 46 59 176 34 vstem
          347 24 -51 callgsubr
          -96 callsubr
          -182 91 -66 121 -8 vhcurveto
          -18 -19 -21 -32 -43 -81 callsubr
          24 10 20 9 14 vhcurveto
          102 5 89 75 178 vvcurveto
          296 vlineto
          -99 callgsubr
          -160 -21 vlineto
          -103 callgsubr
          -316 vlineto
          -126 -56 -78 -87 vhcurveto
          endchar
        </CharString>
        <CharString name="Uring">
          -35 callgsubr
          30 32 84 32 hstem
          81 127 69 32 84 32 64 34 vstem
          309 689 -81 callgsubr
          69 -665 -105 callgsubr
          endchar
        </CharString>
        <CharString name="Utilde">
          -35 callgsubr
          25 73 -14 73 34 callgsubr
          -6 54 callsubr
          -14 34 hintmask 00000000
          hintmask 00100110
          426 610 -89 callsubr
          hintmask 00010110
          -100 callgsubr
          hintmask 11001001
          -80 -586 -105 callgsubr
          endchar
        </CharString>
        <CharString name="V">
          -11 21 -21 564 21 hstem
          479 546 rmoveto
          -23 callgsubr
          21 -254 -21 vlineto
          42 17 -7 -14 5 hvcurveto
          196 -543 rlineto
          81 17 callsubr
          endchar
        </CharString>
        <CharString name="W">
          320 21 -21 564 21 hstem
          569 585 -90 callgsubr
        </CharString>
        <CharString name="Wacute">
          320 -51 callsubr
          35 162 hstem
          385 180 vstem
          439 782 -98 callgsubr
          4 -197 -90 callgsubr
        </CharString>
        <CharString name="Wcircumflex">
          320 -51 callsubr
          35 162 hstem
          310 238 vstem
          454 782 rmoveto
          -50 hlineto
          -94 -162 -21 callgsubr
          83 67 83 -67 -21 callgsubr
          21 -35 -90 callgsubr
        </CharString>
        <CharString name="Wdieresis">
          320 -51 callsubr
          35 118 hstem
          275 -8 callsubr
          vstem
          466 679 -105 callsubr
          294 -94 -90 callgsubr
        </CharString>
        <CharString name="Wgrave">
          320 -51 callsubr
          35 162 hstem
          275 180 vstem
          401 782 rmoveto
          -126 hlineto
          134 -162 rlineto
          46 hlineto
          114 -35 -90 callgsubr
        </CharString>
        <CharString name="X">
          -42 -51 callsubr
          hstem
          250 585 25 callsubr
          39 17 -7 -13 8 hvcurveto
          160 -280 -153 -224 rlineto
          -13 -8 -14 -83 callsubr
          -21 164 21 vlineto
          -36 -16 4 10 -8 hvcurveto
          133 195 112 -197 rlineto
          -9 -8 -17 -3 -33 hhcurveto
          -21 254 21 vlineto
          -38 -19 8 13 -7 hvcurveto
          -170 297 140 205 rlineto
          14 9 13 6 42 hhcurveto
          21 -164 -21 vlineto
          37 16 -4 -11 7 hvcurveto
          -120 -176 -102 179 rlineto
          9 8 17 3 33 hhcurveto
          endchar
        </CharString>
        <CharString name="Y">
          7 -51 callsubr
          hstem
          233 127 vstem
          238 585 -97 callgsubr
        </CharString>
        <CharString name="Yacute">
          7 -51 callsubr
          35 162 hstemhm
          233 127 -62 180 hintmask 00000000
          hintmask 00101000
          352 782 -98 callgsubr
          hintmask 11010000
          -240 -197 -97 callgsubr
        </CharString>
        <CharString name="Ycircumflex">
          7 -51 callsubr
          35 162 hstemhm
          223 238 -228 44 callsubr
          hintmask 00110000
          367 782 rmoveto
          -50 hlineto
          -94 -162 -21 callgsubr
          83 67 83 -67 -21 callgsubr
          hintmask 11001000
          -223 -35 -97 callgsubr
        </CharString>
        <CharString name="Ydieresis">
          7 -51 callsubr
          35 118 hstemhm
          188 117 -72 127 19 117 hintmask 00000000
          hintmask 00110100
          379 679 -105 callsubr
          hintmask 11001000
          50 -94 -97 callgsubr
        </CharString>
        <CharString name="Ygrave">
          7 -51 callsubr
          35 162 hstemhm
          188 180 -135 44 callsubr
          hintmask 00110000
          314 782 rmoveto
          -126 hlineto
          134 -162 rlineto
          46 hlineto
          hintmask 11001000
          -130 -35 -97 callgsubr
        </CharString>
        <CharString name="Z">
          68 callsubr
          hstem
          48 21 381 21 vstem
          446 hmoveto
          -79 callgsubr
        </CharString>
        <CharString name="Zacute">
          68 callsubr
          35 162 hstem
          48 21 131 180 70 21 vstem
          254 782 -98 callgsubr
          66 -782 rmoveto
          -79 callgsubr
        </CharString>
        <CharString name="Zcaron">
          68 callsubr
          35 162 hstem
          48 21 57 238 86 21 vstem
          220 620 rmoveto
          50 hlineto
          94 162 rlineto
          -36 hlineto
          -83 -77 -83 77 rlineto
          -36 hlineto
          320 -782 rmoveto
          -79 callgsubr
        </CharString>
        <CharString name="Zdotaccent">
          68 callsubr
          36 122 hstem
          48 21 114 122 145 21 vstem
          183 682 -103 callsubr
          263 -682 rmoveto
          -79 callgsubr
        </CharString>
        <CharString name="a">
          -53 callgsubr
          -47 callsubr
          154 125 70 18 hintmask 00000000
          hintmask 11110110
          130 366 -106 callsubr
          hintmask 11101110
          -99 callsubr
          hintmask 11110110
          -92 callsubr
          endchar
        </CharString>
        <CharString name="aacute">
          -17 callgsubr
          35 180 -61 -26 callsubr
          hintmask 0001001000000000
          242 677 -98 callgsubr
          hintmask 1110100110000000
          -238 -311 -106 callsubr
          hintmask 1110010110000000
          -99 callsubr
          hintmask 1110100110000000
          -92 callsubr
          endchar
        </CharString>
        <CharString name="abreve">
          -53 callgsubr
          75 80 61 callgsubr
          173 41 callsubr
          hintmask 0001001010000000
          232 525 -94 callgsubr
          hintmask 1110100101000000
          -102 -159 -106 callsubr
          hintmask 1110010101000000
          -99 callsubr
          hintmask 1110100101000000
          -92 callsubr
          endchar
        </CharString>
        <CharString name="acircumflex">
          -17 callgsubr
          -40 238 -44 -26 callsubr
          hintmask 0001001000000000
          257 677 rmoveto
          -50 hlineto
          -94 -162 -21 callgsubr
          83 67 83 -67 -21 callgsubr
          hintmask 1110100110000000
          -221 -149 -106 callsubr
          hintmask 1110010110000000
          -99 callsubr
          hintmask 1110100110000000
          -92 callsubr
          endchar
        </CharString>
        <CharString name="acute">
          -277 26 callgsubr
          29 180 vstem
          83 662 -98 callgsubr
          endchar
        </CharString>
        <CharString name="acutecomb">
          26 callgsubr
          -298 180 vstem
          -244 662 -98 callgsubr
          endchar
        </CharString>
        <CharString name="adieresis">
          64 callgsubr
          -47 callsubr
          -75 -8 callsubr
          -79 -26 callsubr
          hintmask 0001001100000000
          269 574 -105 callsubr
          hintmask 1110100011000000
          52 -208 -106 callsubr
          hintmask 1110010011000000
          -99 callsubr
          hintmask 1110100011000000
          -92 callsubr
          endchar
        </CharString>
        <CharString name="ae">
          199 -10 34 200 23 -6 31 142 36 -47 callsubr
          153 130 hintmask 00000000
          hintmask 10110010
          437 272 rmoveto
          109 7 49 39 42 hhcurveto
          59 18 -65 -83 7 hvcurveto
          -183 -31 rmoveto
          316 hlineto
          110 -75 99 -150 -59 -50 -19 -30 -37 vhcurveto
          30 -34 -51 19 -65 hhcurveto
          hintmask 11010110
          -105 -77 -40 -70 -30 25 -20 26 21 32 10 25 23 -7 18 -16 hvcurveto
          29 7 41 19 43 hhcurveto
          79 6 -54 -113 hvcurveto
          hintmask 10111010
          -106 -27 -175 -20 -88 vvcurveto
          -96 83 -26 84 100 55 45 24 20 vhcurveto
          -53 49 68 -16 53 hhcurveto
          -44 callsubr
          hvcurveto
          -24 12 rlineto
          -50 -40 -42 -16 -58 hhcurveto
          -79 -54 101 112 -2 hvcurveto
          -84 -164 rmoveto
          -28 -23 -74 -25 -38 hhcurveto
          -27 -37 18 68 hvcurveto
          hintmask 11011010
          74 87 20 66 20 vhcurveto
          3 -65 17 -47 26 -35 rrcurveto
          endchar
        </CharString>
        <CharString name="afii00208">
          255 47 callsubr
          724 44 vlineto
          endchar
        </CharString>
        <CharString name="afii57929">
          -359 448 39 99 84 hstem
          127 56 vstem
          91 0 callgsubr
          endchar
        </CharString>
        <CharString name="afii61352">
          258 0 21 108 26 55 16 220 17 101 21 hstem
          104 34 288 34 45 79 133 78 vstem
          41 70 callgsubr
          395 vlineto
          278 -436 rlineto
          44 544 35 callgsubr
          -356 vlineto
          -251 397 rlineto
          -134 -21 hlineto
          -103 callgsubr
          -503 vlineto
          -14 -6 -15 -83 callsubr
          612 189 36 callsubr
          -69 142 34 callsubr
          -79 -197 rmoveto
          -26 290 26 vlineto
          endchar
        </CharString>
        <CharString name="agrave">
          -17 callgsubr
          -75 180 49 -26 callsubr
          hintmask 0001001000000000
          204 677 rmoveto
          -126 hlineto
          134 -162 rlineto
          46 hlineto
          hintmask 1110100110000000
          -128 -149 -106 callsubr
          hintmask 1110010110000000
          -99 callsubr
          hintmask 1110100110000000
          -92 callsubr
          endchar
        </CharString>
        <CharString name="amacron">
          -53 callgsubr
          79 54 -47 callsubr
          -59 264 -51 -26 callsubr
          hintmask 0001001000000000
          94 583 -66 callsubr
          hintmask 1110100110000000
          -228 -217 -106 callsubr
          hintmask 1110010110000000
          -99 callsubr
          hintmask 1110100110000000
          -92 callsubr
          endchar
        </CharString>
        <CharString name="ampersand">
          30 -10 42 -42 54 280 21 215 35 hstemhm
          19 117 -6 106 101 42 hintmask 00000000
          hintmask 00110110
          289 560 rmoveto
          32 16 -45 -46 -46 -33 -35 -44 -31 hvcurveto
          -15 42 -9 39 28 vvcurveto
          58 32 36 21 vhcurveto
          291 -215 rmoveto
          -172 -21 hlineto
          41 16 -6 -13 6 hvcurveto
          -15 -57 -29 -74 -39 -57 -41 54 -42 75 -29 71 rrcurveto
          56 41 47 46 77 vvcurveto
          57 -41 57 -69 -41 -98 -10 -111 -40 16 -63 28 -67 vhcurveto
          hintmask 10111010
          -78 -46 -77 -49 -82 vvcurveto
          -86 63 -51 147 52 43 17 27 36 vhcurveto
          hintmask 01110110
          -27 36 39 -17 39 hhcurveto
          63 24 39 42 16 hvcurveto
          -12 10 rlineto
          -29 -20 -11 -8 -52 hhcurveto
          -20 -24 16 27 -25 hvcurveto
          49 63 32 83 23 71 rrcurveto
          14 4 17 6 42 hhcurveto
          -247 -267 rmoveto
          hintmask 10111010
          -16 -21 -22 -9 -24 hhcurveto
          -62 -68 38 84 48 21 26 37 30 hvcurveto
          36 -74 48 -75 55 -52 rrcurveto
          endchar
        </CharString>
        <CharString name="aogonek">
          -74 -200 34 158 -59 callgsubr
          -47 callsubr
          154 125 -79 59 90 18 -60 callsubr
          hintmask 1111101010000000
          317 52 rmoveto
          -16 -32 -42 -12 -26 hhcurveto
          -92 callsubr
          -187 314 rmoveto
          29 7 41 19 43 hhcurveto
          79 7 -54 -113 hvcurveto
          -106 -27 -176 -19 -89 vvcurveto
          -96 83 -26 84 64 45 19 19 30 vhcurveto
          17 -22 23 -10 23 -3 rrcurveto
          hintmask 1111000110000000
          -18 -18 -23 -32 -45 -81 callsubr
          25 11 21 10 14 vhcurveto
          55 3 32 17 33 vvcurveto
          -18 hlineto
          -14 -17 -10 -17 vhcurveto
          hintmask 1111011010000000
          -17 -19 16 46 hvcurveto
          198 vlineto
          93 -70 75 -131 -105 -77 -40 -70 -30 25 -20 26 21 32 10 25 23 -7 18 -16 vhcurveto
          endchar
        </CharString>
        <CharString name="aring">
          -53 callgsubr
          60 32 84 32 -47 callsubr
          5 32 84 32 1 -26 callsubr
          hintmask 0001100110000000
          190 584 -81 callgsubr
          hintmask 1110010001100000
          -28 -218 -59 callsubr
        </CharString>
        <CharString name="asciicircum">
          -121 308 240 hstem
          241 548 rmoveto
          -27 hlineto
          -164 -196 34 -44 144 172 144 -172 34 44 rlineto
          endchar
        </CharString>
        <CharString name="asciitilde">
          -48 208 33 callgsubr
          52 26 377 26 hintmask 00000000
          hintmask 10110000
          378 208 -19 callgsubr
        </CharString>
        <CharString name="asterisk">
          -225 358 104 8 87 hstemhm
          73 90 -32 88 -70 52 -13 91 hintmask 00000000
          hintmask 11100100
          124 358 rmoveto
          10 9 4 9 7 hvcurveto
          7 9 6 43 23 vvcurveto
          5 0 4 -1 3 vhcurveto
          -2 4 4 -1 5 hhcurveto
          5 5 1 3 4 hvcurveto
          -1 -2 0 -4 -5 vvcurveto
          hintmask 11001000
          -23 6 -45 7 -9 vhcurveto
          -9 6 9 -4 10 hhcurveto
          hintmask 11000100
          25 28 25 22 6 -2 6 -4 6 hvcurveto
          11 -8 -58 28 -15 hhcurveto
          hintmask 11001000
          5 5 4 6 8 vvcurveto
          2 0 2 -1 2 vhcurveto
          -7 9 49 -10 22 hhcurveto
          21 10 19 17 27 -19 24 -20 -3 -4 -1 -1 -4 hvcurveto
          -13 -4 -46 -48 -3 -12 -4 9 -8 6 -10 1 rrcurveto
          hintmask 11010000
          11 8 31 57 13 vvcurveto
          22 -20 13 -24 -25 -19 -13 -22 -13 31 -57 11 -8 vhcurveto
          -9 -1 -9 -6 -4 -8 -5 14 -43 45 -13 4 rrcurveto
          1 -4 -3 1 -3 hhcurveto
          -21 -19 -25 -27 -17 10 -18 21 21 47 10 7 11 hvcurveto
          hintmask 11001000
          -2 -1 -2 -2 vvcurveto
          -8 3 -6 6 -5 vhcurveto
          -14 -1 -57 -27 -8 -11 rrcurveto
          hintmask 11100100
          -4 -6 -2 -7 -6 vvcurveto
          -22 27 -24 24 vhcurveto
          endchar
        </CharString>
        <CharString name="at">
          42 -10 39 117 36 -23 43 196 39 116 42 hstemhm
          41 42 83 69 282 42 hintmask 00000000
          hintmask 10111111
          245 159 rmoveto
          27 28 14 23 24 hvcurveto
          hintmask 11011111
          -39 4 41 -11 19 hhcurveto
          119 52 134 66 168 -106 81 -122 -149 -141 -113 -198 -178 152 -116 136 168 50 88 96 42 hvcurveto
          -16 8 rlineto
          -33 -18 -60 -120 -160 hhcurveto
          -105 -147 91 168 174 127 91 125 86 96 -29 -186 -32 -32 -124 -73 -17 -9 8 13 4 hvcurveto
          59 223 rlineto
          -68 hlineto
          -8 -30 rlineto
          24 -13 -22 17 -31 hhcurveto
          -66 -75 -88 -90 -52 26 -48 53 hvcurveto
          102 179 rmoveto
          hintmask 10111111
          -70 -37 -66 -49 -18 -8 32 36 60 50 68 26 28 8 -24 -36 vhcurveto
          endchar
        </CharString>
        <CharString name="atilde">
          -53 callgsubr
          55 73 -14 73 -47 callsubr
          -70 19 205 125 -67 19 118 18 -60 callsubr
          hintmask 0001000101000000
          307 -40 callgsubr
          hintmask 0000100101000000
          -100 callgsubr
          hintmask 1110010010100000
          -177 -139 -106 callsubr
          hintmask 1110001010100000
          -99 callsubr
          hintmask 1110010010100000
          -92 callsubr
          endchar
        </CharString>
        <CharString name="b">
          -24 -10 73 callsubr
          hstem
          57 125 211 130 vstem
          57 560 -68 callgsubr
        </CharString>
        <CharString name="backslash">
          -103 456 -10 rmoveto
          -389 622 -49 -18 389 -622 rlineto
          endchar
        </CharString>
        <CharString name="bar">
          -400 63 51 vstem
          63 650 rmoveto
          -680 51 680 vlineto
          endchar
        </CharString>
        <CharString name="braceleft">
          57 callgsubr
          104 -95 106 hintmask 00000000
          hintmask 11110000
          80 -61 rmoveto
          -45 50 -47 121 vhcurveto
          24 vlineto
          -48 -19 11 48 hvcurveto
          hintmask 11101000
          36 11 126 49 vvcurveto
          31 -47 32 -48 17 vhcurveto
          48 17 47 32 31 vvcurveto
          hintmask 11110000
          49 -11 125 36 vvcurveto
          48 19 12 48 vhcurveto
          23 vlineto
          -121 -50 -47 -45 hvcurveto
          hintmask 11101000
          -49 9 -125 -36 vvcurveto
          -48 -27 -12 -48 vhcurveto
          -23 vlineto
          48 27 -11 -48 hvcurveto
          -36 -9 -126 -49 vvcurveto
          endchar
        </CharString>
        <CharString name="braceright">
          57 callgsubr
          106 -95 104 hintmask 00000000
          hintmask 11101000
          195 -61 rmoveto
          hintmask 11110000
          49 -9 126 36 vvcurveto
          48 27 11 48 vhcurveto
          23 vlineto
          -48 -27 12 48 hvcurveto
          hintmask 11101000
          36 9 125 49 vvcurveto
          45 -50 47 -121 vhcurveto
          -23 vlineto
          48 19 -12 -48 hvcurveto
          hintmask 11110000
          -36 -11 -125 -49 vvcurveto
          -31 47 -32 48 -17 vhcurveto
          -48 -17 -47 -32 -31 vvcurveto
          hintmask 11101000
          -49 11 -126 -36 vvcurveto
          -48 -19 -11 -48 vhcurveto
          -24 vlineto
          121 50 47 45 hvcurveto
          endchar
        </CharString>
        <CharString name="bracketleft">
          -300 -156 36 699 36 hstem
          61 115 vstem
          176 579 rmoveto
          81 36 -196 -771 196 36 -81 hlineto
          endchar
        </CharString>
        <CharString name="bracketright">
          -300 -156 36 699 36 hstem
          101 115 vstem
          101 -120 rmoveto
          -81 -36 196 771 -196 -36 81 hlineto
          endchar
        </CharString>
        <CharString name="breve">
          -205 510 80 hstem
          60 28 196 28 vstem
          186 510 -94 callgsubr
          endchar
        </CharString>
        <CharString name="brokenbar">
          -394 66 51 vstem
          66 650 rmoveto
          -288 51 288 vlineto
          -51 -392 rmoveto
          -288 51 288 vlineto
          endchar
        </CharString>
        <CharString name="bullet">
          -259 186 232 hstem
          37 244 vstem
          37 300 rmoveto
          -62 61 -52 61 75 47 64 56 62 -63 50 -61 -75 -45 -62 -56 vhcurveto
          endchar
        </CharString>
        <CharString name="c">
          -96 -10 38 259 83 50 30 52 callgsubr
          180 103 vstem
          274 420 -84 callgsubr
        </CharString>
        <CharString name="cacute">
          12 callsubr
          64 180 -64 103 24 callgsubr
          279 677 -98 callgsubr
          hintmask 11101010
          -131 -257 -84 callgsubr
        </CharString>
        <CharString name="caron">
          72 callgsubr
          154 500 rmoveto
          50 hlineto
          94 162 rlineto
          -36 hlineto
          -83 -77 -83 77 rlineto
          -36 hlineto
          endchar
        </CharString>
        <CharString name="ccaron">
          12 callsubr
          -10 238 -48 103 24 callgsubr
          245 515 rmoveto
          50 hlineto
          94 162 rlineto
          -36 hlineto
          -83 -77 -83 77 rlineto
          -36 hlineto
          hintmask 11101010
          123 -257 -84 callgsubr
        </CharString>
        <CharString name="ccedilla">
          -95 -199 22 167 38 259 83 50 30 87 callgsubr
          116 102 -38 103 hintmask 00000000
          hintmask 11111010
          275 420 rmoveto
          52 40 -11 -39 10 hvcurveto
          50 callgsubr
          21 -17 32 36 14 27 30 70 -75 36 -105 -138 -95 -96 -112 -188 117 -56 90 -7 hvcurveto
          -22 -77 rlineto
          hintmask 11111100
          -86 callsubr
          12 46 86 5 49 30 34 56 rlinecurve
          -37 18 rlineto
          -52 -31 -38 -20 -58 hhcurveto
          -80 -50 104 114 108 52 66 61 hvcurveto
          endchar
        </CharString>
        <CharString name="ccircumflex">
          12 callsubr
          -11 238 -47 103 24 callgsubr
          294 677 rmoveto
          -50 hlineto
          -94 -162 -21 callgsubr
          83 67 83 -67 -21 callgsubr
          hintmask 11101010
          -114 -95 -84 callgsubr
        </CharString>
        <CharString name="cdotaccent">
          -96 -10 38 259 83 50 30 66 122 52 callgsubr
          47 122 11 103 vstem
          208 577 -103 callsubr
          66 -157 -84 callgsubr
        </CharString>
        <CharString name="cedilla">
          -273 -199 22 hstem
          152 102 vstem
          119 12 rmoveto
          -28 -98 rlineto
          -86 callsubr
          18 67 rlineto
          endchar
        </CharString>
        <CharString name="cent">
          -105 -10 38 266 76 50 30 hstem
          31 120 180 88 vstem
          291 575 rmoveto
          -22 -125 rlineto
          -15 hlineto
          -138 -85 -96 -112 -161 79 -65 79 -19 hvcurveto
          -21 -116 47 -9 21 118 rlineto
          11 hlineto
          -44 callsubr
          hvcurveto
          -24 12 rlineto
          -50 -40 -42 -16 -58 hhcurveto
          -13 -13 3 5 -11 hvcurveto
          67 380 28 -6 20 -14 7 -26 rlinecurve
          50 callgsubr
          24 -10 21 26 17 20 30 55 -37 34 -66 12 hvcurveto
          21 121 rlineto
          -135 -496 rmoveto
          -32 41 -19 66 69 vvcurveto
          108 32 66 81 vhcurveto
          endchar
        </CharString>
        <CharString name="circumflex">
          72 callgsubr
          204 662 rmoveto
          -50 hlineto
          -94 -162 -21 callgsubr
          83 67 83 -67 -21 callgsubr
          endchar
        </CharString>
        <CharString name="colon">
          -331 -10 126 204 126 hstem
          54 138 vstem
          54 52 rmoveto
          -70 callsubr
          330 vmoveto
          -70 callsubr
          endchar
        </CharString>
        <CharString name="comma">
          -353 -134 36 101 101 hstem
          135 52 vstem
          96 1 callsubr
          endchar
        </CharString>
        <CharString name="copyright">
          59 -8 27 97 34 245 34 88 27 hstemhm
          42 27 102 82 140 22 -14 20 146 27 -60 callsubr
          hintmask 1111110010000000
          -67 callsubr
          296 127 rmoveto
          hintmask 1111110110000000
          43 12 -29 -27 8 hvcurveto
          20 hlineto
          hintmask 1111111010000000
          -6 85 rlineto
          -22 hlineto
          -7 0 -3 -1 vhcurveto
          -5 -20 15 -30 hhcurveto
          -79 -87 -40 -121 -92 60 -60 98 65 31 37 36 14 hvcurveto
          -31 13 rlineto
          -24 -9 -22 -28 -38 hhcurveto
          -47 -39 36 93 72 30 44 55 hvcurveto
          endchar
        </CharString>
        <CharString name="currency">
          -74 74 45 286 45 hstem
          64 45 286 45 vstem
          109 262 rmoveto
          79 64 64 79 79 64 -64 -79 -79 -64 -64 -79 -79 -64 64 79 vhcurveto
          -6 -115 rmoveto
          -54 -53 32 -32 53 53 rlineto
          -26 32 41 -15 45 hhcurveto
          44 41 16 25 32 hvcurveto
          52 -53 32 32 -53 52 rlineto
          25 32 15 40 44 vvcurveto
          45 -15 41 -26 32 vhcurveto
          54 54 -32 32 -54 -55 rlineto
          24 -32 -40 15 -43 hhcurveto
          -44 -40 -15 -25 -32 hvcurveto
          -55 56 -32 -32 56 -55 rlineto
          -25 -32 -16 -41 -44 vvcurveto
          -43 15 -40 24 -32 vhcurveto
          endchar
        </CharString>
        <CharString name="d">
          0 -10 22 callsubr
          45 callsubr
          375 430 -88 callsubr
          endchar
        </CharString>
        <CharString name="dagger">
          -233 454 35 63 47 hstem
          32 52 58 60 58 52 cntrmask 00111000
          172 38 rmoveto
          0 30 48 188 vvcurveto
          122 -12 58 0 30 callgsubr
          66 callgsubr
          -11 10 -10 9 hvcurveto
          36 callgsubr
          0 -12 -58 -122 vvcurveto
          -188 30 -48 0 vhcurveto
          endchar
        </CharString>
        <CharString name="daggerdbl">
          -217 37 47 63 35 272 35 63 47 hstemhm
          40 52 52 72 -53 34 71 52 hintmask 00000000
          hintmask 11111011
          150 318 rmoveto
          -38 7 -45 5 -53 vhcurveto
          -82 hlineto
          -24 -16 -14 -16 -14 13 -12 16 14 9 10 11 hvcurveto
          71 -63 hlineto
          hintmask 11111101
          -9 -10 -10 -11 -14 11 -12 26 26 9 12 14 hvcurveto
          hintmask 11111011
          11 -10 10 -9 vhcurveto
          63 71 vlineto
          -11 9 -10 14 16 13 12 14 16 -16 14 -24 vhcurveto
          -82 hlineto
          5 53 7 45 38 vvcurveto
          38 -7 45 -5 53 30 callgsubr
          hintmask 11111101
          66 callgsubr
          hvcurveto
          hintmask 11111011
          -11 10 -10 9 vhcurveto
          36 callgsubr
          -5 -53 -7 -45 -38 vvcurveto
          endchar
        </CharString>
        <CharString name="dcaron">
          34 -10 34 9 23 357 39 -32 34 97 84 -71 23 63 callgsubr
          214 125 126 56 -60 callsubr
          hintmask 1101011100000000
          375 430 -88 callsubr
          hintmask 0010100010000000
          215 140 -75 callgsubr
        </CharString>
        <CharString name="dcroat">
          59 callsubr
          36 35 39 23 43 -20 45 callsubr
          375 398 rmoveto
          -342 vlineto
          -17 -22 -34 -15 -54 hhcurveto
          -48 -56 82 116 130 70 68 52 44 29 -11 -11 19 hvcurveto
          125 92 rmoveto
          39 35 -39 105 hlineto
          -91 callgsubr
          13 23 -2 -2 27 hvcurveto
          -35 -124 -35 124 -60 vlineto
          13 -22 -32 11 -44 hhcurveto
          -130 -116 -78 -154 -182 146 -50 78 56 38 -56 callsubr
          endchar
        </CharString>
        <CharString name="degree">
          -281 403 41 145 41 hstem
          34 41 146 41 vstem
          75 516 rmoveto
          40 33 33 40 40 33 -33 -40 -40 -33 -32 -40 -40 -33 32 40 vhcurveto
          -41 hmoveto
          -62 52 -51 62 62 52 51 62 62 -52 52 -62 -62 -52 -52 -62 vhcurveto
          endchar
        </CharString>
        <CharString name="dieresis">
          -175 500 118 hstem
          47 -8 callsubr
          vstem
          238 559 -105 callsubr
          endchar
        </CharString>
        <CharString name="divide">
          -103 119 118 59 44 59 118 hstem
          180 114 cntrmask 11100000
          180 457 rmoveto
          41 callgsubr
          -280 vmoveto
          41 callgsubr
          -140 163 rmoveto
          -44 394 44 vlineto
          endchar
        </CharString>
        <CharString name="dollar">
          -134 -9 35 535 34 35 -20 hstemhm
          46 22 -21 79 77 40 78 92 -75 22 hintmask 00000000
          hintmask 11110110
          46 56 rmoveto
          0 44 -58 113 -7 vhcurveto
          -33 40 33 vlineto
          80 6 90 52 99 vvcurveto
          91 -69 56 -72 47 vhcurveto
          -29 19 rlineto
          191 vlineto
          hintmask 11101101
          43 -21 46 -54 6 -43 rrcurveto
          22 hlineto
          -8 110 rlineto
          0 -44 37 -65 11 vhcurveto
          38 -40 -35 vlineto
          -80 -2 -76 -75 -78 vvcurveto
          -82 67 -58 58 -40 vhcurveto
          31 -21 rlineto
          -213 vlineto
          hintmask 11110110
          -51 9 -72 47 -12 76 rrcurveto
          -22 hlineto
          157 229 rmoveto
          hintmask 11101100
          -42 28 -35 28 29 vvcurveto
          33 21 53 56 3 vhcurveto
          40 -348 rmoveto
          hintmask 11100110
          42 -29 36 -30 -34 vvcurveto
          -50 -31 -36 -47 -8 vhcurveto
          endchar
        </CharString>
        <CharString name="dotaccent">
          -359 501 122 hstem
          48 122 vstem
          48 562 -24 callsubr
        </CharString>
        <CharString name="dotbelowcomb">
          -45 callsubr
          hstem
          -315 122 vstem
          -315 -92 -24 callsubr
        </CharString>
        <CharString name="dotlessi">
          -288 -1 callgsubr
          43 -20 hstem
          87 125 vstem
          24 hmoveto
          251 21 hlineto
          -101 callgsubr
          409 -86 callgsubr
          -339 10 callgsubr
        </CharString>
        <CharString name="e">
          -56 callgsubr
          52 callgsubr
          vstem
          161 241 -104 callgsubr
        </CharString>
        <CharString name="eacute">
          -56 callgsubr
          65 162 52 callgsubr
          46 180 vstem
          261 677 -98 callgsubr
          -226 -436 -104 callgsubr
        </CharString>
        <CharString name="ebreve">
          -56 callgsubr
          75 80 63 callgsubr
          -36 28 196 28 hintmask 00000000
          hintmask 00010110
          251 525 -94 callgsubr
          hintmask 11101000
          -90 -284 -104 callgsubr
        </CharString>
        <CharString name="ecaron">
          -56 callgsubr
          65 162 hstemhm
          31 130 -28 238 24 callgsubr
          227 515 rmoveto
          50 hlineto
          94 162 rlineto
          -36 hlineto
          -83 -77 -83 77 rlineto
          -36 hlineto
          hintmask 11101000
          28 -436 -104 callgsubr
        </CharString>
        <CharString name="ecircumflex">
          -56 callgsubr
          65 162 76 callgsubr
          24 callgsubr
          276 677 rmoveto
          -50 hlineto
          -94 -162 -21 callgsubr
          83 67 83 -67 -21 callgsubr
          hintmask 11101000
          -209 -274 -104 callgsubr
        </CharString>
        <CharString name="edieresis">
          -56 callgsubr
          65 118 63 callgsubr
          -64 -8 callsubr
          hintmask 00000000
          hintmask 00010110
          288 574 -105 callsubr
          hintmask 11101000
          64 -333 -104 callgsubr
        </CharString>
        <CharString name="edotaccent">
          -56 callgsubr
          66 122 52 callgsubr
          29 122 vstem
          190 577 -103 callsubr
          -29 -336 -104 callgsubr
        </CharString>
        <CharString name="egrave">
          -56 callgsubr
          65 162 hstemhm
          31 130 -64 180 24 callgsubr
          223 677 rmoveto
          -126 hlineto
          134 -162 rlineto
          46 hlineto
          hintmask 11101000
          -116 -274 -104 callgsubr
        </CharString>
        <CharString name="eight">
          -83 -10 38 534 28 hstemhm
          46 82 -71 105 181 105 -91 81 hintmask 00000000
          hintmask 11010100
          292 341 rmoveto
          -67 48 -63 44 48 vvcurveto
          71 56 10 44 41 54 -26 -58 -76 -33 -39 -32 -22 vhcurveto
          39 -29 rmoveto
          52 31 55 52 75 vvcurveto
          84 -73 36 -122 -114 -72 -56 -70 -66 52 -52 60 -46 vhcurveto
          hintmask 11101000
          -55 -30 -68 -52 -80 vvcurveto
          -84 83 -64 122 114 83 80 74 67 -55 54 -62 47 vhcurveto
          -124 -41 rmoveto
          69 -50 67 -44 -50 vvcurveto
          -86 -58 -13 -53 -43 -61 36 66 85 44 37 35 19 vhcurveto
          endchar
        </CharString>
        <CharString name="ellipsis">
          83 -10 126 hstem
          41 138 82 138 82 138 cntrmask 01110000
          481 52 rmoveto
          -70 callsubr
          -220 hmoveto
          -70 callsubr
          -220 hmoveto
          -70 callsubr
          endchar
        </CharString>
        <CharString name="emacron">
          -56 callgsubr
          79 54 63 callgsubr
          -48 264 24 callgsubr
          113 583 -66 callsubr
          hintmask 11101000
          -216 -342 -104 callgsubr
        </CharString>
        <CharString name="emdash">
          95 47 callsubr
          564 44 vlineto
          endchar
        </CharString>
        <CharString name="endash">
          -75 47 callsubr
          394 44 vlineto
          endchar
        </CharString>
        <CharString name="eng">
          1 66 callsubr
          87 125 187 125 vstem
          24 hmoveto
          251 21 hlineto
          -101 callgsubr
          335 vlineto
          20 21 34 20 49 hhcurveto
          59 24 -46 -55 hvcurveto
          -373 vlineto
          -76 -12 -36 -24 -20 -12 -22 callgsubr
          52 -22 97 68 74 39 117 hvcurveto
          352 vlineto
          96 -76 46 -126 -49 -36 -21 -21 -25 vhcurveto
          42 vlineto
          -45 -104 -43 -39 hhcurveto
          -23 vlineto
          13 23 1 callgsubr
        </CharString>
        <CharString name="eogonek">
          -74 79 callsubr
          32 callgsubr
          75 59 vstem
          163 272 rmoveto
          109 7 49 39 42 hhcurveto
          59 18 -65 -83 7 hvcurveto
          -183 -31 rmoveto
          316 hlineto
          110 -75 99 -150 -134 -87 -96 -112 -202 139 -50 92 vhcurveto
          4 4 0 4 hhcurveto
          -17 -19 -21 -31 -43 -81 callsubr
          26 11 22 10 14 vhcurveto
          71 9 43 29 31 50 -24 12 rcurveline
          -50 -40 -42 -16 -58 hhcurveto
          -79 -54 101 112 -2 hvcurveto
          endchar
        </CharString>
        <CharString name="equal">
          -91 231 54 66 54 hstem
          61 285 39 callgsubr
          -364 120 39 callgsubr
          endchar
        </CharString>
        <CharString name="eth">
          -36 -14 callsubr
          180 -20 hstem
          31 131 215 131 vstem
          274 -10 rmoveto
          165 69 108 118 169 -107 109 -94 64 hvcurveto
          70 41 -17 29 -85 -49 rlineto
          -59 35 -48 16 0 vvcurveto
          -11 -18 rlineto
          0 34 -19 41 -39 vhcurveto
          -71 -41 17 -29 79 45 21 -23 20 -27 19 -32 rlinecurve
          2 -16 -16 1 -18 hhcurveto
          -166 -70 -104 -118 -140 90 -98 153 hvcurveto
          -112 258 rmoveto
          89 40 82 48 86 41 -67 -159 -100 -35 -73 -55 -69 -56 68 160 vhcurveto
          endchar
        </CharString>
        <CharString name="exclam">
          -342 -10 126 514 -20 hstem
          49 138 vstem
          49 -29 callgsubr
        </CharString>
        <CharString name="exclamdown">
          -342 404 126 hstem
          52 132 vstem
          186 27 callsubr
          -68 -154 rmoveto
          -15 -16 -34 -66 -9 hvcurveto
          -2 -13 -24 -187 -56 vvcurveto
          -50 39 -18 27 27 39 18 50 56 -24 186 -2 14 vhcurveto
          66 -9 -16 34 -15 hhcurveto
          endchar
        </CharString>
        <CharString name="f">
          -276 21 callgsubr
          vstem
          355 571 rmoveto
          -87 callgsubr
          endchar
        </CharString>
        <CharString name="five">
          -124 -10 31 312 52 114 86 hstem
          299 118 vstem
          118 385 rmoveto
          15 114 rlineto
          232 hlineto
          24 86 rlineto
          -279 hlineto
          -33 -252 rlineto
          202 20 -78 -83 -92 -25 -59 -65 hvcurveto
          -110 -2 105 -38 hhcurveto
          -28 -8 -14 -40 -18 64 -64 136 156 38 95 107 70 -67 122 -232 1 hvcurveto
          endchar
        </CharString>
        <CharString name="florin">
          -296 -156 30 536 30 160 30 hstem
          74 125 vstem
          199 hmoveto
          410 77 30 -77 48 vlineto
          76 12 36 23 vhcurveto
          48 -46 -74 68 hhcurveto
          23 17 12 34 26 -35 32 -86 -79 -70 -39 -117 hvcurveto
          -34 -50 -30 50 -424 80 callgsubr
          -20 -4 -22 callgsubr
          76 -22 56 68 91 46 110 hvcurveto
          endchar
        </CharString>
        <CharString name="four">
          -142 0 21 154 30 380 -20 hstem
          200 125 vstem
          325 585 rmoveto
          -46 hlineto
          -276 -410 rlineto
          197 -134 hlineto
          -5 callsubr
          251 -90 callsubr
          134 81 30 -81 vlineto
          -125 hmoveto
          -141 hlineto
          141 208 rlineto
          endchar
        </CharString>
        <CharString name="g">
          -16 callsubr
          25 callgsubr
          189 -43 callgsubr
          hintmask 11110100
          480 450 -82 callsubr
          hintmask 11101100
          -80 callsubr
          hintmask 11110100
          -55 callgsubr
        </CharString>
        <CharString name="gbreve">
          -16 callsubr
          75 80 25 callgsubr
          -14 28 175 125 -104 28 -60 callsubr
          hintmask 0001001010000000
          278 525 -94 callgsubr
          hintmask 1110100100000000
          202 -75 -82 callsubr
          hintmask 1110010100000000
          -80 callsubr
          hintmask 1110100100000000
          -55 callgsubr
        </CharString>
        <CharString name="gcaron">
          -16 callsubr
          65 162 25 callgsubr
          -6 238 -43 -43 callgsubr
          hintmask 00010010
          254 515 rmoveto
          50 hlineto
          94 162 rlineto
          -36 hlineto
          -83 -77 -83 77 rlineto
          -36 hlineto
          hintmask 11101001
          320 -227 -80 callgsubr
        </CharString>
        <CharString name="gcircumflex">
          -16 callsubr
          65 162 25 callgsubr
          -7 238 -42 -43 callgsubr
          hintmask 00010010
          303 677 rmoveto
          -50 hlineto
          -94 -162 -21 callgsubr
          83 67 83 -67 -21 callgsubr
          hintmask 11101001
          83 -65 -80 callgsubr
        </CharString>
        <CharString name="gcommaaccent">
          -16 callsubr
          61 84 99 39 25 callgsubr
          15 56 118 77 callsubr
          hintmask 0001100100000000
          237 615 rmoveto
          -61 callgsubr
          -3 -2 3 17 hvcurveto
          hintmask 1110010010000000
          243 -165 -82 callsubr
          hintmask 1110001010000000
          -80 callsubr
          hintmask 1110010010000000
          -55 callgsubr
        </CharString>
        <CharString name="gdotaccent">
          -16 callsubr
          66 122 25 callgsubr
          51 122 16 -43 callgsubr
          hintmask 00010010
          217 577 -103 callsubr
          hintmask 11101001
          263 -127 -80 callgsubr
        </CharString>
        <CharString name="germandbls">
          -38 -10 30 -20 21 323 24 232 30 hstemhm
          77 125 123 115 -40 118 hintmask 00000000
          hintmask 10111010
          260 368 rmoveto
          -10 -3 -6 -5 -6 vvcurveto
          -5 5 -5 11 vhcurveto
          2 hlineto
          86 52 -94 -80 -90 -18 -60 -42 hvcurveto
          -58 30 106 -50 hhcurveto
          -28 -8 -14 -40 -18 28 -64 92 104 68 80 120 hvcurveto
          hintmask 01111100
          72 -93 78 -100 18 vhcurveto
          62 26 53 59 57 vvcurveto
          78 -56 52 -131 -68 -108 -39 -117 vhcurveto
          -433 vlineto
          -5 callsubr
          188 488 vlineto
          76 33 36 32 55 3 -73 -28 -52 -30 -66 -35 -13 vhcurveto
          endchar
        </CharString>
        <CharString name="grave">
          -277 26 callgsubr
          60 180 vstem
          186 662 rmoveto
          -126 hlineto
          134 -162 rlineto
          46 hlineto
          endchar
        </CharString>
        <CharString name="gravecomb">
          26 callgsubr
          -408 180 vstem
          -282 662 rmoveto
          -126 hlineto
          134 -162 rlineto
          46 hlineto
          endchar
        </CharString>
        <CharString name="greater">
          -107 441 293 rmoveto
          50 vlineto
          -378 177 rlineto
          -51 vlineto
          313 -151 -313 -151 rlineto
          -51 vlineto
          endchar
        </CharString>
        <CharString name="guillemotleft">
          -138 157 284 hstemhm
          33 191 -31 191 hintmask 00000000
          hintmask 10100000
          210 331 -20 callsubr
          hintmask 11000000
          -334 -110 -20 callsubr
          endchar
        </CharString>
        <CharString name="guillemotright">
          -138 157 284 hstemhm
          55 191 -31 191 hintmask 00000000
          hintmask 10100000
          389 267 -20 callgsubr
          hintmask 11000000
          14 110 -20 callgsubr
          endchar
        </CharString>
        <CharString name="guilsinglleft">
          -298 157 284 hstem
          33 191 vstem
          50 331 -20 callsubr
          endchar
        </CharString>
        <CharString name="guilsinglright">
          -298 157 284 hstem
          55 191 vstem
          229 267 -20 callgsubr
          endchar
        </CharString>
        <CharString name="h">
          19 0 55 callsubr
          114 23 -35 callsubr
          219 -95 callgsubr
          -519 10 callgsubr
        </CharString>
        <CharString name="hbar">
          19 0 55 callsubr
          40 35 39 23 43 -20 hstem
          77 125 195 125 vstem
          27 490 rmoveto
          50 -449 hlineto
          -5 callsubr
          251 -90 callsubr
          339 vlineto
          19 28 39 17 46 hhcurveto
          52 30 -32 -96 hvcurveto
          -247 vlineto
          -5 callsubr
          251 -90 callsubr
          271 vlineto
          102 -75 36 -126 -47 -41 -19 -20 -31 vhcurveto
          79 113 35 -113 105 -95 callgsubr
          -35 -50 vlineto
          endchar
        </CharString>
        <CharString name="hcircumflex">
          19 0 55 callsubr
          114 23 68 162 hstemhm
          20 238 -181 125 195 -43 callgsubr
          hintmask 00011000
          164 817 rmoveto
          -50 hlineto
          -94 -162 -21 callgsubr
          83 67 83 -67 -21 callgsubr
          hintmask 11100110
          -244 -655 -70 callgsubr
        </CharString>
        <CharString name="hookabovecomb">
          651 24 hstem
          -269 30 26 64 vstem
          -149 612 -101 callsubr
          endchar
        </CharString>
        <CharString name="hungarumlaut">
          -117 500 162 hstemhm
          29 50 callsubr
          hintmask 00000000
          hintmask 11000000
          83 662 -98 callgsubr
          hintmask 10100000
          -27 callsubr
          endchar
        </CharString>
        <CharString name="hyphen">
          20 callsubr
        </CharString>
        <CharString name="i">
          -288 -1 callgsubr
          107 116 hstemhm
          74 143 -130 -43 callgsubr
          hintmask 11101000
          24 hmoveto
          251 21 hlineto
          -101 callgsubr
          409 -86 callgsubr
          -339 vlineto
          -14 -6 -15 -83 callsubr
          123 493 rmoveto
          hintmask 11110000
          -54 callsubr
          endchar
        </CharString>
        <CharString name="iacute">
          -32 callgsubr
          75 callsubr
          -105 180 24 callgsubr
          161 677 -98 callgsubr
          hintmask 11101000
          -263 -677 rmoveto
          251 21 hlineto
          -101 callgsubr
          409 -86 callgsubr
          -339 10 callgsubr
        </CharString>
        <CharString name="ibreve">
          -32 callgsubr
          75 80 hstem
          25 28 34 125 37 28 vstem
          151 525 -94 callgsubr
          -127 -525 rmoveto
          251 21 hlineto
          -101 callgsubr
          409 -86 callgsubr
          -339 10 callgsubr
        </CharString>
        <CharString name="icircumflex">
          -32 callgsubr
          65 162 hstemhm
          32 238 -183 -43 callgsubr
          hintmask 00011000
          176 677 rmoveto
          -50 hlineto
          -94 -162 -21 callgsubr
          83 67 83 -67 -21 callgsubr
          hintmask 11100100
          -246 -515 rmoveto
          251 21 hlineto
          -101 callgsubr
          409 -86 callgsubr
          -339 10 callgsubr
        </CharString>
        <CharString name="idieresis">
          -32 callgsubr
          65 118 hstemhm
          -3 117 -27 125 -24 117 hintmask 00000000
          hintmask 00011010
          188 574 -105 callsubr
          hintmask 11100100
          27 -574 rmoveto
          251 21 hlineto
          -101 callgsubr
          409 -86 callgsubr
          -339 10 callgsubr
        </CharString>
        <CharString name="igrave">
          -32 callgsubr
          65 162 hstemhm
          -3 180 -90 -43 callgsubr
          hintmask 00011000
          123 677 rmoveto
          -126 hlineto
          134 -162 rlineto
          46 hlineto
          hintmask 11100100
          -153 -515 rmoveto
          251 21 hlineto
          -101 callgsubr
          409 -86 callgsubr
          -339 10 callgsubr
        </CharString>
        <CharString name="ij">
          -26 -199 30 169 -37 callgsubr
          -22 23 106 116 -115 116 hstemhm
          74 143 -130 125 -7 82 69 143 -130 77 callsubr
          hintmask 0110100100000000
          24 hmoveto
          251 21 hlineto
          -101 callgsubr
          409 -86 callgsubr
          -339 vlineto
          -14 -6 -15 -83 callsubr
          123 493 rmoveto
          hintmask 0110101000000000
          -54 callsubr
          hintmask 1001010011000000
          281 1 35 callsubr
          hintmask 1001010010100000
          -59 -134 rmoveto
          -438 80 callgsubr
          -24 -14 10 24 vhcurveto
          6 6 4 8 10 vvcurveto
          24 -14 27 -30 -33 -15 -26 -26 -57 45 -30 85 68 91 39 117 vhcurveto
          494 -86 callgsubr
          endchar
        </CharString>
        <CharString name="imacron">
          -32 callgsubr
          79 54 hstemhm
          13 264 -190 -43 callgsubr
          hintmask 00011000
          13 583 -66 callsubr
          hintmask 11100100
          -253 -583 rmoveto
          251 21 hlineto
          -101 callgsubr
          409 -86 callgsubr
          -339 10 callgsubr
        </CharString>
        <CharString name="iogonek">
          -288 -200 34 166 -37 callgsubr
          107 116 hstemhm
          74 143 -130 125 -77 59 hintmask 00000000
          hintmask 11111000
          147 514 rmoveto
          -54 callsubr
          -123 -514 rmoveto
          159 hlineto
          hintmask 11110010
          -18 -17 -30 -35 -51 -81 callsubr
          30 15 25 11 13 vhcurveto
          55 21 hlineto
          hintmask 11110100
          -101 callgsubr
          409 -86 callgsubr
          -339 10 callgsubr
        </CharString>
        <CharString name="itilde">
          -32 callgsubr
          55 33 callgsubr
          2 19 66 125 72 19 hintmask 00000000
          hintmask 00010101
          226 -40 callgsubr
          hintmask 00001101
          -100 callgsubr
          hintmask 11100010
          -202 -505 rmoveto
          251 21 hlineto
          -101 callgsubr
          409 -86 callgsubr
          -339 10 callgsubr
        </CharString>
        <CharString name="j">
          58 callsubr
          107 116 hstemhm
          -88 82 69 143 -130 -43 callgsubr
          hintmask 11111000
          135 515 35 callsubr
          hintmask 11110100
          -59 -134 rmoveto
          -438 80 callgsubr
          -24 -14 10 24 vhcurveto
          6 6 4 8 10 vvcurveto
          24 -14 27 -30 -33 -15 -26 -26 -57 45 -30 85 68 91 39 117 vhcurveto
          494 -86 callgsubr
          endchar
        </CharString>
        <CharString name="jcircumflex">
          58 callsubr
          23 20 64 162 hstemhm
          -88 82 22 238 -178 125 24 callgsubr
          160 677 rmoveto
          -50 hlineto
          -94 -162 -21 callgsubr
          83 67 83 -67 -21 callgsubr
          hintmask 11101010
          -178 -134 rmoveto
          -438 80 callgsubr
          -24 -14 10 24 vhcurveto
          6 6 4 8 10 vvcurveto
          24 -14 27 -30 -33 -15 -26 -26 -57 45 -30 85 68 91 39 117 vhcurveto
          494 -86 callgsubr
          endchar
        </CharString>
        <CharString name="k">
          -27 43 callsubr
          124 23 hstem
          77 125 vstem
          14 hmoveto
          -74 callgsubr
        </CharString>
        <CharString name="kcommaaccent">
          -26 -2 callsubr
          33 86 callgsubr
          124 23 hstem
          77 125 136 56 vstem
          302 -130 rmoveto
          -102 callsubr
          -288 130 rmoveto
          -74 callgsubr
        </CharString>
        <CharString name="l">
          -298 0 -13 callsubr
          23 43 -20 hstem
          77 125 2 callgsubr
          endchar
        </CharString>
        <CharString name="lacute">
          -298 0 -13 callsubr
          23 23 20 25 162 hstemhm
          77 125 -105 180 24 callgsubr
          151 817 -98 callgsubr
          hintmask 11101000
          -263 -817 rmoveto
          -87 callsubr
          endchar
        </CharString>
        <CharString name="lcaron">
          -267 0 21 392 39 99 84 -71 23 23 20 hstemhm
          77 125 124 56 hintmask 00000000
          hintmask 10011100
          14 hmoveto
          -87 callsubr
          hintmask 01100010
          276 517 -75 callgsubr
        </CharString>
        <CharString name="lcommaaccent">
          -298 47 callgsubr
          23 23 20 hstemhm
          77 125 -22 56 hintmask 00000000
          hintmask 11000010
          144 -130 rmoveto
          -102 callsubr
          hintmask 00111100
          -130 130 rmoveto
          -87 callsubr
          endchar
        </CharString>
        <CharString name="ldot">
          -261 0 21 236 122 185 23 23 20 hstem
          77 125 36 122 2 callgsubr
          224 297 -24 callsubr
        </CharString>
        <CharString name="less">
          -107 29 343 rmoveto
          -50 vlineto
          378 -177 rlineto
          51 vlineto
          -313 151 313 151 rlineto
          51 vlineto
          endchar
        </CharString>
        <CharString name="logicalnot">
          -161 296 44 hstem
          311 42 vstem
          311 296 rmoveto
          -88 42 132 -292 -44 vlineto
          endchar
        </CharString>
        <CharString name="longs">
          -298 0 21 579 30 hstem
          77 125 67 72 vstem
          14 hmoveto
          251 21 hlineto
          -101 callgsubr
          427 vlineto
          117 10 15 19 19 19 -10 -24 vhcurveto
          45 callgsubr
          -45 30 -85 -68 -66 -33 -218 vhcurveto
          -338 10 callgsubr
        </CharString>
        <CharString name="lslash">
          -297 0 21 212 216 115 23 23 20 hstemhm
          15 254 -192 -43 callgsubr
          hintmask 11110100
          14 hmoveto
          251 21 hlineto
          -101 callgsubr
          327 vlineto
          hintmask 11111000
          67 55 -22 26 rlineto
          hintmask 11110100
          -45 -37 rlineto
          218 -95 callgsubr
          -250 vlineto
          hintmask 11111000
          -62 -51 22 -26 rlineto
          hintmask 11110100
          40 33 rlineto
          -225 10 callgsubr
        </CharString>
        <CharString name="m">
          299 0 -39 callgsubr
          hstem
          87 125 173 125 173 125 cntrmask 00011100
          24 hmoveto
          251 21 hlineto
          -101 callgsubr
          327 vlineto
          22 25 36 26 36 hhcurveto
          52 24 -34 -112 hvcurveto
          22 callgsubr
          -21 251 -90 callsubr
          287 vlineto
          14 -1 13 -4 11 vhcurveto
          23 22 36 27 44 hhcurveto
          60 16 -64 -117 hvcurveto
          -194 vlineto
          -5 callsubr
          251 -90 callsubr
          181 vlineto
          178 -77 50 -118 -64 -39 -31 -25 -20 vhcurveto
          39 -29 -60 17 -86 hhcurveto
          -48 -33 -16 -19 -22 hvcurveto
          35 vlineto
          -45 -104 -43 -39 hhcurveto
          -23 vlineto
          13 23 1 callgsubr
        </CharString>
        <CharString name="macron">
          -193 514 54 hstem
          60 264 vstem
          60 85 callgsubr
        </CharString>
        <CharString name="multiply">
          -165 159 318 hstem
          47 318 vstem
          237 318 rmoveto
          128 128 -31 31 -128 -128 -128 128 -31 -31 128 -128 -128 -128 31 -31 128 128 128 -128 31 31 rlineto
          endchar
        </CharString>
        <CharString name="n">
          11 callsubr
          hstem
          87 125 187 125 vstem
          24 hmoveto
          251 21 hlineto
          -101 callgsubr
          335 vlineto
          20 21 34 20 49 hhcurveto
          59 24 -46 -55 hvcurveto
          -274 vlineto
          -5 callsubr
          251 -90 callsubr
          267 vlineto
          96 -76 46 -126 -49 -36 -21 -21 -25 vhcurveto
          42 vlineto
          -45 -104 -43 -39 hhcurveto
          -23 vlineto
          13 23 1 callgsubr
        </CharString>
        <CharString name="nacute">
          11 callsubr
          66 40 callgsubr
          56 180 -49 125 24 callgsubr
          322 678 -98 callgsubr
          hintmask 11101010
          -424 -678 rmoveto
          251 21 hlineto
          -101 callgsubr
          335 vlineto
          20 21 34 20 49 hhcurveto
          59 24 -46 -55 hvcurveto
          -274 vlineto
          -5 callsubr
          251 -90 callsubr
          267 vlineto
          96 -76 46 -126 -49 -36 -21 -21 -25 vhcurveto
          42 vlineto
          -45 -104 -43 -39 hhcurveto
          -23 vlineto
          13 23 1 callgsubr
        </CharString>
        <CharString name="napostrophe">
          11 callsubr
          -2 39 99 84 hstemhm
          39 56 -8 125 187 -43 callgsubr
          hintmask 00011100
          3 0 callgsubr
          hintmask 11100011
          21 -573 rmoveto
          251 21 hlineto
          -101 callgsubr
          335 vlineto
          20 21 34 20 49 hhcurveto
          59 24 -46 -55 hvcurveto
          -274 vlineto
          -5 callsubr
          251 -90 callsubr
          267 vlineto
          96 -76 46 -126 -49 -36 -21 -21 -25 vhcurveto
          42 vlineto
          -45 -104 -43 -39 hhcurveto
          -23 vlineto
          13 23 1 callgsubr
        </CharString>
        <CharString name="ncaron">
          11 callsubr
          66 40 callgsubr
          -18 238 -33 125 24 callgsubr
          288 516 rmoveto
          50 hlineto
          94 162 rlineto
          -36 hlineto
          -83 -77 -83 77 rlineto
          -36 hlineto
          hintmask 11101010
          -170 -678 rmoveto
          251 21 hlineto
          -101 callgsubr
          335 vlineto
          20 21 34 20 49 hhcurveto
          59 24 -46 -55 hvcurveto
          -274 vlineto
          -5 callsubr
          251 -90 callsubr
          267 vlineto
          96 -76 46 -126 -49 -36 -21 -21 -25 vhcurveto
          42 vlineto
          -45 -104 -43 -39 hhcurveto
          -23 vlineto
          13 23 1 callgsubr
        </CharString>
        <CharString name="ncommaaccent">
          20 -2 callsubr
          33 -39 callgsubr
          hstem
          87 125 129 56 2 125 vstem
          305 -130 rmoveto
          -102 callsubr
          -281 130 rmoveto
          251 21 hlineto
          -101 callgsubr
          335 vlineto
          20 21 34 20 49 hhcurveto
          59 24 -46 -55 hvcurveto
          -274 vlineto
          -5 callsubr
          251 -90 callsubr
          267 vlineto
          96 -76 46 -126 -49 -36 -21 -21 -25 vhcurveto
          42 vlineto
          -45 -104 -43 -39 hhcurveto
          -23 vlineto
          13 23 1 callgsubr
        </CharString>
        <CharString name="nine">
          -95 -18 34 199 34 314 32 hstem
          27 125 164 125 vstem
          306 231 rmoveto
          -22 -122 -58 -69 -95 -24 13 -34 rcurveline
          104 12 193 131 236 vvcurveto
          132 -81 102 -132 -119 -82 -76 -122 -106 51 -76 154 30 25 7 9 19 vhcurveto
          5 32 rmoveto
          -9 -18 -25 -5 -38 hhcurveto
          -78 0 80 60 102 19 72 57 56 32 -54 -148 -35 -1 -33 -4 -30 hvcurveto
          endchar
        </CharString>
        <CharString name="ntilde">
          11 callsubr
          56 73 -14 73 62 callsubr
          -49 76 callsubr
          -60 callsubr
          hintmask 0001001010000000
          387 506 -4 callsubr
          -363 -506 rmoveto
          251 21 hlineto
          -101 callgsubr
          335 vlineto
          20 21 34 20 49 hhcurveto
          59 24 -46 -55 hvcurveto
          -274 vlineto
          -5 callsubr
          251 -90 callsubr
          267 vlineto
          96 -76 46 -126 -49 -36 -21 -21 -25 vhcurveto
          42 vlineto
          -45 -104 -43 -39 hhcurveto
          -23 vlineto
          13 23 1 callgsubr
        </CharString>
        <CharString name="numbersign">
          -77 21 -21 196 34 126 34 195 -20 hstem
          455 230 rmoveto
          -105 hlineto
          18 126 rlineto
          102 34 -97 73 callgsubr
          -105 73 callgsubr
          -103 -34 98 hlineto
          -18 -126 rlineto
          -95 -34 90 69 callsubr
          105 69 callsubr
          110 hlineto
          -270 34 rmoveto
          18 126 rlineto
          105 hlineto
          -18 -126 rlineto
          endchar
        </CharString>
        <CharString name="o">
          -30 callsubr
          hstem
          49 callgsubr
          vstem
          162 248 -104 callsubr
          endchar
        </CharString>
        <CharString name="oacute">
          -26 callgsubr
          68 180 -27 23 callsubr
          284 677 -98 callgsubr
          hintmask 11010100
          -248 -429 -104 callsubr
          endchar
        </CharString>
        <CharString name="obreve">
          -30 callsubr
          75 80 -13 callgsubr
          -14 28 196 28 -17 54 callgsubr
          hintmask 00101100
          274 525 -94 callgsubr
          hintmask 11010010
          -112 -277 -104 callsubr
          endchar
        </CharString>
        <CharString name="ocircumflex">
          -26 callgsubr
          -7 238 -10 23 callsubr
          299 677 rmoveto
          -50 hlineto
          -94 -162 -21 callgsubr
          83 67 83 -67 -21 callgsubr
          hintmask 11010100
          -231 -267 -104 callsubr
          endchar
        </CharString>
        <CharString name="odieresis">
          -30 callsubr
          65 118 -13 callgsubr
          -42 -8 callsubr
          -45 54 callgsubr
          hintmask 00101100
          311 574 -105 callsubr
          hintmask 11010010
          42 -326 -104 callsubr
          endchar
        </CharString>
        <CharString name="oe">
          277 -10 30 -30 38 213 31 147 31 hstemhm
          49 callgsubr
          hintmask 00000000
          hintmask 10111100
          277 -10 rmoveto
          78 57 25 38 39 hvcurveto
          hintmask 01111100
          -47 48 65 -16 51 hhcurveto
          -44 callsubr
          hvcurveto
          -24 12 rlineto
          -50 -40 -42 -16 -58 hhcurveto
          -79 -54 101 112 -2 hvcurveto
          316 hlineto
          110 -75 99 -150 -65 -55 -23 -36 -38 vhcurveto
          38 -41 -59 21 -77 -27 callgsubr
          hvcurveto
          -115 258 rmoveto
          89 31 82 60 100 30 -67 -159 vhcurveto
          hintmask 10111100
          -100 -31 -73 -62 -85 -43 68 160 vhcurveto
          353 24 rmoveto
          109 7 49 39 42 hhcurveto
          59 18 -65 -83 7 hvcurveto
          endchar
        </CharString>
        <CharString name="ogonek">
          -318 -200 34 hstem
          35 59 vstem
          97 11 rmoveto
          0 -62 -40 -74 -81 callsubr
          46 36 33 0 vhcurveto
          endchar
        </CharString>
        <CharString name="ograve">
          -26 callgsubr
          -42 180 83 23 callsubr
          246 677 rmoveto
          -126 hlineto
          134 -162 rlineto
          46 hlineto
          hintmask 11010100
          -138 -267 -104 callsubr
          endchar
        </CharString>
        <CharString name="ohorn">
          60 callsubr
          hstemhm
          49 callgsubr
          27 58 hintmask 00000000
          hintmask 10111100
          541 404 rmoveto
          -30 -19 -23 -37 -8 vhcurveto
          67 -37 -72 40 -106 -27 callgsubr
          165 72 108 118 35 -6 32 -10 29 hvcurveto
          50 9 51 27 65 vvcurveto
          hintmask 11011100
          -91 callsubr
          -379 -156 rmoveto
          hintmask 10111100
          89 31 82 60 100 30 -67 -159 -100 -31 -73 -62 -85 -43 68 160 vhcurveto
          endchar
        </CharString>
        <CharString name="ohungarumlaut">
          -26 callgsubr
          -18 50 callsubr
          -101 23 callsubr
          198 677 -98 callgsubr
          hintmask 00100100
          -27 callsubr
          hintmask 11010010
          -322 -429 -104 callsubr
          endchar
        </CharString>
        <CharString name="omacron">
          -30 callsubr
          79 54 -13 callgsubr
          -26 264 -17 23 callsubr
          136 583 -66 callsubr
          hintmask 11010100
          -238 -335 -104 callsubr
          endchar
        </CharString>
        <CharString name="one">
          -216 0 21 564 -20 hstem
          130 124 vstem
          254 585 rmoveto
          -43 hlineto
          -178 -196 7 -17 29 22 32 22 29 19 rlinecurve
          -374 vlineto
          -32 -65 -8 -42 vhcurveto
          -21 338 21 vlineto
          -42 -65 8 32 hvcurveto
          endchar
        </CharString>
        <CharString name="onehalf">
          102 0 66 214 23 27 50 hstem
          81 81 385 85 vstem
          33 508 -58 callgsubr
          558 -442 -57 callgsubr
          -515 -76 11 callgsubr
        </CharString>
        <CharString name="onequarter">
          75 0 23 82 29 146 23 hstem
          78 81 338 80 vstem
          30 508 -58 callgsubr
          547 -133 -62 callsubr
          -400 -294 11 callgsubr
        </CharString>
        <CharString name="ordfeminine">
          -175 129 26 55 19 110 12 24 42 26 20 hstemhm
          56 77 -62 62 93 75 42 10 -60 callsubr
          hintmask 1111110110000000
          56 155 rmoveto
          -26 297 26 vlineto
          -234 262 rmoveto
          16 4 25 10 26 hhcurveto
          47 5 -30 -62 hvcurveto
          -64 -15 -106 -10 -49 vvcurveto
          -53 51 -14 50 38 27 11 10 18 vhcurveto
          -15 13 18 -5 16 hhcurveto
          41 25 10 20 hvcurveto
          -10 hlineto
          -8 -11 -5 -10 -10 -11 9 25 vhcurveto
          109 vlineto
          51 -42 41 -79 vhcurveto
          hintmask 1111101110000000
          -63 -46 -23 -38 -16 14 -11 16 13 19 5 14 13 -4 10 -10 hvcurveto
          113 -173 rmoveto
          -9 -19 -25 -6 -16 hhcurveto
          hintmask 1111110110000000
          -16 -23 10 37 41 53 11 40 11 hvcurveto
          -62 vlineto
          -14 2 -10 4 -9 vhcurveto
          endchar
        </CharString>
        <CharString name="ordmasculine">
          -179 129 26 55 16 220 17 hstem
          54 79 133 78 vstem
          54 155 rmoveto
          -26 290 26 vlineto
          -211 197 34 callsubr
          69 -142 36 callsubr
          endchar
        </CharString>
        <CharString name="oslash">
          -30 callsubr
          hstem
          49 callgsubr
          vstem
          120 -35 rmoveto
          35 50 rlineto
          -16 34 42 -9 46 hhcurveto
          165 72 108 118 83 -28 66 -57 41 hvcurveto
          34 49 -27 20 -36 -52 rlineto
          17 -35 -44 10 -51 hhcurveto
          -62 callgsubr
          -85 34 -69 61 -42 hvcurveto
          -33 -47 rlineto
          278 339 rmoveto
          8 -34 4 -43 -54 vvcurveto
          -100 -31 -73 -62 -42 -32 16 36 -21 vhcurveto
          162 290 rmoveto
          -178 -254 rlineto
          -11 35 -6 46 59 vvcurveto
          89 31 82 60 51 33 -18 -39 20 vhcurveto
          endchar
        </CharString>
        <CharString name="oslashacute">
          -26 callgsubr
          68 180 -27 23 callsubr
          284 677 -98 callgsubr
          hintmask 11010100
          -290 -712 rmoveto
          35 50 rlineto
          -16 34 42 -9 46 hhcurveto
          165 72 108 118 83 -28 66 -57 41 hvcurveto
          34 49 -27 20 -36 -52 rlineto
          17 -35 -44 10 -51 hhcurveto
          -62 callgsubr
          -85 34 -69 61 -42 hvcurveto
          -33 -47 rlineto
          278 339 rmoveto
          8 -34 4 -43 -54 vvcurveto
          -100 -31 -73 -62 -42 -32 16 36 -21 vhcurveto
          162 290 rmoveto
          -178 -254 rlineto
          -11 35 -6 46 59 vvcurveto
          89 31 82 60 51 33 -18 -39 20 vhcurveto
          endchar
        </CharString>
        <CharString name="otilde">
          -30 callsubr
          55 73 -14 73 -13 callgsubr
          -37 19 239 131 -107 19 hintmask 00000000
          hintmask 00100101
          349 -40 callgsubr
          hintmask 00010101
          -100 callgsubr
          hintmask 11001010
          -187 -257 -104 callsubr
          endchar
        </CharString>
        <CharString name="p">
          -4 -192 21 161 34 360 23 9 34 hstem
          77 125 209 130 vstem
          14 3 callgsubr
          -49 -36 -12 -15 -25 hvcurveto
          27 vlineto
          -91 callgsubr
          15 23 -3 -2 25 hvcurveto
          -530 vlineto
          -14 -6 -15 -83 callsubr
          188 562 rmoveto
          14 22 32 11 46 31 callgsubr
        </CharString>
        <CharString name="paragraph">
          -46 59 callgsubr
          29 252 -92 92 51 92 hintmask 00000000
          hintmask 11001100
          126 hmoveto
          155 551 51 -551 155 21 hlineto
          -101 callgsubr
          503 vlineto
          hintmask 10110100
          -99 callgsubr
          -240 vlineto
          -164 -54 -92 -67 hvcurveto
          hintmask 11001100
          -86 58 -62 102 -10 vhcurveto
          -227 10 callgsubr
        </CharString>
        <CharString name="parenleft">
          -326 30 114 vstem
          30 315 rmoveto
          -105 49 -109 49 -76 vhcurveto
          -31 20 34 -44 20 hhcurveto
          4 5 4 7 3 -14 19 -10 32 hvcurveto
          -18 58 -25 127 115 vvcurveto
          115 25 127 18 58 vhcurveto
          10 32 14 19 3 vvcurveto
          7 -5 4 -4 -19 -34 -44 -31 -20 vhcurveto
          -49 -76 -50 -109 -105 vvcurveto
          endchar
        </CharString>
        <CharString name="parenright">
          -327 106 114 vstem
          220 315 rmoveto
          105 -49 109 -49 76 vhcurveto
          31 -20 -34 44 -20 hhcurveto
          -4 -5 -4 -7 -3 14 -19 10 -32 hvcurveto
          18 -58 25 -127 -115 vvcurveto
          -115 -25 -127 -18 -58 vhcurveto
          -10 -32 -14 -19 -3 vvcurveto
          -7 5 -4 4 19 34 44 31 20 vhcurveto
          49 76 50 109 105 vvcurveto
          endchar
        </CharString>
        <CharString name="percent">
          -37 70 callsubr
          29 84 76 84 -6 84 76 84 hintmask 00000000
          hintmask 11111001
          459 565 30 callsubr
          hintmask 11111101
          7 callgsubr
          hintmask 11111011
          322 -347 -36 callgsubr
          endchar
        </CharString>
        <CharString name="period">
          -357 -10 126 hstem
          41 138 vstem
          41 52 2 callsubr
        </CharString>
        <CharString name="periodcentered">
          -347 240 126 hstem
          46 138 vstem
          46 302 2 callsubr
        </CharString>
        <CharString name="perthousand">
          245 70 callsubr
          34 84 76 84 -6 84 76 84 36 84 76 84 -60 callsubr
          hintmask 1111100111000000
          636 119 -36 callgsubr
          -88 446 30 callsubr
          hintmask 1111110111000000
          7 callgsubr
          hintmask 1111101111000000
          322 -347 -36 callgsubr
          endchar
        </CharString>
        <CharString name="plus">
          -173 292 52 hstem
          176 52 vstem
          228 292 rmoveto
          141 52 -141 141 -52 -141 -141 -52 141 -141 52 hlineto
          endchar
        </CharString>
        <CharString name="plusminus">
          -169 134 44 170 44 hstem
          182 44 vstem
          61 178 rmoveto
          -44 286 44 vlineto
          -121 170 rmoveto
          121 44 -121 101 -44 -101 -121 -44 121 -101 44 hlineto
          endchar
        </CharString>
        <CharString name="q">
          -29 -192 21 161 34 392 34 hstem
          30 130 206 125 vstem
          303 -192 rmoveto
          251 21 hlineto
          -101 callgsubr
          601 vlineto
          7 callsubr
          -165 vlineto
          -14 -6 -15 -83 callsubr
          63 217 14 callsubr
        </CharString>
        <CharString name="question">
          -151 -10 126 484 30 hstemhm
          28 85 10 138 -90 36 64 -43 callgsubr
          hintmask 11110100
          123 52 rmoveto
          -70 callsubr
          hintmask 11101100
          48 148 rmoveto
          -7 13 -7 5 5 13 7 7 vhcurveto
          79 189 54 142 vvcurveto
          91 -65 64 -135 -110 -58 -75 -59 -37 18 -24 34 28 20 23 21 vhcurveto
          23 -15 3 24 vvcurveto
          30 18 41 55 54 31 -52 -68 vhcurveto
          -155 -100 -12 -113 vvcurveto
          endchar
        </CharString>
        <CharString name="questiondown">
          -151 -110 30 484 126 hstemhm
          30 125 10 138 -84 36 58 85 hintmask 00000000
          hintmask 11110100
          303 27 callsubr
          hintmask 11101100
          -48 -148 rmoveto
          7 -13 7 -5 -5 -13 -7 -7 vhcurveto
          -79 -189 -54 -142 vvcurveto
          -91 65 -64 135 110 58 75 59 37 -18 24 -34 -28 -20 -23 -21 vhcurveto
          -23 15 -3 -24 vvcurveto
          -30 -18 -41 -55 -54 -31 52 68 vhcurveto
          155 100 12 113 vvcurveto
          endchar
        </CharString>
        <CharString name="quotedbl">
          -222 374 291 hstem
          30 120 55 120 vstem
          265 374 rmoveto
          3 callsubr
          -175 hmoveto
          3 callsubr
          endchar
        </CharString>
        <CharString name="quotedblbase">
          -172 -136 39 99 84 hstem
          136 56 124 56 vstem
          100 -11 rmoveto
          -102 callsubr
          180 0 callsubr
        </CharString>
        <CharString name="quotedblleft">
          -179 450 84 99 39 hstem
          34 56 124 56 vstem
          270 554 rmoveto
          -61 callgsubr
          -2 -3 1 19 hvcurveto
          -180 hmoveto
          -61 callgsubr
          -2 -3 1 19 hvcurveto
          endchar
        </CharString>
        <CharString name="quotedblright">
          -194 448 39 99 84 hstem
          124 56 124 56 vstem
          268 0 callgsubr
          -180 0 callsubr
        </CharString>
        <CharString name="quoteleft">
          -359 450 84 99 39 hstem
          34 56 vstem
          90 554 rmoveto
          -61 callgsubr
          -2 -3 1 19 hvcurveto
          endchar
        </CharString>
        <CharString name="quoteright">
          -376 450 39 99 84 hstem
          122 56 vstem
          122 568 rmoveto
          -42 -46 -33 -32 -4 vhcurveto
          -39 vlineto
          33 10 101 30 90 vvcurveto
          56 -44 36 -53 -6 -45 -1 -47 -32 23 -17 33 vhcurveto
          -40 callsubr
          2 3 -1 -19 hvcurveto
          endchar
        </CharString>
        <CharString name="quotesinglbase">
          -352 -136 39 99 84 hstem
          136 56 vstem
          100 -11 -75 callgsubr
        </CharString>
        <CharString name="quotesingle">
          -397 374 291 hstem
          30 120 vstem
          90 374 rmoveto
          3 callsubr
          endchar
        </CharString>
        <CharString name="r">
          -141 0 -39 callgsubr
          hstem
          87 125 vstem
          24 hmoveto
          251 21 hlineto
          -101 callgsubr
          333 vlineto
          -76 callgsubr
          -339 vlineto
          -14 -6 -15 -83 callsubr
          endchar
        </CharString>
        <CharString name="racute">
          -141 0 -39 callgsubr
          75 callsubr
          -5 180 24 callgsubr
          261 677 -98 callgsubr
          hintmask 11101000
          -363 -677 -76 callsubr
        </CharString>
        <CharString name="rcaron">
          -141 0 -39 callgsubr
          75 callsubr
          -79 238 24 callgsubr
          227 515 rmoveto
          50 hlineto
          94 162 rlineto
          -36 hlineto
          -83 -77 -83 77 rlineto
          -36 hlineto
          hintmask 11101000
          -109 -677 -76 callsubr
        </CharString>
        <CharString name="rcommaaccent">
          -141 -2 callsubr
          33 -39 callgsubr
          62 callsubr
          -20 56 hintmask 00000000
          hintmask 11000010
          156 -130 rmoveto
          -102 callsubr
          hintmask 00111100
          -132 130 -76 callsubr
        </CharString>
        <CharString name="registered">
          44 callgsubr
          140 72 85 76 125 27 vstem
          -67 callsubr
          136 -146 rmoveto
          134 20 hlineto
          -17 -12 2 5 -2 hvcurveto
          106 23 vlineto
          59 -104 rlineto
          -25 14 17 -4 48 hhcurveto
          26 20 hlineto
          -19 -4 2 6 -2 hvcurveto
          -64 114 rlineto
          41 14 22 30 38 vvcurveto
          15 callsubr
          103 256 rmoveto
          15 hlineto
          42 28 -21 -32 -45 -24 -18 -40 hvcurveto
          -21 hlineto
          endchar
        </CharString>
        <CharString name="ring">
          -349 495 32 84 32 hstem
          40 32 84 32 vstem
          72 569 -81 callgsubr
          endchar
        </CharString>
        <CharString name="s">
          -180 -10 40 -9 -21 416 34 13 callgsubr
          202 92 -57 23 -12 22 -60 callsubr
          hintmask 1011000000000000
          206 30 -9 callgsubr
          hintmask 0110011000000000
          -16 callgsubr
          vhcurveto
          hintmask 1010101000000000
          -52 callgsubr
          hintmask 1010000010000000
          6 callsubr
          hintmask 1010100100000000
          -58 callsubr
          hintmask 1011001000000000
          -34 callgsubr
        </CharString>
        <CharString name="sacute">
          4 callgsubr
          86 180 -64 92 -57 23 -12 22 -60 callsubr
          hintmask 0001000100000000
          212 677 -98 callgsubr
          hintmask 1010100000000000
          -132 -647 -78 callgsubr
        </CharString>
        <CharString name="scaron">
          4 callgsubr
          12 238 -48 92 -57 23 -12 22 -60 callsubr
          hintmask 0001000100000000
          178 515 rmoveto
          50 hlineto
          94 162 rlineto
          -36 hlineto
          -83 -77 -83 77 rlineto
          -36 hlineto
          hintmask 1010100000000000
          122 -647 -78 callgsubr
        </CharString>
        <CharString name="scedilla">
          -178 -199 22 167 18 callgsubr
          115 102 -15 92 -57 23 -12 22 -60 callsubr
          hintmask 1101100000000000
          206 30 -9 callgsubr
          hintmask 1011001100000000
          -16 callgsubr
          13 21 -15 -9 32 vhcurveto
          -24 -83 rlineto
          -86 callsubr
          12 45 rlineto
          hintmask 1101010010000000
          1 1 0 1 hhcurveto
          97 71 50 84 hvcurveto
          144 -248 39 57 vvcurveto
          36 30 16 41 vhcurveto
          hintmask 1101000000100000
          6 callsubr
          hintmask 1101010001000000
          -58 callsubr
          hintmask 1101100010000000
          -34 callgsubr
        </CharString>
        <CharString name="scircumflex">
          4 callgsubr
          11 238 -47 92 -57 23 -12 22 -60 callsubr
          hintmask 0001000100000000
          227 677 rmoveto
          -50 hlineto
          -94 -162 -21 callgsubr
          83 67 83 -67 -21 callgsubr
          hintmask 1010100000000000
          -115 -485 -78 callgsubr
        </CharString>
        <CharString name="scommaaccent">
          -180 -2 callsubr
          23 18 callgsubr
          143 56 3 92 -57 23 -12 22 -60 callsubr
          hintmask 1100000010000000
          179 -130 rmoveto
          -102 callsubr
          hintmask 0010110000000000
          27 160 -9 callgsubr
          hintmask 0001100101000000
          -16 callgsubr
          vhcurveto
          hintmask 0010101001000000
          -52 callgsubr
          hintmask 0010100000010000
          6 callsubr
          hintmask 0010101000100000
          -58 callsubr
          hintmask 0010110001000000
          -34 callgsubr
        </CharString>
        <CharString name="section">
          -175 -188 20 744 20 hstemhm
          36 85 -59 70 -70 91 96 91 -70 70 -59 85 hintmask 00000000
          hintmask 11001010
          306 458 rmoveto
          23 11 20 20 30 -55 68 -66 -91 -66 -36 -68 -46 30 -41 37 -41 hvcurveto
          hintmask 11100100
          -56 -21 -37 -45 -88 -106 213 -150 -62 vvcurveto
          -51 -20 -9 -38 vhcurveto
          hintmask 11010100
          -39 -20 47 35 18 -17 18 -19 -23 -11 -20 -20 -30 55 -68 66 91 66 36 68 46 -30 41 -37 41 hvcurveto
          hintmask 11001001
          56 21 37 45 88 106 -213 150 62 vvcurveto
          51 20 9 38 vhcurveto
          hintmask 11001010
          39 20 -47 -35 -18 17 -18 19 hvcurveto
          -61 -384 rmoveto
          hintmask 11100001
          -59 60 -65 61 73 vvcurveto
          30 12 23 24 13 vhcurveto
          59 -60 65 -61 -73 vvcurveto
          -30 -12 -23 -24 -13 vhcurveto
          endchar
        </CharString>
        <CharString name="semicolon">
          -320 -134 36 101 101 216 126 hstemhm
          57 138 -44 52 hintmask 00000000
          hintmask 11001000
          112 1 callsubr
          hintmask 00110000
          -55 392 2 callsubr
        </CharString>
        <CharString name="seven">
          -184 11 -21 500 95 hstem
          128 86 vstem
          128 16 rmoveto
          -10 13 -16 29 28 16 15 11 vhcurveto
          172 172 353 44 vvcurveto
          -336 hlineto
          -38 -159 rlineto
          20 hlineto
          36 14 29 28 16 hhcurveto
          198 hlineto
          -54 -161 -301 -119 vvcurveto
          endchar
        </CharString>
        <CharString name="six">
          -95 -10 32 314 34 199 34 hstem
          41 125 164 125 vstem
          176 354 rmoveto
          22 122 58 69 95 24 -13 34 rcurveline
          -104 -12 -193 -131 -236 vvcurveto
          -132 81 -102 132 119 82 76 122 106 -51 76 -154 -30 -25 -7 -9 -19 vhcurveto
          -5 -32 rmoveto
          9 18 25 5 38 hhcurveto
          78 0 -80 -60 -102 -19 -72 -57 -56 -32 54 148 35 1 33 4 30 hvcurveto
          endchar
        </CharString>
        <CharString name="slash">
          -103 18 -10 11 callgsubr
        </CharString>
        <CharString name="space">
          -337 endchar
        </CharString>
        <CharString name="sterling">
          -46 -10 34 -32 95 41 34 183 44 176 30 hstemhm
          28 34 100 119 96 72 hintmask 00000000
          hintmask 01111111
          342 87 rmoveto
          -30 -24 6 8 -21 hvcurveto
          9 24 5 26 27 vvcurveto
          64 -7 42 -2 61 vhcurveto
          80 44 -81 hlineto
          134 1 10 42 38 hhcurveto
          24 33 -10 -24 hvcurveto
          45 callgsubr
          -65 30 -85 -88 -58 -59 -147 -6 vhcurveto
          -59 -44 58 hlineto
          2 -82 14 -49 -61 vvcurveto
          5 -15 -16 4 -19 hhcurveto
          -39 -45 -42 -38 hvcurveto
          hintmask 10111111
          -46 31 -46 69 38 36 19 30 27 vhcurveto
          hintmask 01111111
          -26 31 36 -21 50 hhcurveto
          118 39 115 11 8 -5 4 -5 hvcurveto
          -11 -12 -43 -128 hhcurveto
          -181 17 rmoveto
          hintmask 10111111
          -62 -4 -13 -18 -20 hhcurveto
          -35 -27 23 34 26 25 21 25 17 16 -10 -14 16 hvcurveto
          endchar
        </CharString>
        <CharString name="t">
          74 callsubr
          145 -20 hstemhm
          77 48 callgsubr
          hintmask 00000000
          hintmask 11101100
          208 585 rmoveto
          -28 callsubr
          hintmask 11110100
          70 -268 hlineto
          -69 callgsubr
          vlineto
          hintmask 11101100
          -86 hlineto
          endchar
        </CharString>
        <CharString name="tbar">
          -222 -10 38 242 34 105 30 125 20 hstemhm
          18 284 -224 48 callgsubr
          hintmask 00000000
          hintmask 11110011
          209 585 rmoveto
          -28 callsubr
          hintmask 11110101
          70 -106 hlineto
          hintmask 11111001
          -60 -34 hlineto
          hintmask 11110101
          60 -129 hlineto
          -110 47 -42 102 68 38 32 60 14 80 callsubr
          -44 -10 -31 -22 -21 hhcurveto
          -42 -10 26 38 hvcurveto
          178 vlineto
          hintmask 11111001
          93 34 hlineto
          hintmask 11110101
          -93 105 86 30 hlineto
          hintmask 11110011
          -86 hlineto
          endchar
        </CharString>
        <CharString name="tcaron">
          74 callsubr
          53 39 33 20 46 84 hstemhm
          77 48 callgsubr
          -12 56 -60 callsubr
          hintmask 1111101000000000
          208 585 rmoveto
          -28 callsubr
          hintmask 1111110100000000
          70 -268 hlineto
          -69 callgsubr
          vlineto
          hintmask 1111101000000000
          -86 hlineto
          90 178 rmoveto
          -40 callsubr
          hintmask 1111100010000000
          2 3 -4 -16 -42 -46 -33 -32 -4 hvcurveto
          -39 vlineto
          33 10 101 30 90 vvcurveto
          56 -44 36 -53 -6 -45 -1 -47 -32 23 -17 33 vhcurveto
          endchar
        </CharString>
        <CharString name="tcommaaccent">
          -221 -199 22 167 19 callgsubr
          78 131 -54 54 16 102 -4 24 hintmask 00000000
          hintmask 11110100
          209 585 rmoveto
          -28 callsubr
          hintmask 11111010
          70 -268 hlineto
          -94 34 -44 74 -11 vhcurveto
          -22 -79 rlineto
          -86 callsubr
          12 45 rlineto
          hintmask 11111001
          64 2 36 32 14 58 -24 12 rcurveline
          -44 -10 -31 -22 -21 hhcurveto
          -42 -10 26 38 hvcurveto
          318 86 30 vlineto
          hintmask 11110100
          -86 hlineto
          endchar
        </CharString>
        <CharString name="thorn">
          -59 -192 21 160 30 397 34 114 23 43 -20 hstem
          57 125 177 130 vstem
          -6 -192 rmoveto
          251 21 hlineto
          -101 callgsubr
          140 vlineto
          180 10 127 85 183 vvcurveto
          87 -78 96 -126 -43 -34 -13 -17 -26 vhcurveto
          210 -95 callgsubr
          -711 vlineto
          -14 -6 -15 -83 callsubr
          188 558 rmoveto
          17 23 31 12 39 hhcurveto
          58 26 -68 -106 -153 -71 -59 -106 -11 hvcurveto
          endchar
        </CharString>
        <CharString name="three">
          -111 -10 31 267 20 227 60 hstemhm
          275 121 -91 118 hintmask 00000000
          hintmask 11101000
          193 288 rmoveto
          29 hlineto
          56 27 -56 -72 -103 -52 -36 -52 hvcurveto
          -86 3 105 -53 hhcurveto
          -28 -8 -14 -40 -18 72 -64 116 170 36 94 96 64 -55 66 -63 17 hvcurveto
          hintmask 11110000
          47 27 44 40 52 vvcurveto
          87 -50 62 -132 -115 -43 -105 -23 -7 4 -3 4 vhcurveto
          15 11 78 94 hhcurveto
          62 29 -43 -59 -71 -41 -38 -53 -16 hvcurveto
          -5 -2 -2 -2 -3 vvcurveto
          -6 10 -7 9 vhcurveto
          endchar
        </CharString>
        <CharString name="threequarters">
          113 0 23 82 29 142 30 154 22 128 50 hstemhm
          207 77 -57 75 229 80 hintmask 00000000
          hintmask 00111010
          143 460 rmoveto
          13 4 4 16 hhcurveto
          31 20 -46 -30 -35 -22 -47 -50 hvcurveto
          -84 19 71 -34 hhcurveto
          -21 -7 -11 -30 -16 50 -44 81 115 28 58 68 39 -27 34 -40 16 hvcurveto
          hintmask 00111100
          25 15 24 23 34 vvcurveto
          60 -35 37 -92 -79 -32 -71 -20 -3 2 -9 8 vhcurveto
          20 -11 53 84 hhcurveto
          38 20 -22 -34 -50 -35 -10 -39 -12 hvcurveto
          -1 -7 -2 -7 -6 8 -7 10 hvcurveto
          hintmask 11000001
          468 -85 -62 callsubr
          -390 -294 11 callgsubr
        </CharString>
        <CharString name="tilde">
          -156 490 33 callgsubr
          60 54 callsubr
          hintmask 00000000
          hintmask 10110000
          284 -3 callgsubr
        </CharString>
        <CharString name="tildecomb">
          490 33 callgsubr
          -403 54 callsubr
          hintmask 00000000
          hintmask 10110000
          -179 -3 callgsubr
        </CharString>
        <CharString name="trademark">
          326 274 11 257 53 -18 18 -11 11 hstemhm
          50 12 105 76 104 13 51 21 301 77 -60 callsubr
          hintmask 1100111110000000
          50 595 rmoveto
          -53 12 vlineto
          hintmask 1010111110000000
          23 13 9 8 3 vhcurveto
          84 -281 hlineto
          -8 -4 -9 -3 -25 hhcurveto
          -11 152 11 vlineto
          -25 -9 3 8 -4 hvcurveto
          281 83 vlineto
          hintmask 1100111110000000
          8 -3 13 -9 -23 vvcurveto
          13 53 hlineto
          13 -321 rmoveto
          96 11 hlineto
          -25 -8 3 8 -4 hvcurveto
          250 vlineto
          137 -272 rlineto
          30 hlineto
          134 269 rlineto
          -247 vlineto
          -8 -4 -8 -3 -25 hhcurveto
          -11 151 11 vlineto
          -25 -8 3 8 -4 hvcurveto
          277 vlineto
          hintmask 1001111110000000
          8 4 8 3 25 hhcurveto
          11 -109 vlineto
          -128 -255 -128 255 rlineto
          -109 -11 hlineto
          25 9 -3 -8 4 hvcurveto
          -277 vlineto
          -8 -4 -9 -3 -25 hhcurveto
          endchar
        </CharString>
        <CharString name="two">
          -101 0 102 433 60 hstem
          293 127 vstem
          26 hmoveto
          384 hlineto
          26 154 rlineto
          -20 hlineto
          -25 -16 -16 -27 -25 hhcurveto
          -181 hlineto
          44 242 187 112 vvcurveto
          74 -48 76 -132 -141 -63 -123 -23 -7 4 -3 4 vhcurveto
          15 27 96 126 hhcurveto
          50 31 -68 -53 hvcurveto
          -145 -267 -205 -64 vvcurveto
          endchar
        </CharString>
        <CharString name="u">
          -49 callgsubr
          hstem
          73 125 170 125 vstem
          493 60 rmoveto
          380 -107 callgsubr
          endchar
        </CharString>
        <CharString name="uacute">
          -49 callgsubr
          75 -4 callgsubr
          39 180 -49 125 24 callgsubr
          291 677 -98 callgsubr
          hintmask 11101010
          76 -617 rmoveto
          380 -107 callgsubr
          endchar
        </CharString>
        <CharString name="ubreve">
          -49 callgsubr
          85 80 27 callgsubr
          -43 28 185 125 -114 28 hintmask 00000000
          hintmask 00010101
          281 525 -94 callgsubr
          hintmask 11101010
          212 -465 rmoveto
          380 -107 callgsubr
          endchar
        </CharString>
        <CharString name="ucircumflex">
          -49 callgsubr
          75 -4 callgsubr
          -36 238 -32 125 24 callgsubr
          306 677 rmoveto
          -50 hlineto
          -94 -162 -21 callgsubr
          83 67 83 -67 -21 callgsubr
          hintmask 11101010
          93 -455 rmoveto
          380 -107 callgsubr
          endchar
        </CharString>
        <CharString name="udieresis">
          -49 callgsubr
          75 118 27 callgsubr
          -71 -8 callsubr
          -67 -43 callgsubr
          hintmask 00010110
          318 574 -105 callsubr
          hintmask 11101001
          366 -514 rmoveto
          380 -107 callgsubr
          endchar
        </CharString>
        <CharString name="ugrave">
          -49 callgsubr
          75 -4 callgsubr
          -71 180 61 125 24 callgsubr
          253 677 rmoveto
          -126 hlineto
          134 -162 rlineto
          46 hlineto
          hintmask 11101010
          186 -455 rmoveto
          380 -107 callgsubr
          endchar
        </CharString>
        <CharString name="uhorn">
          -5 callgsubr
          27 callgsubr
          170 125 92 58 hintmask 00000000
          hintmask 11101111
          585 404 -15 callsubr
          101 -107 callgsubr
          248 vlineto
          58 92 17 88 hvcurveto
          hintmask 11110111
          -91 callsubr
          endchar
        </CharString>
        <CharString name="uhungarumlaut">
          -49 callgsubr
          75 -4 callgsubr
          -47 50 callsubr
          -123 125 24 callgsubr
          205 677 -98 callgsubr
          hintmask 00010010
          -27 callsubr
          hintmask 11101001
          2 -617 rmoveto
          380 -107 callgsubr
          endchar
        </CharString>
        <CharString name="umacron">
          -49 callgsubr
          89 54 27 callgsubr
          -55 264 -39 125 24 callgsubr
          143 583 -66 callsubr
          hintmask 11101010
          86 -523 rmoveto
          380 -107 callgsubr
          endchar
        </CharString>
        <CharString name="underscore">
          -121 -94 44 hstem
          46 -50 rmoveto
          -44 364 44 vlineto
          endchar
        </CharString>
        <CharString name="uni00A0">
          -337 endchar
        </CharString>
        <CharString name="uni00AD">
          20 callsubr
        </CharString>
        <CharString name="uni00B2">
          -225 280 71 callsubr
          346 -57 callgsubr
          endchar
        </CharString>
        <CharString name="uni00B3">
          -231 276 29 callsubr
          460 -44 callgsubr
        </CharString>
        <CharString name="uni00B5">
          34 -10 34 416 -20 hstemhm
          74 42 -42 125 176 125 70 18 hintmask 00000000
          hintmask 11011100
          500 440 rmoveto
          -125 -329 hlineto
          -16 1 -14 3 -12 vhcurveto
          -24 -21 -29 -21 -38 hhcurveto
          -72 -20 46 55 hvcurveto
          315 -125 vlineto
          hintmask 11101100
          -574 vlineto
          -52 36 -14 22 24 26 14 31 vhcurveto
          58 -66 -22 86 vvcurveto
          70 vlineto
          -32 37 58 -15 66 hhcurveto
          53 36 24 27 24 hvcurveto
          -39 20 38 -12 31 hhcurveto
          69 40 18 37 hvcurveto
          -18 hlineto
          -14 -17 -11 -17 -17 -19 17 46 vhcurveto
          endchar
        </CharString>
        <CharString name="uni00B9">
          -334 280 23 hstem
          83 81 vstem
          35 508 -58 callgsubr
          endchar
        </CharString>
        <CharString name="uni0180">
          -24 -10 34 396 34 39 34 37 23 hstemhm
          -10 284 -217 125 211 130 hintmask 00000000
          hintmask 11110110
          182 394 rmoveto
          14 22 32 12 48 hhcurveto
          70 39 -80 -118 -132 -59 -66 -68 -37 -28 8 10 -19 hvcurveto
          -125 518 rmoveto
          -33 vlineto
          hintmask 11111010
          -67 -34 hlineto
          hintmask 11110110
          67 -503 hlineto
          21 53 20 12 30 hvcurveto
          -16 22 36 -16 53 hhcurveto
          130 121 78 154 182 -151 50 -78 -50 -36 -12 -16 -26 hvcurveto
          67 vlineto
          hintmask 11111010
          92 34 hlineto
          hintmask 11110110
          -92 103 hlineto
          -91 callgsubr
          13 23 -2 -2 27 hvcurveto
          endchar
        </CharString>
        <CharString name="uni0181">
          137 0 23 callgsubr
          hstemhm
          67 callsubr
          166 135 -91 -14 callgsubr
          hintmask 10111101
          151 hmoveto
          hintmask 01111101
          -17 callsubr
          hintmask 10111110
          -6 callsubr
          -176 -74 callsubr
          -510 vlineto
          -14 -6 -15 -83 callsubr
          -33 callsubr
          hintmask 01111101
          -19 callsubr
        </CharString>
        <CharString name="uni0186">
          -10 -10 30 79 91 280 -21 112 34 hstem
          35 98 265 132 vstem
          233 20 rmoveto
          -76 -54 46 33 -15 hvcurveto
          22 23 15 26 25 -18 25 -32 -29 -19 -19 -46 -57 64 -78 152 138 141 111 200 231 -197 63 -92 -113 -64 -63 -66 -29 hvcurveto
          34 -17 rlineto
          62 32 66 50 61 hhcurveto
          80 90 -78 -204 -180 -71 -79 -94 hvcurveto
          endchar
        </CharString>
        <CharString name="uni0187">
          70 -10 34 441 -21 117 34 11 76 hstem
          36 139 316 22 vstem
          350 561 rmoveto
          57 76 -62 -55 8 hvcurveto
          22 31 hlineto
          -41 callsubr
          49 -51 22 -37 -62 -31 -54 -62 -8 hvcurveto
          -1 -1 -2 0 -1 -19 -60 -83 callgsubr
        </CharString>
        <CharString name="uni0188">
          -4 -10 38 392 30 25 76 52 callgsubr
          225 58 vstem
          386 344 rmoveto
          58 hlineto
          -41 callsubr
          49 -51 22 -37 -22 -33 -11 -22 -14 hvcurveto
          -18 -27 -13 -23 -4 -57 rrcurveto
          26 -32 -52 13 -63 hhcurveto
          -138 -95 -96 -112 -202 134 -50 92 -44 callsubr
          hvcurveto
          -37 18 rlineto
          -52 -31 -38 -20 -58 hhcurveto
          -80 -50 104 114 108 52 66 61 78 34 -27 -49 hvcurveto
          endchar
        </CharString>
        <CharString name="uni0189">
          31 -1 21 -21 34 236 44 242 29 -21 21 hstemhm
          94 82 callgsubr
          31 -42 callgsubr
        </CharString>
        <CharString name="uni018A">
          151 -1 21 -21 34 522 29 hstemhm
          67 callsubr
          215 -14 callgsubr
          hintmask 10111100
          151 -1 rmoveto
          hintmask 01111100
          -64 callsubr
          -167 1 -74 callsubr
          -511 vlineto
          hintmask 10111100
          -14 -6 -15 -83 callsubr
          190 535 rmoveto
          40 hlineto
          92 83 -76 -187 hvcurveto
          hintmask 01111100
          -189 -83 -70 -80 vhcurveto
          -52 hlineto
          endchar
        </CharString>
        <CharString name="uni018E">
          -74 0 21 callsubr
          54 21 46 21 135 44 callsubr
          hintmask 10101111
          467 hmoveto
          -90 callsubr
          503 vlineto
          -99 callgsubr
          -413 -97 21 vlineto
          hintmask 01110111
          42 6 15 14 6 vhcurveto
          182 -230 -115 hlineto
          -14 6 -6 15 42 vvcurveto
          -21 -160 21 hlineto
          42 6 15 14 6 vhcurveto
          115 -253 -203 hlineto
          -14 6 -17 21 -14 36 rrcurveto
          -20 hlineto
          hintmask 10101111
          24 -97 rlineto
          endchar
        </CharString>
        <CharString name="uni018F">
          30 -10 34 222 34 281 34 hstem
          430 140 vstem
          430 246 rmoveto
          -134 -5 -37 -88 -106 hhcurveto
          -77 -34 89 133 -9 hvcurveto
          269 34 rmoveto
          -410 hlineto
          -171 116 -119 146 157 130 117 194 152 -102 142 -186 -123 -58 -70 -60 -25 vhcurveto
          24 -12 rlineto
          49 18 74 59 70 hhcurveto
          104 65 -96 -185 hvcurveto
          endchar
        </CharString>
        <CharString name="uni0190">
          -71 -10 34 284 34 219 34 -10 -20 hstemhm
          40 139 -125 139 217 23 hintmask 00000000
          hintmask 11100110
          318 308 rmoveto
          34 -10 vlineto
          -79 -36 46 78 50 34 45 68 54 52 -69 -56 20 hvcurveto
          22 hlineto
          hintmask 11010110
          -10 149 -69 callsubr
          hintmask 11100110
          -19 -24 30 -61 hhcurveto
          -138 -102 -27 -124 -61 48 -39 68 -20 hvcurveto
          hintmask 11101010
          -94 -29 -36 -60 -74 vvcurveto
          -56 42 -115 200 136 47 70 60 25 vhcurveto
          -33 14 rlineto
          -49 -18 -63 -61 -74 hhcurveto
          -63 -60 54 96 84 50 50 89 hvcurveto
          endchar
        </CharString>
        <CharString name="uni0191">
          -121 -156 30 413 51 callsubr
          -21 21 hstemhm
          88 127 135 21 46 21 hintmask 00000000
          hintmask 11011110
          438 488 rmoveto
          97 -413 -21 vlineto
          -103 callgsubr
          -558 vlineto
          -76 -18 -36 -24 -20 -4 -22 callgsubr
          76 -22 56 68 91 46 110 hvcurveto
          287 115 vlineto
          -85 callgsubr
          160 -21 hlineto
          -42 -6 -15 -14 -6 vhcurveto
          -115 hlineto
          hintmask 11101110
          230 182 vlineto
          14 -6 6 -15 -42 vvcurveto
          endchar
        </CharString>
        <CharString name="uni0193">
          87 -10 34 244 21 172 -21 121 34 11 76 hstemhm
          33 139 252 127 -63 22 hintmask 00000000
          hintmask 11111101
          362 561 rmoveto
          63 57 -49 -72 6 hvcurveto
          22 35 hlineto
          -41 callsubr
          49 -51 22 -37 -62 -31 -54 -61 -8 hvcurveto
          -1 -1 -2 -1 -2 -19 -44 30 -51 hhcurveto
          -157 -171 24 callsubr
          127 -142 186 hvcurveto
          hintmask 11111110
          120 68 59 31 17 hvcurveto
          168 vlineto
          -99 callgsubr
          -253 -21 vlineto
          -103 callgsubr
          -215 vlineto
          -6 -23 -26 -3 -27 hhcurveto
          -86 -90 68 194 152 76 123 114 hvcurveto
          endchar
        </CharString>
        <CharString name="uni0194">
          -56 -10 47 527 21 hstem
          176 41 41 127 vstem
          229 585 rmoveto
          -247 -21 hlineto
          42 15 -7 -13 7 hvcurveto
          116 -216 9 -17 27 -48 23 -50 rlinecurve
          -24 -42 -21 -46 -35 vvcurveto
          -67 33 -33 56 77 43 34 64 68 -41 90 -27 54 vhcurveto
          4 5 153 239 rlineto
          13 8 13 7 42 hhcurveto
          21 -153 -21 vlineto
          31 16 -3 -7 9 hvcurveto
          -141 -220 -123 221 rlineto
          6 9 16 3 28 hhcurveto
          9 -392 rmoveto
          12 -30 8 -28 -21 vvcurveto
          -20 -2 -36 -14 -18 -7 34 36 17 9 23 12 25 vhcurveto
          endchar
        </CharString>
        <CharString name="uni0196">
          -276 -8 30 542 21 hstem
          84 127 52 18 vstem
          211 585 rmoveto
          -190 -21 hlineto
          -103 callgsubr
          -432 vlineto
          -96 60 -24 45 69 23 17 37 vhcurveto
          -18 hlineto
          -10 -8 -14 -16 -17 -11 16 46 vhcurveto
          endchar
        </CharString>
        <CharString name="uni0197">
          -237 0 21 256 34 253 21 hstem
          110 127 vstem
          47 -25 callsubr
          236 81 34 -81 233 vlineto
          -99 callgsubr
          -253 -21 vlineto
          -103 callgsubr
          -233 -91 -34 91 -236 10 callgsubr
        </CharString>
        <CharString name="uni0198">
          165 59 callgsubr
          7 84 123 -43 callgsubr
          hintmask 10111000
          151 hmoveto
          251 21 hlineto
          -101 callgsubr
          503 vlineto
          -99 callgsubr
          vlineto
          hintmask 11011000
          -188 -74 callsubr
          -510 9 callsubr
          -16 6 10 -10 hvcurveto
          -251 325 182 179 rlineto
          hintmask 10111000
          9 8 12 14 42 hhcurveto
          21 -157 -21 vlineto
          26 15 -2 -5 10 hvcurveto
          -245 -243 228 -290 rlineto
          -2 -9 -12 -1 -16 hhcurveto
          endchar
        </CharString>
        <CharString name="uni0199">
          -27 43 callsubr
          160 30 hstem
          77 125 vstem
          14 hmoveto
          251 21 hlineto
          -101 callgsubr
          -1 447 rlineto
          -57 callsubr
          1 -433 rlineto
          -14 -6 -15 -83 callsubr
          324 17 callgsubr
          -38 -18 3 16 -7 hvcurveto
          -186 258 121 108 rlineto
          7 9 14 6 31 hhcurveto
          21 -157 -21 vlineto
          24 15 -2 -4 10 hvcurveto
          -177 -159 167 -230 rlineto
          -2 -9 -13 -1 -16 hhcurveto
          endchar
        </CharString>
        <CharString name="uni019D">
          35 -200 76 145 -21 564 21 hstem
          88 34 368 34 vstem
          587 585 rmoveto
          -160 -21 hlineto
          -103 callgsubr
          -364 vlineto
          -296 405 rlineto
          -169 -21 hlineto
          -103 callgsubr
          -537 vlineto
          -73 -8 -37 -11 -10 vhcurveto
          -7 -7 -12 -4 -12 hhcurveto
          -12 -11 4 11 -6 hvcurveto
          14 -8 -6 12 -25 hhcurveto
          -23 -18 -20 -26 -49 51 -22 37 22 33 11 22 14 hvcurveto
          23 34 13 27 94 vvcurveto
          507 vlineto
          358 -495 rlineto
          44 544 hlineto
          14 6 15 6 42 hhcurveto
          endchar
        </CharString>
        <CharString name="uni019F">
          87 -10 34 254 34 249 34 46 callgsubr
          35 72 callsubr
          163 134 139 163 163 -132 140 -165 -165 -132 -140 -163 vhcurveto
          135 20 rmoveto
          114 2 35 135 121 hhcurveto
          114 45 -132 -117 6 hvcurveto
          1 -34 rmoveto
          -115 -1 -34 -139 -123 hhcurveto
          -118 -43 136 118 -5 hvcurveto
          endchar
        </CharString>
        <CharString name="uni01A4">
          103 0 21 245 34 251 34 hstem
          67 callsubr
          193 135 vstem
          151 14 callgsubr
          -203 -74 callsubr
          -510 vlineto
          -14 -6 -15 -83 callsubr
          51 callgsubr
          41 hlineto
          122 30 -57 -62 -93 -36 -39 -104 hvcurveto
          -53 hlineto
          endchar
        </CharString>
        <CharString name="uni01A5">
          -24 -192 21 161 34 392 34 150 30 hstem
          57 125 209 130 vstem
          -6 3 callgsubr
          -50 -35 -12 -15 -26 hvcurveto
          65 vlineto
          -57 callsubr
          1 -625 rlineto
          -14 -6 -15 -83 callsubr
          187 562 rmoveto
          14 22 32 11 47 31 callgsubr
        </CharString>
        <CharString name="uni01A9">
          -119 0 93 462 30 hstem
          376 21 17 21 vstem
          397 492 rmoveto
          93 -382 vlineto
          213 -282 -233 -303 rlineto
          404 hlineto
          36 147 62 callgsubr
          -30 -6 -14 -6 rrcurveto
          -225 hlineto
          202 265 -149 197 rlineto
          170 hlineto
          14 -6 6 -15 -42 vvcurveto
          endchar
        </CharString>
        <CharString name="uni01AA">
          -299 -156 30 548 30 148 30 hstem
          -73 107 62 125 vstem
          221 474 rmoveto
          117 -79 39 -68 -70 -77 -24 -74 -66 63 -44 80 9 9 1 1 8 vhcurveto
          -424 vlineto
          -110 91 -46 68 -49 callsubr
          -20 36 76 hvcurveto
          -125 480 rmoveto
          -9 -6 -11 -5 -19 hhcurveto
          -22 -4 34 42 36 16 36 14 24 8 -36 -76 hvcurveto
          endchar
        </CharString>
        <CharString name="uni01AC">
          19 0 21 530 34 hstem
          9 84 168 61 callsubr
          vstem
          583 585 rmoveto
          -367 hlineto
          -121 -19 -12 -23 -34 hvcurveto
          -22 -14 -11 -34 -22 vvcurveto
          -37 22 -51 49 26 21 18 29 13 -5 12 -14 8 vhcurveto
          -11 6 -4 11 12 vvcurveto
          12 4 12 7 7 vhcurveto
          11 10 29 8 73 hhcurveto
          45 -510 hlineto
          -5 callsubr
          253 -90 callsubr
          510 139 vlineto
          14 -6 21 -15 -42 vvcurveto
          21 hlineto
          endchar
        </CharString>
        <CharString name="uni01AD">
          74 callsubr
          166 76 hstem
          77 131 114 24 vstem
          367 611 rmoveto
          49 -51 22 -37 -59 -27 -51 -49 -12 vhcurveto
          -93 -23 -76 -49 -75 hhcurveto
          -30 70 -268 vlineto
          -69 callgsubr
          -86 35 vlineto
          -41 callsubr
          hvcurveto
          endchar
        </CharString>
        <CharString name="uni01AE">
          -38 -156 30 614 97 -34 34 hstemhm
          11 21 174 61 callsubr
          cntrmask 00011100
          hintmask 00000000
          hintmask 10111100
          333 18 rmoveto
          533 139 vlineto
          hintmask 11011100
          14 -6 21 -15 -42 vvcurveto
          21 97 -517 -97 21 hlineto
          hintmask 10111100
          -15 callgsubr
          -485 hlineto
          -18 callgsubr
          -18 34 110 hvcurveto
          endchar
        </CharString>
        <CharString name="uni01B1">
          78 -10 34 527 34 hstem
          41 135 304 135 vstem
          328 24 rmoveto
          -98 -54 94 178 144 21 81 65 64 hvcurveto
          -196 -34 81 hlineto
          -60 -68 -46 -84 -111 vvcurveto
          -200 120 -98 167 167 120 98 200 111 -54 84 -62 68 vhcurveto
          91 34 -196 hlineto
          65 -64 21 -81 -144 vvcurveto
          -178 -54 -94 -98 vhcurveto
          endchar
        </CharString>
        <CharString name="uni01B2">
          38 -10 34 532 39 -31 21 34 callgsubr
          121 92 118 36 hintmask 00000000
          hintmask 11011100
          435 556 rmoveto
          48 56 -108 -86 -192 -58 -146 -156 -52 -65 50 148 hvcurveto
          322 vlineto
          hintmask 10111100
          -99 callgsubr
          -253 -21 vlineto
          -103 callgsubr
          -292 vlineto
          -228 142 -34 108 172 72 156 212 vhcurveto
          hintmask 11011100
          112 -72 125 -88 -33 -53 -20 -48 -36 23 -19 28 30 11 24 20 10 -8 16 -6 6 vhcurveto
          6 9 9 2 10 hhcurveto
          endchar
        </CharString>
        <CharString name="uni01B3">
          129 -51 callsubr
          -20 30 hstemhm
          233 44 callsubr
          hintmask 11010000
          238 585 25 callsubr
          39 16 -7 -13 9 -82 callgsubr
          160 266 rlineto
          hintmask 10110000
          31 19 24 16 27 -18 callsubr
          -64 22 -65 -39 -34 -24 -41 -25 hvcurveto
          -150 -249 -155 271 rlineto
          hintmask 11010000
          9 8 17 3 33 hhcurveto
          endchar
        </CharString>
        <CharString name="uni01B4">
          58 -184 58 545 21 -20 30 hstemhm
          hintmask 00000000
          hintmask 11000000
          217 440 rmoveto
          -229 -21 hlineto
          -103 callgsubr
          177 -443 -26 -64 rlineto
          -11 -4 -9 -7 -15 -30 7 30 -32 hhcurveto
          -30 -14 -18 -22 -40 41 -8 32 29 48 13 69 28 hvcurveto
          162 404 rlineto
          hintmask 10100000
          82 33 22 36 45 -18 callsubr
          -67 22 -65 -49 -47 -40 -57 -23 hvcurveto
          -92 -231 -31 callgsubr
          hintmask 11000000
          -46 callgsubr
          endchar
        </CharString>
        <CharString name="uni01B7">
          -88 -10 30 86 84 302 93 hstemhm
          20 91 -36 21 232 -43 callgsubr
          hintmask 11101100
          319 348 rmoveto
          118 237 rlineto
          -321 hlineto
          -41 -157 rlineto
          21 hlineto
          12 42 30 16 14 6 rrcurveto
          125 hlineto
          -80 -157 rlineto
          85 46 -47 -104 -75 -42 -89 -82 -81 -40 47 39 -10 hvcurveto
          hintmask 11110100
          16 22 11 31 25 -15 17 -30 -34 -12 -28 -30 -70 63 -72 131 153 86 100 98 87 -62 50 -72 23 hvcurveto
          endchar
        </CharString>
        <CharString name="uni01C0">
          -423 21 -21 hstem
          57 40 vstem
          57 620 rmoveto
          -620 40 620 vlineto
          endchar
        </CharString>
        <CharString name="uni01C1">
          -323 0 21 hstem
          57 40 60 40 vstem
          157 620 rmoveto
          -620 40 620 vlineto
          -140 hmoveto
          -620 40 620 vlineto
          endchar
        </CharString>
        <CharString name="uni01C2">
          -317 21 -21 250 40 40 40 hstem
          110 40 vstem
          110 620 rmoveto
          -250 -90 -40 90 -40 -90 -40 90 -250 40 250 90 40 -90 40 90 40 -90 250 vlineto
          endchar
        </CharString>
        <CharString name="uni01C3">
          -352 -10 126 494 20 hstem
          44 138 vstem
          44 -29 callgsubr
        </CharString>
        <CharString name="uni01CD">
          -63 callgsubr
          35 162 hstem
          166 238 vstem
          260 620 rmoveto
          50 hlineto
          94 162 rlineto
          -36 hlineto
          -83 -77 -83 77 rlineto
          -36 hlineto
          163 -782 rmoveto
          -107 callsubr
          endchar
        </CharString>
        <CharString name="uni01CE">
          -17 callgsubr
          -39 238 -45 -26 callsubr
          hintmask 0001001000000000
          208 515 rmoveto
          50 hlineto
          94 162 rlineto
          -36 hlineto
          -83 -77 -83 77 rlineto
          -36 hlineto
          hintmask 1110100110000000
          16 -311 -106 callsubr
          hintmask 1110010110000000
          -99 callsubr
          hintmask 1110100110000000
          -92 callsubr
          endchar
        </CharString>
        <CharString name="uni01CF">
          -252 -51 callsubr
          35 162 hstemhm
          49 238 -188 44 callsubr
          hintmask 00110000
          143 620 rmoveto
          50 hlineto
          94 162 rlineto
          -36 hlineto
          -83 -77 -83 77 rlineto
          -36 hlineto
          hintmask 11001000
          -13 -782 rmoveto
          -96 callgsubr
          endchar
        </CharString>
        <CharString name="uni01D0">
          -32 callgsubr
          65 162 hstemhm
          33 238 -184 -43 callgsubr
          hintmask 00011000
          127 515 rmoveto
          50 hlineto
          94 162 rlineto
          -36 hlineto
          -83 -77 -83 77 rlineto
          -36 hlineto
          hintmask 11100100
          -9 -677 rmoveto
          251 21 hlineto
          -101 callgsubr
          409 -86 callgsubr
          -339 10 callgsubr
        </CharString>
        <CharString name="uni01D1">
          -12 callsubr
          48 238 38 135 vstem
          312 620 rmoveto
          50 hlineto
          94 162 rlineto
          -36 hlineto
          -83 -77 -83 77 rlineto
          -36 hlineto
          -48 -482 -106 callgsubr
          endchar
        </CharString>
        <CharString name="uni01D2">
          -26 callgsubr
          -6 238 -11 23 callsubr
          250 515 rmoveto
          50 hlineto
          94 162 rlineto
          -36 hlineto
          -83 -77 -83 77 rlineto
          -36 hlineto
          hintmask 11010100
          6 -429 -104 callsubr
          endchar
        </CharString>
        <CharString name="uni01D3">
          -35 callgsubr
          35 162 hstem
          81 127 25 238 18 34 vstem
          327 620 rmoveto
          50 hlineto
          94 162 rlineto
          -36 hlineto
          -83 -77 -83 77 rlineto
          -36 hlineto
          113 -758 -105 callgsubr
          endchar
        </CharString>
        <CharString name="uni01D4">
          -49 callgsubr
          75 -4 callgsubr
          -35 238 -33 125 24 callgsubr
          257 515 rmoveto
          50 hlineto
          94 162 rlineto
          -36 hlineto
          -83 -77 -83 77 rlineto
          -36 hlineto
          hintmask 11101010
          330 -617 rmoveto
          380 -107 callgsubr
          endchar
        </CharString>
        <CharString name="uni01D5">
          -35 callgsubr
          35 118 36 54 34 callgsubr
          -11 117 -95 264 -95 81 callsubr
          219 828 -66 callsubr
          hintmask 0010010100000000
          -3 callsubr
          hintmask 1100100010000000
          149 -655 -105 callgsubr
          endchar
        </CharString>
        <CharString name="uni01D6">
          -49 callgsubr
          75 118 60 54 27 callgsubr
          -71 117 -95 264 -95 69 callgsubr
          149 747 -66 callsubr
          hintmask 0001001010000000
          -95 -173 -105 callsubr
          hintmask 1110010001000000
          366 -514 rmoveto
          380 -107 callgsubr
          endchar
        </CharString>
        <CharString name="uni01D7">
          -35 callgsubr
          35 118 8 162 34 callgsubr
          -11 117 14 180 -120 81 callsubr
          382 908 -98 callgsubr
          hintmask 0010010100000000
          -120 -229 -105 callsubr
          hintmask 1100100010000000
          149 -655 -105 callgsubr
          endchar
        </CharString>
        <CharString name="uni01D8">
          -49 callgsubr
          75 118 5 -4 callgsubr
          -71 117 14 180 -120 69 callgsubr
          312 800 -98 callgsubr
          hintmask 0001001010000000
          -120 -226 -105 callsubr
          hintmask 1110010001000000
          366 -514 rmoveto
          380 -107 callgsubr
          endchar
        </CharString>
        <CharString name="uni01D9">
          -35 callgsubr
          35 118 2 162 34 callgsubr
          -11 117 -82 238 -82 81 callsubr
          326 740 rmoveto
          50 hlineto
          94 162 rlineto
          -36 hlineto
          -83 -77 -83 77 rlineto
          -36 hlineto
          hintmask 0010010100000000
          156 -223 -105 callsubr
          hintmask 1100100010000000
          149 -655 -105 callgsubr
          endchar
        </CharString>
        <CharString name="uni01DA">
          -49 callgsubr
          75 118 5 -4 callgsubr
          -71 117 -82 238 -82 69 callgsubr
          256 638 rmoveto
          50 hlineto
          94 162 rlineto
          -36 hlineto
          -83 -77 -83 77 rlineto
          -36 hlineto
          hintmask 0001001010000000
          156 -226 -105 callsubr
          hintmask 1110010001000000
          366 -514 rmoveto
          380 -107 callgsubr
          endchar
        </CharString>
        <CharString name="uni01DB">
          -35 callgsubr
          35 118 8 162 34 callgsubr
          -14 180 -177 -8 callsubr
          -16 34 -60 callsubr
          hintmask 0001010000000000
          320 908 rmoveto
          -126 hlineto
          134 -162 rlineto
          46 hlineto
          hintmask 0010001100000000
          14 -67 -105 callsubr
          hintmask 1100100010000000
          149 -655 -105 callgsubr
          endchar
        </CharString>
        <CharString name="uni01DC">
          -49 callgsubr
          75 118 5 -4 callgsubr
          -74 180 -177 -8 callsubr
          -67 77 callsubr
          hintmask 0000101000000000
          250 800 rmoveto
          -126 hlineto
          134 -162 rlineto
          46 hlineto
          hintmask 0001000110000000
          14 -64 -105 callsubr
          hintmask 1110010001000000
          366 -514 rmoveto
          380 -107 callgsubr
          endchar
        </CharString>
        <CharString name="uni01DD">
          -41 callgsubr
        </CharString>
        <CharString name="uni01DE">
          -63 callgsubr
          35 118 36 54 hstemhm
          130 -8 callgsubr
          hintmask 00000000
          hintmask 00001010
          152 828 -66 callsubr
          hintmask 11110101
          -3 callsubr
          199 -679 rmoveto
          -107 callsubr
          endchar
        </CharString>
        <CharString name="uni01DF">
          64 callgsubr
          60 54 -47 callsubr
          -75 -8 callgsubr
          -79 -26 callsubr
          hintmask 0000100010000000
          100 747 -66 callsubr
          hintmask 0001000101000000
          -95 -173 -105 callsubr
          hintmask 1110010000110000
          52 -208 -106 callsubr
          hintmask 1110001000110000
          -99 callsubr
          hintmask 1110010000110000
          -92 callsubr
          endchar
        </CharString>
        <CharString name="uni01EA">
          89 79 callsubr
          -11 callsubr
          hstem
          36 135 127 59 138 135 vstem
          36 72 callsubr
          vhcurveto
          1 1 0 1 hhcurveto
          -17 -19 -21 -31 -43 -81 callsubr
          26 11 22 10 14 vhcurveto
          142 23 110 128 148 vvcurveto
          163 -132 140 -165 -165 -132 -140 -163 vhcurveto
          135 8 rmoveto
          -67 callgsubr
        </CharString>
        <CharString name="uni01EB">
          -31 79 callsubr
          26 callsubr
          hstem
          30 131 49 59 113 131 vstem
          161 248 rmoveto
          89 31 82 60 100 30 -67 -159 -100 -31 -73 -62 -85 -43 68 160 vhcurveto
          127 -258 rmoveto
          157 5 69 106 115 vvcurveto
          140 -82 94 -162 -62 callgsubr
          -132 82 -94 137 -11 vhcurveto
          -18 -19 -21 -32 -44 -81 callsubr
          24 10 20 9 14 vhcurveto
          endchar
        </CharString>
        <CharString name="uni01F8">
          46 -51 callsubr
          35 162 hstem
          99 34 25 180 163 34 vstem
          284 782 rmoveto
          -126 hlineto
          134 -162 rlineto
          46 hlineto
          -302 -620 rmoveto
          -97 callsubr
        </CharString>
        <CharString name="uni01F9">
          11 callsubr
          66 40 callgsubr
          -54 180 61 125 24 callgsubr
          284 678 rmoveto
          -126 hlineto
          134 -162 rlineto
          46 hlineto
          hintmask 11101010
          -314 -516 rmoveto
          251 21 hlineto
          -101 callgsubr
          335 vlineto
          20 21 34 20 49 hhcurveto
          59 24 -46 -55 hvcurveto
          -274 vlineto
          -5 callsubr
          251 -90 callsubr
          267 vlineto
          96 -76 46 -126 -49 -36 -21 -21 -25 vhcurveto
          42 vlineto
          -45 -104 -43 -39 hhcurveto
          -23 vlineto
          13 23 1 callgsubr
        </CharString>
        <CharString name="uni021A">
          -36 -2 callsubr
          33 20 callgsubr
          12 21 174 127 -21 56 139 21 -60 callsubr
          hintmask 1100000100000000
          277 -130 rmoveto
          -102 callsubr
          hintmask 0011011010000000
          -265 715 rmoveto
          -97 21 vlineto
          hintmask 0010111010000000
          -15 callgsubr
          -510 hlineto
          -5 callsubr
          253 -90 callsubr
          510 139 vlineto
          hintmask 0011011010000000
          -29 callsubr
        </CharString>
        <CharString name="uni021B">
          -223 -2 callsubr
          23 19 callgsubr
          77 131 -54 54 44 56 14 24 -60 callsubr
          hintmask 1100000100000000
          216 -130 rmoveto
          -102 callsubr
          hintmask 0011101010000000
          -8 715 rmoveto
          -28 callsubr
          hintmask 0011110010000000
          70 -268 hlineto
          -69 callgsubr
          vlineto
          hintmask 0011101010000000
          -86 hlineto
          endchar
        </CharString>
        <CharString name="uni0228">
          -74 -199 22 177 12 callgsubr
          65 102 -32 21 46 21 -60 callsubr
          hintmask 1101001101000000
          36 hmoveto
          219 hlineto
          -25 -86 rlineto
          -86 callsubr
          15 55 rlineto
          hintmask 1011101011000000
          167 -61 callsubr
          -102 callgsubr
          hintmask 1101011101000000
          -78 callsubr
        </CharString>
        <CharString name="uni0229">
          -74 -199 22 167 32 callgsubr
          119 102 vstem
          163 272 rmoveto
          109 7 49 39 42 hhcurveto
          59 18 -65 -83 7 hvcurveto
          -183 -31 rmoveto
          316 hlineto
          110 -75 99 -150 -134 -87 -96 -112 -187 119 -57 91 -7 vhcurveto
          -22 -77 rlineto
          -86 callsubr
          12 46 87 5 49 30 35 56 rlinecurve
          -24 12 rlineto
          -50 -40 -42 -16 -58 hhcurveto
          -79 -54 101 112 -2 hvcurveto
          endchar
        </CharString>
        <CharString name="uni022A">
          -42 callsubr
          25 118 36 54 55 callgsubr
          12 -8 callgsubr
          4 135 -60 callsubr
          hintmask 0001001000000000
          204 828 -66 callsubr
          hintmask 1110110110000000
          -3 callsubr
          -12 -379 -106 callgsubr
          endchar
        </CharString>
        <CharString name="uni022B">
          -30 callsubr
          65 118 60 54 -13 callgsubr
          -42 -8 callgsubr
          -45 131 -60 callsubr
          hintmask 0001001000000000
          142 747 -66 callsubr
          hintmask 0010010100000000
          -95 -173 -105 callsubr
          hintmask 1100100010000000
          42 -326 -104 callsubr
          endchar
        </CharString>
        <CharString name="uni0237">
          58 callsubr
          43 -20 hstem
          -88 82 82 125 vstem
          76 381 rmoveto
          -438 80 callgsubr
          -24 -14 10 24 vhcurveto
          6 6 4 8 10 vvcurveto
          24 -14 27 -30 -33 -15 -26 -26 -57 45 -30 85 68 91 39 117 vhcurveto
          494 -86 callgsubr
          endchar
        </CharString>
        <CharString name="uni0241">
          -129 57 callsubr
          27 95 29 127 31 106 vstem
          309 -39 callsubr
        </CharString>
        <CharString name="uni0242">
          -179 0 21 237 76 82 34 hstem
          24 88 24 120 6 108 vstem
          262 277 rmoveto
          -89 -124 4 -2 -151 vhcurveto
          -5 callsubr
          246 -90 callsubr
          46 vlineto
          91 114 14 103 vvcurveto
          85 -50 70 -130 -108 -58 -72 -70 -30 17 -20 26 21 24 10 25 31 -19 10 -16 vhcurveto
          39 10 27 43 54 hhcurveto
          68 26 -40 -99 hvcurveto
          endchar
        </CharString>
        <CharString name="uni0243">
          22 0 21 -21 34 107 34 115 29 232 34 -21 21 hstemhm
          34 284 -219 127 166 135 -91 135 -60 callsubr
          hintmask 0011100110000000
          226 551 rmoveto
          14 hlineto
          125 27 -54 -51 -77 -17 -50 -103 hvcurveto
          -46 hlineto
          hintmask 1011000001000000
          -190 -319 rmoveto
          hintmask 0111100001000000
          -17 callsubr
          hintmask 0011100110000000
          -6 callsubr
          hintmask 1011010100000000
          -239 -21 hlineto
          -103 callgsubr
          -369 vlineto
          hintmask 1011001000000000
          -65 -34 hlineto
          hintmask 1011000101000000
          65 -100 hlineto
          -14 -6 -15 -83 callsubr
          190 120 rmoveto
          hintmask 0111001000000000
          92 34 hlineto
          hintmask 0111000101000000
          -92 115 58 hlineto
          -19 callsubr
        </CharString>
</ttFont>
